<svg width="110" height="120" viewBox="0 0 110 120" fill="none" xmlns="http://www.w3.org/2000/svg">
<g filter="url(#filter0_d_53_290)">
<circle cx="50" cy="56" r="40" fill="white"/>
</g>
<circle cx="50" cy="56" r="30" fill="#F0F5FB"/>
<path fill-rule="evenodd" clip-rule="evenodd" d="M66.3944 39.0441L67.35 40.016L67.3499 40.0161C68.6796 41.3685 67.7655 44.4955 66.4361 45.848L59.9131 51.9756L61.9074 66.3017C61.9906 66.8933 61.6999 67.7806 61.2843 68.2033L60.0378 69.4712C59.5807 69.8936 59.0408 69.8093 58.7498 69.2598L53.4731 58.5681L44.374 66.0057L45.5374 70.908C45.5788 71.4996 45.2467 72.3869 44.8311 72.8096L43.5845 74.0774C43.169 74.5423 42.5459 74.4577 42.2134 73.9507L40.3021 67.9498C39.9696 67.4427 39.2633 66.7244 38.7648 66.3862L32.4079 64.0198C31.9094 63.6817 31.8677 63.0479 32.2833 62.6252L33.5298 61.3573C33.9451 60.9349 34.7763 60.5968 35.3994 60.6389L40.4684 61.8643L47.6979 52.6939L36.9784 47.2001C36.4381 46.9044 36.355 46.3128 36.7706 45.8901L38.0171 44.6222C38.4323 44.1998 39.2636 43.9039 39.8867 43.9885L54.6779 46.0593L60.6607 39.9738C61.9904 38.6213 65.0648 37.6916 66.3944 39.0441ZM65.062 44.2928C65.2166 44.6465 65.2905 44.8156 65.4389 44.6647L65.4389 44.6648C66.353 43.735 66.3944 42.7631 65.5635 41.9601L64.4001 40.7769C63.5692 39.9317 62.6137 39.9317 61.6996 40.8615C61.5537 41.0098 61.696 41.0687 62.0105 41.1988C62.4125 41.3651 63.0959 41.6478 63.8185 42.3828C64.5545 43.1314 64.8703 43.8541 65.062 44.2928ZM47.2406 44.2419L50.4814 44.7068C50.7306 44.7489 50.9384 44.6222 51.0216 44.4108V44.3686C51.1877 43.8616 51.0631 43.2276 50.6477 42.8473L50.2321 42.4246C49.6505 41.8329 48.6949 41.8329 48.0716 42.4246L47.0328 43.8613C46.8668 44.0308 46.95 44.1997 47.2406 44.2419ZM63.1123 55.2717C62.6967 54.8489 62.1151 54.7222 61.6166 54.8914H61.5752C61.4091 54.976 61.2842 55.1449 61.2842 55.3563V55.483L61.6166 57.9763V58.0184L61.6998 58.7368C61.7412 59.0328 61.9076 59.1171 62.1154 58.9482L63.528 57.8917C64.1096 57.3001 64.1096 56.3281 63.528 55.6941L63.1123 55.2717Z" fill="white"/>
<path fill-rule="evenodd" clip-rule="evenodd" d="M66.3944 39.0441L67.35 40.016L67.3499 40.0161C68.6796 41.3685 67.7655 44.4955 66.4361 45.848L59.9131 51.9756L61.9074 66.3017C61.9906 66.8933 61.6999 67.7806 61.2843 68.2033L60.0378 69.4712C59.5807 69.8936 59.0408 69.8093 58.7498 69.2598L53.4731 58.5681L44.374 66.0057L45.5374 70.908C45.5788 71.4996 45.2467 72.3869 44.8311 72.8096L43.5845 74.0774C43.169 74.5423 42.5459 74.4577 42.2134 73.9507L40.3021 67.9498C39.9696 67.4427 39.2633 66.7244 38.7648 66.3862L32.4079 64.0198C31.9094 63.6817 31.8677 63.0479 32.2833 62.6252L33.5298 61.3573C33.9451 60.9349 34.7763 60.5968 35.3994 60.6389L40.4684 61.8643L47.6979 52.6939L36.9784 47.2001C36.4381 46.9044 36.355 46.3128 36.7706 45.8901L38.0171 44.6222C38.4323 44.1998 39.2636 43.9039 39.8867 43.9885L54.6779 46.0593L60.6607 39.9738C61.9904 38.6213 65.0648 37.6916 66.3944 39.0441ZM65.062 44.2928C65.2166 44.6465 65.2905 44.8156 65.4389 44.6647L65.4389 44.6648C66.353 43.735 66.3944 42.7631 65.5635 41.9601L64.4001 40.7769C63.5692 39.9317 62.6137 39.9317 61.6996 40.8615C61.5537 41.0098 61.696 41.0687 62.0105 41.1988C62.4125 41.3651 63.0959 41.6478 63.8185 42.3828C64.5545 43.1314 64.8703 43.8541 65.062 44.2928ZM47.2406 44.2419L50.4814 44.7068C50.7306 44.7489 50.9384 44.6222 51.0216 44.4108V44.3686C51.1877 43.8616 51.0631 43.2276 50.6477 42.8473L50.2321 42.4246C49.6505 41.8329 48.6949 41.8329 48.0716 42.4246L47.0328 43.8613C46.8668 44.0308 46.95 44.1997 47.2406 44.2419ZM63.1123 55.2717C62.6967 54.8489 62.1151 54.7222 61.6166 54.8914H61.5752C61.4091 54.976 61.2842 55.1449 61.2842 55.3563V55.483L61.6166 57.9763V58.0184L61.6998 58.7368C61.7412 59.0328 61.9076 59.1171 62.1154 58.9482L63.528 57.8917C64.1096 57.3001 64.1096 56.3281 63.528 55.6941L63.1123 55.2717Z" fill="url(#paint0_linear_53_290)"/>
<defs>
<filter id="filter0_d_53_290" x="-10" y="0" width="120" height="120" filterUnits="userSpaceOnUse" color-interpolation-filters="sRGB">
<feFlood flood-opacity="0" result="BackgroundImageFix"/>
<feColorMatrix in="SourceAlpha" type="matrix" values="0 0 0 0 0 0 0 0 0 0 0 0 0 0 0 0 0 0 127 0" result="hardAlpha"/>
<feOffset dy="4"/>
<feGaussianBlur stdDeviation="10"/>
<feComposite in2="hardAlpha" operator="out"/>
<feColorMatrix type="matrix" values="0 0 0 0 0 0 0 0 0 0.027451 0 0 0 0 0.368627 0 0 0 0.1 0"/>
<feBlend mode="normal" in2="BackgroundImageFix" result="effect1_dropShadow_53_290"/>
<feBlend mode="normal" in="SourceGraphic" in2="effect1_dropShadow_53_290" result="shape"/>
</filter>
<linearGradient id="paint0_linear_53_290" x1="31.0538" y1="87.1874" x2="67.7775" y2="76.353" gradientUnits="userSpaceOnUse">
<stop stop-color="#0D748B"/>
<stop offset="1" stop-color="#1A0B73"/>
</linearGradient>
</defs>
</svg>
