<svg width="110" height="120" viewBox="0 0 110 120" fill="none" xmlns="http://www.w3.org/2000/svg">
<g filter="url(#filter0_d_53_283)">
<circle cx="50" cy="56" r="40" fill="white"/>
</g>
<circle cx="50" cy="56" r="30" fill="#F0F5FB"/>
<path fill-rule="evenodd" clip-rule="evenodd" d="M64.6489 45.5408C60.5835 39.8468 53.8108 37.2317 47.3345 38.1961L50.7887 55.0995L67.9974 56.2892C68.0603 52.5704 66.9758 48.7999 64.6489 45.5408ZM35.3521 66.4587C41.1288 74.5486 52.3695 76.4242 60.4598 70.648C64.7337 67.5967 67.2722 63.0198 67.8657 58.1886L49.1976 56.8942L45.4663 38.5776C43.3955 39.1162 41.3867 40.0343 39.5415 41.3515C31.4512 47.1281 29.5758 58.3693 35.3521 66.4587Z" fill="white"/>
<path fill-rule="evenodd" clip-rule="evenodd" d="M64.6489 45.5408C60.5835 39.8468 53.8108 37.2317 47.3345 38.1961L50.7887 55.0995L67.9974 56.2892C68.0603 52.5704 66.9758 48.7999 64.6489 45.5408ZM35.3521 66.4587C41.1288 74.5486 52.3695 76.4242 60.4598 70.648C64.7337 67.5967 67.2722 63.0198 67.8657 58.1886L49.1976 56.8942L45.4663 38.5776C43.3955 39.1162 41.3867 40.0343 39.5415 41.3515C31.4512 47.1281 29.5758 58.3693 35.3521 66.4587Z" fill="url(#paint0_linear_53_283)"/>
<defs>
<filter id="filter0_d_53_283" x="-10" y="0" width="120" height="120" filterUnits="userSpaceOnUse" color-interpolation-filters="sRGB">
<feFlood flood-opacity="0" result="BackgroundImageFix"/>
<feColorMatrix in="SourceAlpha" type="matrix" values="0 0 0 0 0 0 0 0 0 0 0 0 0 0 0 0 0 0 127 0" result="hardAlpha"/>
<feOffset dy="4"/>
<feGaussianBlur stdDeviation="10"/>
<feComposite in2="hardAlpha" operator="out"/>
<feColorMatrix type="matrix" values="0 0 0 0 0 0 0 0 0 0.027451 0 0 0 0 0.368627 0 0 0 0.1 0"/>
<feBlend mode="normal" in2="BackgroundImageFix" result="effect1_dropShadow_53_283"/>
<feBlend mode="normal" in="SourceGraphic" in2="effect1_dropShadow_53_283" result="shape"/>
</filter>
<linearGradient id="paint0_linear_53_283" x1="31.0538" y1="86.8045" x2="67.7775" y2="75.9702" gradientUnits="userSpaceOnUse">
<stop stop-color="#0D748B"/>
<stop offset="1" stop-color="#1A0B73"/>
</linearGradient>
</defs>
</svg>
