<svg width="34" height="34" viewBox="0 0 34 34" fill="none" xmlns="http://www.w3.org/2000/svg">
<rect width="34" height="34" rx="17" fill="#F0F5FB"/>
<g clip-path="url(#clip0_46_1064)">
<path d="M9 10.32C9 10.1821 9.05497 10.0499 9.15281 9.95235C9.25066 9.85483 9.38337 9.80005 9.52174 9.80005H11.087C11.2033 9.80008 11.3164 9.83889 11.4081 9.91031C11.4998 9.98174 11.5649 10.0817 11.593 10.1942L12.0157 11.88H24.1304C24.2097 11.8801 24.2879 11.8981 24.3591 11.9327C24.4303 11.9674 24.4927 12.0177 24.5415 12.08C24.5903 12.1422 24.6242 12.2147 24.6406 12.292C24.6571 12.3693 24.6557 12.4492 24.6365 12.5259L23.0713 18.7659C23.0431 18.8784 22.978 18.9784 22.8863 19.0498C22.7946 19.1212 22.6816 19.16 22.5652 19.16H13.1739C13.0575 19.16 12.9445 19.1212 12.8528 19.0498C12.7611 18.9784 12.696 18.8784 12.6678 18.7659L10.68 10.84H9.52174C9.38337 10.84 9.25066 10.7853 9.15281 10.6877C9.05497 10.5902 9 10.458 9 10.32ZM12.2765 12.92L13.5809 18.12H22.1583L23.4626 12.92H12.2765ZM14.2174 21.24C13.9406 21.24 13.6752 21.3496 13.4795 21.5447C13.2839 21.7397 13.1739 22.0042 13.1739 22.2801C13.1739 22.5559 13.2839 22.8204 13.4795 23.0154C13.6752 23.2105 13.9406 23.3201 14.2174 23.3201C14.4941 23.3201 14.7596 23.2105 14.9552 23.0154C15.1509 22.8204 15.2609 22.5559 15.2609 22.2801C15.2609 22.0042 15.1509 21.7397 14.9552 21.5447C14.7596 21.3496 14.4941 21.24 14.2174 21.24ZM12.1304 22.2801C12.1304 21.7284 12.3503 21.1993 12.7417 20.8093C13.1331 20.4192 13.6639 20.2 14.2174 20.2C14.7709 20.2 15.3017 20.4192 15.6931 20.8093C16.0845 21.1993 16.3043 21.7284 16.3043 22.2801C16.3043 22.8317 16.0845 23.3608 15.6931 23.7508C15.3017 24.1409 14.7709 24.3601 14.2174 24.3601C13.6639 24.3601 13.1331 24.1409 12.7417 23.7508C12.3503 23.3608 12.1304 22.8317 12.1304 22.2801ZM21.5217 21.24C21.245 21.24 20.9796 21.3496 20.7839 21.5447C20.5882 21.7397 20.4783 22.0042 20.4783 22.2801C20.4783 22.5559 20.5882 22.8204 20.7839 23.0154C20.9796 23.2105 21.245 23.3201 21.5217 23.3201C21.7985 23.3201 22.0639 23.2105 22.2596 23.0154C22.4553 22.8204 22.5652 22.5559 22.5652 22.2801C22.5652 22.0042 22.4553 21.7397 22.2596 21.5447C22.0639 21.3496 21.7985 21.24 21.5217 21.24ZM19.4348 22.2801C19.4348 21.7284 19.6547 21.1993 20.046 20.8093C20.4374 20.4192 20.9682 20.2 21.5217 20.2C22.0752 20.2 22.6061 20.4192 22.9974 20.8093C23.3888 21.1993 23.6087 21.7284 23.6087 22.2801C23.6087 22.8317 23.3888 23.3608 22.9974 23.7508C22.6061 24.1409 22.0752 24.3601 21.5217 24.3601C20.9682 24.3601 20.4374 24.1409 20.046 23.7508C19.6547 23.3608 19.4348 22.8317 19.4348 22.2801Z" fill="white"/>
<path d="M9 10.32C9 10.1821 9.05497 10.0499 9.15281 9.95235C9.25066 9.85483 9.38337 9.80005 9.52174 9.80005H11.087C11.2033 9.80008 11.3164 9.83889 11.4081 9.91031C11.4998 9.98174 11.5649 10.0817 11.593 10.1942L12.0157 11.88H24.1304C24.2097 11.8801 24.2879 11.8981 24.3591 11.9327C24.4303 11.9674 24.4927 12.0177 24.5415 12.08C24.5903 12.1422 24.6242 12.2147 24.6406 12.292C24.6571 12.3693 24.6557 12.4492 24.6365 12.5259L23.0713 18.7659C23.0431 18.8784 22.978 18.9784 22.8863 19.0498C22.7946 19.1212 22.6816 19.16 22.5652 19.16H13.1739C13.0575 19.16 12.9445 19.1212 12.8528 19.0498C12.7611 18.9784 12.696 18.8784 12.6678 18.7659L10.68 10.84H9.52174C9.38337 10.84 9.25066 10.7853 9.15281 10.6877C9.05497 10.5902 9 10.458 9 10.32ZM12.2765 12.92L13.5809 18.12H22.1583L23.4626 12.92H12.2765ZM14.2174 21.24C13.9406 21.24 13.6752 21.3496 13.4795 21.5447C13.2839 21.7397 13.1739 22.0042 13.1739 22.2801C13.1739 22.5559 13.2839 22.8204 13.4795 23.0154C13.6752 23.2105 13.9406 23.3201 14.2174 23.3201C14.4941 23.3201 14.7596 23.2105 14.9552 23.0154C15.1509 22.8204 15.2609 22.5559 15.2609 22.2801C15.2609 22.0042 15.1509 21.7397 14.9552 21.5447C14.7596 21.3496 14.4941 21.24 14.2174 21.24ZM12.1304 22.2801C12.1304 21.7284 12.3503 21.1993 12.7417 20.8093C13.1331 20.4192 13.6639 20.2 14.2174 20.2C14.7709 20.2 15.3017 20.4192 15.6931 20.8093C16.0845 21.1993 16.3043 21.7284 16.3043 22.2801C16.3043 22.8317 16.0845 23.3608 15.6931 23.7508C15.3017 24.1409 14.7709 24.3601 14.2174 24.3601C13.6639 24.3601 13.1331 24.1409 12.7417 23.7508C12.3503 23.3608 12.1304 22.8317 12.1304 22.2801ZM21.5217 21.24C21.245 21.24 20.9796 21.3496 20.7839 21.5447C20.5882 21.7397 20.4783 22.0042 20.4783 22.2801C20.4783 22.5559 20.5882 22.8204 20.7839 23.0154C20.9796 23.2105 21.245 23.3201 21.5217 23.3201C21.7985 23.3201 22.0639 23.2105 22.2596 23.0154C22.4553 22.8204 22.5652 22.5559 22.5652 22.2801C22.5652 22.0042 22.4553 21.7397 22.2596 21.5447C22.0639 21.3496 21.7985 21.24 21.5217 21.24ZM19.4348 22.2801C19.4348 21.7284 19.6547 21.1993 20.046 20.8093C20.4374 20.4192 20.9682 20.2 21.5217 20.2C22.0752 20.2 22.6061 20.4192 22.9974 20.8093C23.3888 21.1993 23.6087 21.7284 23.6087 22.2801C23.6087 22.8317 23.3888 23.3608 22.9974 23.7508C22.6061 24.1409 22.0752 24.3601 21.5217 24.3601C20.9682 24.3601 20.4374 24.1409 20.046 23.7508C19.6547 23.3608 19.4348 22.8317 19.4348 22.2801Z" fill="url(#paint0_linear_46_1064)"/>
</g>
<defs>
<linearGradient id="paint0_linear_46_1064" x1="8.58863" y1="29.5388" x2="24.3588" y2="24.5373" gradientUnits="userSpaceOnUse">
<stop stop-color="#0D748B"/>
<stop offset="1" stop-color="#1A0B73"/>
</linearGradient>
<clipPath id="clip0_46_1064">
<rect width="16" height="16" fill="white" transform="translate(9 9)"/>
</clipPath>
</defs>
</svg>
