<svg width="18" height="18" viewBox="0 0 18 18" fill="none" xmlns="http://www.w3.org/2000/svg">
<g clip-path="url(#clip0_46_144)">
<path fill-rule="evenodd" clip-rule="evenodd" d="M13.2063 7.53454C13.2063 10.667 10.6669 13.2064 7.53442 13.2064C4.40193 13.2064 1.86255 10.667 1.86255 7.53454C1.86255 4.40205 4.40193 1.86266 7.53442 1.86266C10.6669 1.86266 13.2063 4.40205 13.2063 7.53454ZM13.1084 12.0479C14.1076 10.8153 14.7063 9.24485 14.7063 7.53454C14.7063 3.57362 11.4953 0.362663 7.53442 0.362663C3.57351 0.362663 0.362549 3.57362 0.362549 7.53454C0.362549 11.4955 3.57351 14.7064 7.53442 14.7064C9.24473 14.7064 10.8152 14.1077 12.0477 13.1085L16.5222 17.583C16.8151 17.8759 17.29 17.8759 17.5828 17.583C17.8757 17.2901 17.8757 16.8152 17.5828 16.5223L13.1084 12.0479Z" fill="white"/>
<path fill-rule="evenodd" clip-rule="evenodd" d="M13.2063 7.53454C13.2063 10.667 10.6669 13.2064 7.53442 13.2064C4.40193 13.2064 1.86255 10.667 1.86255 7.53454C1.86255 4.40205 4.40193 1.86266 7.53442 1.86266C10.6669 1.86266 13.2063 4.40205 13.2063 7.53454ZM13.1084 12.0479C14.1076 10.8153 14.7063 9.24485 14.7063 7.53454C14.7063 3.57362 11.4953 0.362663 7.53442 0.362663C3.57351 0.362663 0.362549 3.57362 0.362549 7.53454C0.362549 11.4955 3.57351 14.7064 7.53442 14.7064C9.24473 14.7064 10.8152 14.1077 12.0477 13.1085L16.5222 17.583C16.8151 17.8759 17.29 17.8759 17.5828 17.583C17.8757 17.2901 17.8757 16.8152 17.5828 16.5223L13.1084 12.0479Z" fill="url(#paint0_linear_46_144)"/>
</g>
<defs>
<linearGradient id="paint0_linear_46_144" x1="-0.0997514" y1="24.2091" x2="17.8438" y2="18.9153" gradientUnits="userSpaceOnUse">
<stop stop-color="#0D748B"/>
<stop offset="1" stop-color="#1A0B73"/>
</linearGradient>
<clipPath id="clip0_46_144">
<rect width="18" height="18" fill="white"/>
</clipPath>
</defs>
</svg>
