<svg width="20" height="20" viewBox="0 0 20 20" fill="none" xmlns="http://www.w3.org/2000/svg">
<g clip-path="url(#clip0_46_1076)">
<path d="M16.8891 3.92912C16.4787 3.51723 15.9909 3.19042 15.4539 2.96742C14.9169 2.74443 14.3411 2.62964 13.7596 2.62964C13.1781 2.62964 12.6023 2.74443 12.0653 2.96742C11.5282 3.19042 11.0405 3.51723 10.63 3.92912L10 4.5673L9.37005 3.92912C8.95958 3.51723 8.47185 3.19042 7.93481 2.96742C7.39777 2.74443 6.822 2.62964 6.2405 2.62964C5.65901 2.62964 5.08323 2.74443 4.5462 2.96742C4.00916 3.19042 3.52142 3.51723 3.11096 3.92912C1.37641 5.66367 1.27005 8.59276 3.45459 10.8182L10 17.3637L16.5455 10.8182C18.73 8.59276 18.6237 5.66367 16.8891 3.92912Z" stroke="white" stroke-width="1.5" stroke-linecap="round" stroke-linejoin="round"/>
<path d="M16.8891 3.92912C16.4787 3.51723 15.9909 3.19042 15.4539 2.96742C14.9169 2.74443 14.3411 2.62964 13.7596 2.62964C13.1781 2.62964 12.6023 2.74443 12.0653 2.96742C11.5282 3.19042 11.0405 3.51723 10.63 3.92912L10 4.5673L9.37005 3.92912C8.95958 3.51723 8.47185 3.19042 7.93481 2.96742C7.39777 2.74443 6.822 2.62964 6.2405 2.62964C5.65901 2.62964 5.08323 2.74443 4.5462 2.96742C4.00916 3.19042 3.52142 3.51723 3.11096 3.92912C1.37641 5.66367 1.27005 8.59276 3.45459 10.8182L10 17.3637L16.5455 10.8182C18.73 8.59276 18.6237 5.66367 16.8891 3.92912Z" stroke="url(#paint0_linear_46_1076)" stroke-width="1.5" stroke-linecap="round" stroke-linejoin="round"/>
</g>
<defs>
<linearGradient id="paint0_linear_46_1076" x1="1.38136" y1="22.6043" x2="17.7781" y2="17.2276" gradientUnits="userSpaceOnUse">
<stop stop-color="#0D748B"/>
<stop offset="1" stop-color="#1A0B73"/>
</linearGradient>
<clipPath id="clip0_46_1076">
<rect width="18" height="18" fill="white" transform="translate(1 1)"/>
</clipPath>
</defs>
</svg>
