<svg width="320" height="231" viewBox="0 0 320 231" fill="none" xmlns="http://www.w3.org/2000/svg">
<g filter="url(#filter0_d_53_319)">
<g clip-path="url(#clip0_53_319)">
<rect x="10" y="16" width="300" height="191" rx="10" fill="url(#paint0_radial_53_319)"/>
<path opacity="0.8" d="M301.427 0.301101C300.739 -0.100367 299.535 -0.100367 298.847 0.301101C298.331 0.587864 298.16 1.04669 298.446 1.44815L258.606 24.4466V53.5243L248.918 59.1449V90.7462L215.671 109.959L210.511 106.977L236.135 92.18V74.8595L236.021 74.8022L206.843 57.9405V52.0905L223.352 42.57C224.04 42.8568 225.072 42.8568 225.702 42.4553C226.39 42.0538 226.39 41.3656 225.702 40.9641C225.014 40.5626 223.811 40.5626 223.123 40.9641C222.492 41.3082 222.435 41.8818 222.951 42.3406L206.441 51.8611V58.2273L206.556 58.2846L235.734 75.1463V92.008L216.301 103.134V95.9079L225.186 90.8036C225.874 91.0903 226.906 91.0903 227.537 90.6889C228.224 90.2874 228.224 89.5991 227.537 89.1977C226.849 88.7962 225.645 88.7962 224.957 89.1977C224.326 89.5418 224.269 90.1153 224.785 90.5742L215.9 95.6785V103.364L210.053 106.748L203.117 102.733V90.1727L216.186 82.6021V73.8845L216.072 73.8272L188.556 57.9405C189.072 57.539 189.015 56.9655 188.384 56.564C187.697 56.1626 186.493 56.1626 185.805 56.564C185.117 56.9655 185.117 57.6537 185.805 58.0552C186.435 58.3993 187.467 58.4567 188.155 58.1699L215.785 74.1139V82.3154L203.117 89.6565V80.9962L203.002 80.9389L186.149 71.189C186.665 70.7875 186.607 70.214 185.977 69.8125C185.289 69.411 184.085 69.411 183.397 69.8125C182.709 70.214 182.709 70.9022 183.397 71.3037C184.028 71.6478 185.06 71.7051 185.748 71.4184L202.658 81.2257V102.446L197.786 99.6359L189.76 104.281L182.48 100.095V89.8859L182.365 89.8286L163.162 78.7595V69.1243C163.563 69.1243 163.965 69.0096 164.251 68.8375C164.939 68.436 164.939 67.7478 164.251 67.3463C163.563 66.9449 162.359 66.9449 161.672 67.3463C160.984 67.7478 160.984 68.436 161.672 68.8375C161.958 69.0096 162.359 69.1243 162.761 69.1243V78.9889L162.875 79.0463L182.079 90.1153V99.8653L150.837 81.7992V62.6434L167.805 52.8361H183.34H183.397L210.11 37.4083C210.798 37.695 211.83 37.695 212.46 37.2935C213.148 36.8921 213.148 36.2038 212.46 35.8024C211.773 35.4009 210.569 35.4009 209.881 35.8024C209.25 36.1465 209.193 36.7774 209.709 37.1788L183.283 52.4346H168.55L217.562 24.1024C218.25 24.3892 219.282 24.3892 219.913 23.9877C220.6 23.5863 220.6 22.898 219.913 22.4966C219.225 22.0951 218.021 22.0951 217.333 22.4966C216.702 22.8407 216.645 23.4716 217.161 23.873L150.436 62.4714V82.086L150.551 82.1433L189.359 104.568L181.563 109.099L115.297 70.7875V47.9611L115.182 47.9038L92.6537 34.8847C93.1696 34.4833 93.1123 33.9097 92.4818 33.5083C91.7939 33.1068 90.5901 33.1068 89.9022 33.5083C89.2143 33.9097 89.2143 34.598 89.9022 34.9994C90.5328 35.3436 91.5646 35.4009 92.2525 35.1142L114.895 48.1905V71.0169L115.01 71.0742L181.219 109.328L173.767 113.63L108.188 75.7772H69.0937L44.6737 61.6684V39.9891C44.903 39.9318 45.1896 39.8744 45.3616 39.7597C46.0495 39.3582 46.0495 38.67 45.3616 38.2685C44.6737 37.8671 43.4699 37.8671 42.782 38.2685C42.0942 38.67 42.0942 39.3582 42.782 39.7597C43.1833 39.9891 43.6992 40.1038 44.2151 40.0465V61.8978L44.3298 61.9552L68.979 76.1786H108.074L163.391 108.124H152.27L133.411 97.227H118.851H118.793L98.6154 108.87C97.9275 108.583 96.8957 108.583 96.2651 108.984C95.5772 109.386 95.5772 110.074 96.2651 110.476C96.953 110.877 98.1568 110.877 98.8447 110.476C99.4753 110.131 99.5326 109.501 99.0167 109.099L118.965 97.5712H133.296L152.156 108.468H164.079L173.308 113.802L153.474 125.272L147.799 122.003V113.458L133.468 105.199C133.984 104.798 133.927 104.224 133.296 103.823C132.608 103.421 131.405 103.421 130.717 103.823C130.029 104.224 130.029 104.912 130.717 105.314C131.347 105.658 132.379 105.715 133.067 105.428L147.398 113.687V121.774L132.092 112.999H124.87H124.812L116.156 117.989C115.469 117.702 114.437 117.702 113.806 118.103C113.118 118.505 113.118 119.193 113.806 119.595C114.494 119.996 115.698 119.996 116.386 119.595C117.016 119.25 117.074 118.62 116.558 118.218L124.927 113.4H131.978L153.016 125.559L149.175 127.796L161.385 134.85L155.653 138.177H146.997L140.806 134.621C141.322 134.219 141.207 133.646 140.576 133.302C139.889 132.9 138.685 132.9 137.997 133.302C137.309 133.703 137.309 134.392 137.997 134.793C138.627 135.195 139.659 135.194 140.347 134.908L146.825 138.636H154.85L140.29 147.066L106.01 127.28H81.3609H81.3036L67.4313 135.309C66.7434 135.022 65.7116 135.022 65.081 135.424C64.3931 135.825 64.3931 136.514 65.081 136.915C65.7689 137.317 66.9727 137.317 67.6606 136.915C68.2911 136.571 68.3484 135.94 67.8325 135.539L81.4756 127.681H105.953L132.379 142.937H121.086L110.08 136.399C110.596 135.997 110.539 135.424 109.908 135.022C109.22 134.621 108.017 134.621 107.329 135.022C106.641 135.424 106.641 136.112 107.329 136.514C107.959 136.858 108.991 136.915 109.679 136.628L121.029 143.167H133.182L140.003 147.124L122.577 157.161H66.9154L23.7505 132.27C24.2665 131.868 24.2091 131.295 23.5786 130.893C22.8907 130.492 21.6869 130.492 20.999 130.893C20.3111 131.295 20.3111 131.983 20.999 132.384C21.6296 132.728 22.6614 132.786 23.3493 132.499L66.858 157.619H121.889L115.01 161.634H73.7942H73.7369L53.4443 173.391C52.7564 173.105 51.7245 173.105 51.094 173.506C50.4061 173.908 50.4061 174.596 51.094 174.997C51.7819 175.399 52.9857 175.399 53.6736 174.997C54.3041 174.653 54.3614 174.022 53.8455 173.621L73.9089 162.036H115.125H115.182L161.844 135.08L167.003 138.062L117.934 166.394H82.0488H81.9915L38.6547 191.457H-21.4206L-33 184.747V185.206L-21.4779 191.859H38.7694H38.8267L66.0555 176.144V185.435L48.1132 195.816C47.4253 195.529 46.3934 195.529 45.7629 195.931C45.075 196.332 45.075 197.021 45.7629 197.422C46.4508 197.824 47.6546 197.824 48.3424 197.422C48.973 197.078 49.0303 196.447 48.5144 196.046L66.4568 185.665V175.972H66.3421L82.1635 166.853H118.048H118.105L167.404 138.349L173.308 141.733L77.5776 197.021V207H77.9789V197.25L173.71 141.962L180.99 146.149L131.634 174.653V179.757L122.863 184.805V196.504L105.896 206.312C105.208 206.025 104.176 206.025 103.545 206.426C103.259 206.599 103.144 206.771 103.029 206.943H106.583C106.526 206.828 106.411 206.656 106.297 206.541L123.265 196.734V185.034L131.634 180.216V198.971L136.564 201.838L127.679 206.943H128.481L136.965 202.068L145.449 206.943H146.251L132.035 198.741V174.883L181.391 146.378L188.041 150.221L153.13 170.409C152.442 170.122 151.411 170.122 150.78 170.524C150.092 170.925 150.092 171.613 150.78 172.015C151.468 172.416 152.672 172.416 153.36 172.015C153.99 171.671 154.048 171.097 153.532 170.638L188.442 150.45L194.862 154.121L153.073 178.266H141.723C141.666 178.094 141.494 177.865 141.207 177.75C140.519 177.349 139.315 177.349 138.627 177.75C137.94 178.152 137.94 178.84 138.627 179.241C139.315 179.643 140.519 179.643 141.207 179.241C141.494 179.069 141.666 178.897 141.723 178.725H153.188H153.245L195.263 154.465L197.843 155.956L199.849 154.809L209.881 160.602V168.631L201.626 173.391H188.671H188.614L174.397 181.593C173.71 181.306 172.678 181.306 172.047 181.707C171.359 182.109 171.359 182.797 172.047 183.199C172.735 183.6 173.939 183.6 174.627 183.199C175.257 182.855 175.315 182.224 174.799 181.822L188.786 173.735H200.881L176.576 187.787C175.888 187.443 174.856 187.5 174.168 187.844C173.48 188.246 173.48 188.934 174.168 189.335C174.856 189.737 176.06 189.737 176.748 189.335C177.378 188.991 177.436 188.418 176.977 188.016L207.301 170.466V174.366L189.244 184.805V192.146L174.569 200.634C173.882 200.347 172.85 200.347 172.219 200.749C171.531 201.15 171.531 201.838 172.219 202.24C172.907 202.641 174.111 202.641 174.799 202.24C175.429 201.896 175.487 201.265 174.971 200.863L189.646 192.375V185.034L207.703 174.596V170.237L210.225 168.803V160.258L200.193 154.465L206.785 150.68L227.365 162.609V176.144L213.378 184.231C212.69 183.887 211.658 183.944 210.97 184.288C210.282 184.69 210.282 185.378 210.97 185.78C211.658 186.181 212.862 186.181 213.55 185.78C214.18 185.435 214.237 184.862 213.779 184.46L227.365 176.603V187.557L216.645 193.752V207H217.046V193.981L227.365 188.016V207H227.766V162.38L207.187 150.393L214.581 146.149L241.524 161.691V198.741L254.479 206.197V206.943H254.88V205.968L241.925 198.512V161.462L214.983 145.919L220.486 142.765L256.829 163.756V195.357L276.95 206.943H277.752L257.23 195.128V163.527L220.887 142.536L229.772 137.431L290.249 172.359V188.074L311 200.06V199.602L290.707 187.844V172.13L256.714 152.458H283.599L311 168.287V167.828L283.657 152.056H255.912L230.173 137.202L240.492 131.237L262.619 144.027H298.16L310.943 151.425V150.966L308.134 149.361H310.943V148.959H307.446L298.274 143.683H262.733L256.542 140.127H271.676H271.733L279.3 135.768H310.885L311 135.825V135.367H280.045L288.586 130.434C289.274 130.721 290.306 130.721 290.937 130.32C291.625 129.918 291.625 129.23 290.937 128.828C290.249 128.427 289.045 128.427 288.357 128.828C287.727 129.172 287.669 129.803 288.185 130.205L271.619 139.783H255.912L240.95 131.18L246.453 127.968L242.899 125.903H253.218L266.689 133.703C266.173 134.105 266.23 134.678 266.861 135.08C267.549 135.481 268.752 135.481 269.44 135.08C270.128 134.678 270.128 133.99 269.44 133.589C268.81 133.245 267.778 133.187 267.09 133.474L253.275 125.502H242.154L234.587 121.143L239.231 118.448H247.485L254.708 114.261H260.096L272.306 121.315C271.733 121.717 271.791 122.29 272.478 122.692C273.166 123.093 274.37 123.093 275.058 122.692C275.746 122.29 275.746 121.602 275.058 121.2C274.427 120.856 273.453 120.799 272.765 121.086L260.268 113.859H254.651L247.428 118.046H239.976L254.823 109.443H262.848L279.587 119.078H311V118.677H279.701L262.905 108.87H254.651H254.593L234.129 120.684L228.74 117.587L251.842 104.224H268.122L281.593 111.967H310.885V111.565H281.708L268.982 104.224H310.885V103.823H251.785H251.727L228.396 117.358L222.32 113.859L254.536 95.2197H310.943V94.8182H269.842L310.943 71.0742V70.6154L269.039 94.8182H254.823L285.376 77.1536V73.2536L299.994 64.8228C300.682 65.1096 301.714 65.1096 302.344 64.7081C303.032 64.3066 303.032 63.6184 302.344 63.2169C301.656 62.8155 300.452 62.8155 299.765 63.2169C299.134 63.5611 299.077 64.1346 299.593 64.5934L291.625 69.1816V58.514L310.943 47.3876V46.9288L291.223 58.2846V69.411L284.975 73.0242V76.9242L254.192 94.7035L254.307 94.8756L221.919 113.573L216.015 110.189L249.262 90.9756V59.3743L310.943 23.7583V23.2995L259.007 53.2949V24.7333L298.79 1.79227L298.847 1.84962C299.535 2.25109 300.739 2.25109 301.427 1.84962C302.115 1.3908 302.115 0.70257 301.427 0.301101ZM245.594 127.739L197.843 155.325L150.092 127.739L197.843 100.152L245.594 127.739Z" fill="url(#paint1_radial_53_319)"/>
<path opacity="0.1" d="M310.943 49.7474L302.472 54.6813V70.5155L227.153 114.117L221.429 110.79L260.291 88.3004V84.2845L267.159 80.3259V71.0892L280.494 63.3442C281.067 63.5737 281.811 63.5737 282.326 63.2869C282.898 62.9426 282.898 62.4263 282.326 62.1394C281.754 61.7952 280.838 61.7952 280.323 62.1394C279.808 62.4263 279.75 62.8853 280.151 63.2295L266.816 70.9745V80.2112L260.234 83.9976V69.196L260.176 69.1386L256.399 66.9586L279.178 53.7633V38.9618L295.375 29.6104C295.948 29.8398 296.692 29.8398 297.207 29.553C297.779 29.2088 297.779 28.6924 297.207 28.4056C296.634 28.0614 295.719 28.0614 295.204 28.4056C294.688 28.6924 294.631 29.1514 295.032 29.4956L278.835 38.847V53.6486L256.056 66.8438L219.025 45.2151V28.6351C219.312 28.6351 219.655 28.5203 219.884 28.4056C220.456 28.0614 220.456 27.545 219.884 27.2582C219.312 26.9139 218.396 26.9139 217.881 27.2582C217.308 27.6024 217.308 28.1187 217.881 28.4056C218.11 28.5203 218.396 28.6351 218.739 28.6351V45.3873L218.797 45.4446L241.06 58.353H224.806L211.7 50.7801C212.1 50.4359 212.043 49.9769 211.528 49.69C210.955 49.3458 210.04 49.3458 209.525 49.69C208.952 50.0343 208.952 50.5506 209.525 50.8375C210.04 51.1243 210.841 51.1817 211.356 50.8948L224.692 58.6398H241.576L259.89 69.2534V88.0709L221.086 110.56L215.878 107.52L243.35 91.6279C243.922 91.8574 244.666 91.8574 245.181 91.5705C245.754 91.2263 245.754 90.71 245.181 90.4231C244.609 90.0789 243.693 90.0789 243.178 90.4231C242.663 90.71 242.606 91.1689 243.006 91.5131L215.534 107.405L210.498 104.479L243.407 85.4319H252.335C252.393 85.604 252.507 85.7187 252.736 85.8335C253.308 86.1777 254.224 86.1777 254.739 85.8335C255.312 85.4892 255.312 84.9729 254.739 84.6861C254.167 84.3418 253.251 84.3418 252.736 84.6861C252.507 84.8008 252.393 84.9729 252.335 85.0877H243.293H243.235L210.211 104.307L208.208 103.159L208.151 103.217L206.663 104.077L198.765 99.545V93.1769L205.289 89.3904H215.477L226.752 82.9076C227.324 83.1371 228.068 83.1371 228.583 82.8502C229.156 82.506 229.156 81.9896 228.583 81.7028C228.011 81.3586 227.095 81.3586 226.58 81.7028C226.065 81.9896 226.008 82.4486 226.409 82.7928L215.362 89.0462H205.747L224.863 77.9737C225.436 78.2032 226.237 78.2032 226.752 77.9163C227.324 77.5721 227.324 77.0558 226.752 76.7689C226.18 76.4247 225.264 76.4247 224.749 76.7689C224.234 77.0558 224.176 77.5147 224.577 77.8016L200.711 91.6279V88.5873L214.905 80.3833V74.5888L226.466 67.8765C227.038 68.106 227.782 68.106 228.297 67.8191C228.87 67.4749 228.87 66.9586 228.297 66.6717C227.725 66.3275 226.809 66.3275 226.294 66.6717C225.779 66.9586 225.722 67.4175 226.122 67.7618L214.561 74.4741V80.2685L200.367 88.4725V91.9147L198.364 93.0621V99.7745L206.262 104.307L201.111 107.29L184.914 97.8813V87.2104L195.903 80.7849C196.475 81.0143 197.277 81.0143 197.792 80.7275C198.364 80.3833 198.364 79.8669 197.792 79.5801C197.219 79.2359 196.304 79.2359 195.789 79.5801C195.273 79.8669 195.216 80.3259 195.617 80.6127L184.914 86.8088V78.2032L193.385 73.3267V57.0908C193.671 57.0908 194.014 56.9761 194.243 56.8614C194.816 56.5171 194.816 56.0008 194.243 55.7139C193.671 55.3697 192.755 55.3697 192.24 55.7139C191.668 56.0582 191.668 56.5745 192.24 56.8614C192.469 56.9761 192.755 57.0908 193.099 57.0908V73.0972L184.971 77.8016V49.2311H184.628V98.0534L200.825 107.462L194.987 110.847L173.811 98.5697V69.3681L163.623 63.459V52.4438L154.638 47.2231C155.038 46.8789 154.981 46.4199 154.466 46.1331C153.894 45.7888 152.978 45.7888 152.463 46.1331C151.89 46.4773 151.89 46.9936 152.463 47.2805C152.978 47.5673 153.779 47.6247 154.294 47.3379L163.28 52.5586V63.5737L173.467 69.4829V98.6845L194.644 110.962L190.351 113.429L161.734 96.8486V71.9498L161.677 71.8924L136.38 57.263C136.781 56.9187 136.723 56.4598 136.208 56.1729C135.636 55.8287 134.72 55.8287 134.205 56.1729C133.633 56.5171 133.633 57.0335 134.205 57.3203C134.72 57.6072 135.521 57.6645 136.037 57.3777L161.448 72.0645V96.9633L161.506 97.0207L190.008 113.543L183.025 117.559L135.464 90.0215V77.6295L135.407 77.5721L95.5723 54.5092C95.973 54.1649 95.9157 53.706 95.4006 53.4191C94.8283 53.0749 93.9126 53.0749 93.3975 53.4191C92.8251 53.7634 92.8251 54.2797 93.3975 54.5665C93.9126 54.8534 94.7138 54.9108 95.229 54.6239L135.121 77.7442V90.1363L135.178 90.1936L161.849 105.626H140.673L116.176 91.4558C116.577 91.1116 116.52 90.6526 116.005 90.3657C115.432 90.0215 114.517 90.0215 114.002 90.3657C113.429 90.71 113.429 91.2263 114.002 91.5131C114.517 91.8 115.318 91.8574 115.833 91.5705L140.558 105.913H162.364L182.625 117.617L174.498 122.321L157.099 112.224H129.111L97.2894 93.808H79.6614L72.4499 89.6199C72.8506 89.2757 72.7933 88.8167 72.2782 88.5299C71.7059 88.1857 70.7902 88.1857 70.275 88.5299C69.7027 88.8741 69.7027 89.3904 70.275 89.6773C70.7902 89.9641 71.5914 90.0215 72.1065 89.7347L79.5469 94.0375H97.1749L121.213 107.921H100.437L90.593 102.471C90.9937 102.127 90.9364 101.668 90.4213 101.381C89.849 101.037 88.9332 101.037 88.4181 101.381C87.8458 101.725 87.8458 102.241 88.4181 102.528C88.9332 102.815 89.7345 102.873 90.2496 102.586L100.494 108.495H121.9L129.111 112.683H157.099L161.963 115.494H150.116H150.059L144.107 118.936H119.267L112.285 114.863H98.2051C98.1479 114.691 98.0334 114.576 97.8045 114.461C97.2321 114.117 96.3164 114.117 95.8013 114.461C95.229 114.806 95.229 115.322 95.8013 115.609C96.3736 115.953 97.2894 115.953 97.8045 115.609C98.0334 115.494 98.1479 115.322 98.2051 115.207H112.17L119.153 119.28H143.534L136.838 123.182C136.266 122.952 135.521 122.952 135.006 123.239C134.434 123.583 134.434 124.1 135.006 124.386C135.579 124.731 136.494 124.731 137.01 124.386C137.525 124.1 137.582 123.641 137.181 123.296L150.231 115.724H162.593L174.326 122.551L169.976 125.075L170.205 125.19L172.781 126.681H164.653L154.008 120.543C154.409 120.198 154.351 119.739 153.836 119.453C153.264 119.108 152.348 119.108 151.833 119.453C151.261 119.797 151.261 120.313 151.833 120.6C152.348 120.887 153.149 120.944 153.665 120.657L164.539 126.968H173.296L179.248 130.41L175.585 132.533H169.118H169.06L163.394 135.803H159.159L149.544 130.238C150.002 129.894 149.944 129.435 149.429 129.148C148.857 128.804 147.941 128.804 147.426 129.148C146.854 129.492 146.854 130.009 147.426 130.296C147.941 130.582 148.685 130.64 149.258 130.41L159.102 136.09H163.509H163.566L169.232 132.82H175.07L163.394 139.59H157.099L143.935 131.959H104.272L79.6614 117.731C80.062 117.387 80.062 116.928 79.5469 116.641C78.9746 116.297 78.0588 116.297 77.5437 116.641C76.9714 116.986 76.9714 117.502 77.5437 117.789C78.0588 118.076 78.8029 118.133 79.3752 117.904L104.215 132.304H143.82L156.984 139.934H163.452H163.509L179.591 130.64L183.827 133.107L165.626 143.606H152.806L142.218 137.467H115.032C114.975 137.295 114.86 137.18 114.631 137.065C114.059 136.721 113.143 136.721 112.628 137.065C112.056 137.41 112.056 137.926 112.628 138.213C113.2 138.557 114.116 138.557 114.631 138.213C114.86 138.098 114.975 137.926 115.032 137.811H142.103L152.119 143.606H113.83H113.773L77.3148 164.718C76.7425 164.488 75.9984 164.488 75.4833 164.775C74.911 165.12 74.911 165.636 75.4833 165.923C76.0557 166.267 76.9714 166.267 77.4865 165.923C78.0016 165.636 78.0588 165.177 77.6582 164.833L113.944 143.835H165.684H165.741L184.113 133.222L188.921 135.975L163.566 150.662H118.924H118.866L79.7758 173.266H34.2178L7.60414 158.178C8.00477 157.833 7.94754 157.375 7.43243 157.088C6.8601 156.743 5.94436 156.743 5.42925 157.088C4.85692 157.432 4.85692 157.948 5.42925 158.235C5.94436 158.522 6.74563 158.579 7.26073 158.292L34.0461 173.782H79.7758H79.8331L118.924 151.178H151.432L103.757 178.831V186.117L84.6979 197.132C84.1256 196.903 83.3816 196.903 82.8665 197.19C82.2941 197.534 82.2941 198.05 82.8665 198.337C83.4388 198.681 84.3545 198.681 84.8696 198.337C85.3847 198.05 85.442 197.591 85.0413 197.247L104.1 186.232V178.946L152.176 151.121H163.337L139.299 165.062V168.103L127.738 174.873C127.165 174.643 126.421 174.643 125.906 174.93C125.334 175.274 125.334 175.79 125.906 176.077C126.479 176.422 127.394 176.422 127.909 176.077C128.424 175.79 128.482 175.331 128.081 174.987L134.32 171.373V179.749L98.1479 200.689C97.5755 200.46 96.8315 200.46 96.3164 200.747C95.744 201.091 95.744 201.607 96.3164 201.894C96.8887 202.238 97.8045 202.238 98.3196 201.894C98.8347 201.607 98.8919 201.148 98.4913 200.804L134.663 179.864V171.086L139.585 168.218V165.177L163.852 151.121L163.795 151.006L189.264 136.262L193.9 138.959L167.687 154.219V179.118L119.553 207H120.183L160.017 183.937V206.484L159.102 207H159.731L160.304 206.656V183.765L167.916 179.347V154.449L194.072 139.303L198.135 141.655L177.932 153.359V167.013L177.989 167.07L200.94 180.323V184.97L187.948 192.485C187.375 192.256 186.631 192.256 186.116 192.543C185.544 192.887 185.544 193.403 186.116 193.69C186.688 194.034 187.604 194.034 188.119 193.69C188.634 193.403 188.692 192.944 188.291 192.6L201.283 185.084V180.093L201.226 180.036L178.275 166.783V153.473L193.499 144.638V150.318L186.517 154.391C185.944 154.162 185.2 154.162 184.685 154.449C184.113 154.793 184.113 155.309 184.685 155.596C185.258 155.94 186.173 155.94 186.688 155.596C187.204 155.309 187.261 154.85 186.86 154.506L193.843 150.433V144.351L198.479 141.655L203.916 144.81V154.735L193.614 160.702V167.529L193.671 167.586L215.305 180.093C214.905 180.437 214.962 180.896 215.477 181.183C216.049 181.527 216.965 181.527 217.48 181.183C218.052 180.839 218.052 180.323 217.48 180.036C216.965 179.749 216.164 179.692 215.649 179.978L193.9 167.414V160.931L203.859 155.137V161.964L217.194 169.652C216.793 169.996 216.851 170.455 217.366 170.742C217.938 171.086 218.854 171.086 219.369 170.742C219.941 170.398 219.941 169.881 219.369 169.594C218.854 169.308 218.052 169.25 217.537 169.537L204.202 161.849V145.097L208.037 147.335L208.094 147.277L214.332 143.663L220.056 146.99V155.022L235.223 163.8V171.373C234.936 171.373 234.593 171.488 234.364 171.602C233.792 171.947 233.792 172.463 234.364 172.75C234.936 173.094 235.852 173.094 236.367 172.75C236.94 172.406 236.94 171.889 236.367 171.602C236.138 171.488 235.852 171.373 235.509 171.373V163.628L220.514 154.85V147.163L245.124 161.39V176.479L231.789 184.224H219.541H219.483L198.479 196.386C197.906 196.157 197.162 196.157 196.647 196.444C196.075 196.788 196.075 197.304 196.647 197.591C197.219 197.935 198.135 197.935 198.65 197.591C199.165 197.304 199.223 196.845 198.822 196.501L219.655 184.453H231.273L192.698 206.771C192.126 206.541 191.382 206.541 190.866 206.828H193.213L245.525 176.536V161.104L245.467 161.046L214.905 143.376L221.029 139.819L273.169 169.996V188.01L290.968 198.337C290.568 198.681 290.625 199.14 291.14 199.427C291.712 199.771 292.628 199.771 293.143 199.427C293.715 199.083 293.715 198.567 293.143 198.28C292.628 197.993 291.827 197.935 291.312 198.222L273.512 187.896V169.881L273.455 169.824L221.372 139.704L227.21 136.32L278.777 166.152H309.569L311 167.013V166.669L309.626 165.865H278.835L235.28 140.68H244.037L258.917 149.285H270.364H270.421L286.275 140.106C286.847 140.335 287.591 140.335 288.107 140.049C288.679 139.704 288.679 139.188 288.107 138.901C287.534 138.557 286.618 138.557 286.103 138.901C285.588 139.188 285.531 139.647 285.932 139.991L270.25 149.056H258.975L244.094 140.45H234.707L227.439 136.262L243.064 127.198L247.528 129.779V136.549L258.803 143.089C258.402 143.433 258.459 143.892 258.975 144.179C259.547 144.524 260.463 144.524 260.978 144.179C261.55 143.835 261.55 143.319 260.978 143.032C260.463 142.745 259.661 142.688 259.146 142.975L247.871 136.434V130.066L259.89 137.008H265.614H265.671L272.482 133.049C273.054 133.279 273.798 133.279 274.313 132.992C274.886 132.648 274.886 132.131 274.313 131.845C273.741 131.5 272.825 131.5 272.31 131.845C271.795 132.131 271.738 132.59 272.138 132.935L265.556 136.778H260.005L243.407 126.968L246.44 125.247L246.211 125.132L236.825 119.739L241.347 117.158H248.157L253.022 119.969C252.622 120.313 252.679 120.715 253.194 121.002C253.766 121.346 254.682 121.346 255.197 121.002C255.77 120.657 255.77 120.141 255.197 119.854C254.682 119.567 253.881 119.51 253.308 119.797L248.215 116.871H241.862L253.308 110.216L280.323 125.821H299.725H299.782L310.714 119.51C310.771 119.567 310.886 119.567 310.943 119.567V118.076C310.771 118.133 310.657 118.19 310.542 118.248C310.027 118.535 309.97 118.994 310.37 119.338L299.611 125.534H280.38L259.547 113.486H268.475L277.175 118.535C276.774 118.879 276.831 119.338 277.347 119.625C277.919 119.969 278.835 119.969 279.35 119.625C279.922 119.28 279.922 118.764 279.35 118.477C278.835 118.19 278.033 118.133 277.518 118.42L268.59 113.257H259.032L253.652 110.159L267.331 102.241H310.886V101.897H267.846L273.283 98.7418H305.677H305.735L310.886 95.7586V95.4143L305.62 98.455H273.226H273.169L236.424 119.739L232.361 117.387L270.994 95.0128H299.21H299.267L310.886 88.3004V87.6693L299.153 94.4964H270.936H270.879L232.075 116.928L227.439 114.232L302.758 70.6303V54.796L310.943 50.0916V49.7474ZM245.811 125.247L208.208 146.99L170.606 125.247L208.208 103.504L245.811 125.247Z" fill="#42E8E0"/>
<g opacity="0.67">
<path d="M199.471 190.172L91.0232 127.614L199.471 65.0559L307.861 127.614L199.471 190.172Z" fill="#0F054C"/>
</g>
<g opacity="0.67">
<path d="M199.471 180.508L107.848 127.614L199.471 74.7771L291.093 127.614L199.471 180.508Z" fill="#0F054C"/>
</g>
<g opacity="0.9">
<path d="M199.471 169.243L127.363 127.614L199.471 86.042L271.521 127.614L199.471 169.243Z" fill="#080344"/>
</g>
<path d="M130.625 123.211C129.824 123.211 129.08 122.982 128.393 122.639L102.984 108C102.583 107.771 102.354 107.371 102.354 106.914C102.354 106.456 102.583 106.056 102.984 105.827L148.881 79.3515C148.938 79.2943 149.053 79.2943 149.11 79.3515L149.339 79.4658L176.58 95.1911C176.98 95.4198 177.209 95.8201 177.209 96.2776C177.209 96.7351 176.98 97.1353 176.58 97.3641L132.743 122.639C132.17 122.982 131.426 123.211 130.625 123.211ZM149.11 79.8089L103.327 106.227C103.098 106.342 102.927 106.628 102.927 106.914C102.927 107.199 103.098 107.428 103.327 107.6L128.737 122.239C129.939 122.925 131.484 122.925 132.628 122.239L176.465 96.9638C176.694 96.8494 176.866 96.5635 176.866 96.2776C176.866 95.9917 176.694 95.7629 176.465 95.5914L149.11 79.8089Z" fill="#42E8E0"/>
<path d="M180.013 87.9859L177.324 89.3583L150.598 73.9189C150.14 73.633 149.396 73.6902 148.881 73.9761L102.812 100.566C102.355 100.337 100.352 99.3653 100.352 99.3653L101.324 101.881C101.382 101.996 101.439 102.11 101.611 102.167L129.767 118.407C130.225 118.693 130.969 118.636 131.484 118.35L178.64 91.131C178.869 91.0166 178.983 90.845 179.04 90.7307L180.013 87.9859Z" fill="url(#paint2_linear_53_319)"/>
<path d="M179.555 88.4434L131.255 116.349C130.74 116.635 129.938 116.692 129.481 116.406L100.638 99.7656C100.18 99.4797 100.237 99.0222 100.752 98.7363L149.053 70.8311C149.568 70.5452 150.369 70.488 150.827 70.7739L179.67 87.4141C180.185 87.6428 180.128 88.1003 179.555 88.4434Z" fill="url(#paint3_linear_53_319)"/>
<path d="M179.555 88.1574L131.255 116.063C130.74 116.349 129.938 116.406 129.481 116.12L100.638 99.4796C100.466 99.3652 100.409 99.3081 100.351 99.1937C100.294 99.4224 100.351 99.6511 100.638 99.7655L129.481 116.406C129.938 116.692 130.74 116.634 131.255 116.349L179.555 88.4433C179.899 88.2146 180.07 87.9859 179.956 87.7C179.956 87.8715 179.784 88.043 179.555 88.1574Z" fill="white"/>
<path d="M116.662 110.287V109.773C116.662 109.715 116.719 109.715 116.719 109.715L118.607 110.802C118.665 110.802 118.665 110.859 118.665 110.916V111.431C118.665 111.488 118.607 111.488 118.607 111.488L116.719 110.402C116.719 110.402 116.662 110.344 116.662 110.287Z" fill="#2842A2"/>
<path d="M119.466 111.888V111.374C119.466 111.316 119.523 111.316 119.523 111.316L121.412 112.403C121.469 112.403 121.469 112.46 121.469 112.517V113.032C121.469 113.089 121.412 113.089 121.412 113.089L119.523 112.003C119.523 112.003 119.466 111.945 119.466 111.888Z" fill="#2842A2"/>
<path d="M116.89 103.54L157.065 80.3806C157.351 80.2091 157.637 80.2091 157.923 80.3806L172.23 88.6721C172.459 88.7865 172.459 89.0724 172.23 89.1868L132.056 112.346C131.77 112.517 131.484 112.517 131.198 112.346L116.89 104.111C116.662 103.94 116.662 103.654 116.89 103.54Z" fill="#ADB1F2"/>
<path d="M116.891 104.055L117.062 104.112L157.065 81.0099C157.351 80.8384 157.637 80.8384 157.923 81.0099L172.059 89.1871L172.23 89.1299C172.459 89.0155 172.459 88.7296 172.23 88.6152L157.923 80.3237C157.637 80.1522 157.351 80.1522 157.065 80.3237L116.891 103.483C116.662 103.654 116.662 103.94 116.891 104.055Z" fill="#9198DB"/>
<path d="M159.01 82.4395L121.984 103.769L120.152 103.083L157.408 81.5818L159.01 82.4395Z" fill="#24126A"/>
<path d="M162.787 84.6698L130.053 103.54L128.508 102.625L161.242 83.7549L162.787 84.6698Z" fill="#24126A"/>
<path d="M165.248 86.0995L126.734 108.286L125.188 107.429L163.703 85.1846L165.248 86.0995Z" fill="#24126A"/>
<path d="M167.766 87.5289L129.194 109.716L127.649 108.858L166.164 86.614L167.766 87.5289Z" fill="#24126A"/>
<path d="M170.227 88.9584L131.712 111.145L130.167 110.288L168.682 88.0435L170.227 88.9584Z" fill="#24126A"/>
<path d="M121.984 103.769L120.438 104.684L118.893 103.769L120.438 102.911L121.984 103.769Z" fill="#24126A"/>
<path d="M131.941 102.453L124.273 106.857L122.67 105.999L130.453 101.539L131.941 102.453Z" fill="#24126A"/>
<path d="M131.198 93.1325L142.014 86.8995C142.414 86.6708 142.414 86.2705 142.014 86.0418L134.631 81.7531C134.231 81.5244 133.544 81.5244 133.086 81.7531L122.27 87.986C121.869 88.2148 121.869 88.615 122.27 88.8438L129.652 93.1325C130.053 93.4184 130.74 93.4184 131.198 93.1325Z" fill="url(#paint4_linear_53_319)"/>
<path d="M122.27 88.3291L133.086 82.0962C133.487 81.8675 134.173 81.8675 134.631 82.0962L142.014 86.3849C142.128 86.4421 142.243 86.5564 142.3 86.6708C142.414 86.4421 142.3 86.2133 142.014 86.0418L134.631 81.7531C134.231 81.5244 133.544 81.5244 133.086 81.7531L122.27 87.986C121.984 88.1576 121.869 88.3863 121.984 88.615C122.041 88.5007 122.098 88.4435 122.27 88.3291Z" fill="#9198DB"/>
<path d="M179.899 87.2998L173.775 51.0459L174.29 50.8171L173.547 50.4169C173.375 50.3025 173.203 50.3025 172.974 50.474L124.159 78.6652C123.758 78.8939 123.472 79.4657 123.529 79.9232L129.71 116.406C129.767 116.577 129.824 116.749 129.939 116.749L130.683 117.149L130.797 116.463H130.74L179.269 88.4434C179.67 88.2719 179.956 87.7 179.899 87.2998Z" fill="url(#paint5_linear_53_319)"/>
<path d="M124.445 79.6375L123.643 79.2944C123.529 79.5232 123.529 79.6947 123.529 79.9234L129.71 116.406C129.767 116.578 129.824 116.749 129.939 116.749L130.683 117.149L130.797 116.463H130.74L133.201 115.034L124.445 79.6375Z" fill="url(#paint6_linear_53_319)"/>
<path d="M180.071 88.9581L131.255 117.149C130.854 117.378 130.568 117.264 130.511 116.863L124.33 80.3807C124.273 79.9804 124.559 79.3514 124.96 79.1226L173.776 50.9315C174.176 50.7028 174.462 50.8172 174.519 51.2174L180.7 87.7001C180.757 88.1575 180.471 88.7293 180.071 88.9581Z" fill="#453C9E"/>
<path d="M268.374 123.211C267.572 123.211 266.828 122.982 266.142 122.639L222.305 97.3643C221.904 97.1356 221.675 96.7353 221.675 96.2778C221.675 95.8204 221.904 95.4201 222.305 95.1914L249.774 79.3517C249.832 79.2945 249.946 79.2945 250.003 79.3517L295.9 105.827C296.301 106.056 296.53 106.456 296.53 106.914C296.53 107.371 296.301 107.772 295.9 108L270.548 122.582C269.861 122.982 269.118 123.211 268.374 123.211ZM249.889 79.8092L249.774 79.8664L222.534 95.5916C222.305 95.706 222.133 95.9919 222.133 96.2778C222.133 96.5637 222.305 96.7925 222.534 96.964L266.371 122.239C267.572 122.925 269.118 122.925 270.262 122.239L295.671 107.6C295.9 107.486 296.072 107.2 296.072 106.914C296.072 106.628 295.9 106.399 295.671 106.228L249.889 79.8092Z" fill="#42E8E0"/>
<path d="M218.986 87.9861L221.676 89.3585L248.401 73.9192C248.859 73.6333 249.603 73.6904 250.118 73.9764L296.187 100.566C296.645 100.338 298.648 99.3655 298.648 99.3655L297.675 101.882C297.618 101.996 297.56 102.11 297.389 102.167L269.232 118.407C268.774 118.693 268.03 118.636 267.515 118.35L220.359 91.1312C220.13 91.0168 220.016 90.8453 219.959 90.7309L218.986 87.9861Z" fill="url(#paint7_linear_53_319)"/>
<path d="M219.386 88.4436L267.687 116.349C268.202 116.635 269.003 116.692 269.461 116.406L298.304 99.7658C298.762 99.4799 298.704 99.0224 298.189 98.7365L249.889 70.8313C249.374 70.5454 248.572 70.4882 248.115 70.7742L219.272 87.4143C218.814 87.6431 218.871 88.1005 219.386 88.4436Z" fill="url(#paint8_linear_53_319)"/>
<path d="M219.386 88.1577L267.687 116.063C268.202 116.349 269.003 116.406 269.461 116.12L298.304 99.4798C298.476 99.3655 298.533 99.3083 298.59 99.1939C298.647 99.4227 298.59 99.6514 298.304 99.7658L269.461 116.406C269.003 116.692 268.202 116.635 267.687 116.349L219.386 88.4436C219.043 88.2148 218.871 87.9861 218.986 87.7002C219.043 87.8717 219.214 88.0433 219.386 88.1577Z" fill="white"/>
<path d="M282.337 110.287V109.773C282.337 109.716 282.28 109.716 282.28 109.716L280.392 110.802C280.334 110.802 280.334 110.859 280.334 110.916V111.431C280.334 111.488 280.392 111.488 280.392 111.488L282.28 110.402C282.28 110.402 282.337 110.345 282.337 110.287Z" fill="#2842A2"/>
<path d="M279.533 111.889V111.374C279.533 111.317 279.476 111.317 279.476 111.317L277.587 112.403C277.53 112.403 277.53 112.461 277.53 112.518V113.032C277.53 113.09 277.587 113.09 277.587 113.09L279.476 112.003C279.476 112.003 279.533 111.946 279.533 111.889Z" fill="#2842A2"/>
<path d="M282.109 103.54L241.934 80.3811C241.648 80.2096 241.362 80.2096 241.076 80.3811L226.769 88.6726C226.54 88.787 226.54 89.0729 226.769 89.1873L266.886 112.346C267.172 112.518 267.458 112.518 267.744 112.346L282.051 104.112C282.337 103.94 282.338 103.655 282.109 103.54Z" fill="#ADB1F2"/>
<path d="M282.109 104.055L281.937 104.112L241.934 81.0673C241.648 80.8957 241.362 80.8957 241.076 81.0673L226.941 89.2444L226.769 89.1873C226.54 89.0729 226.54 88.787 226.769 88.6726L241.076 80.3811C241.362 80.2096 241.648 80.2096 241.934 80.3811L282.109 103.54C282.338 103.655 282.338 103.94 282.109 104.055Z" fill="#9198DB"/>
<path d="M239.989 82.4393L277.015 103.768L278.847 103.082L241.534 81.5815L239.989 82.4393Z" fill="#24126A"/>
<path d="M236.212 84.6698L268.946 103.54L270.491 102.625L237.757 83.7549L236.212 84.6698Z" fill="#24126A"/>
<path d="M233.751 86.099L272.266 108.286L273.811 107.428L235.296 85.1841L233.751 86.099Z" fill="#24126A"/>
<path d="M231.233 87.5287L269.748 109.716L271.293 108.858L232.778 86.6138L231.233 87.5287Z" fill="#24126A"/>
<path d="M228.772 88.9584L267.287 111.145L268.832 110.288L230.317 88.0435L228.772 88.9584Z" fill="#24126A"/>
<path d="M277.015 103.769L278.561 104.684L280.106 103.769L278.561 102.911L277.015 103.769Z" fill="#24126A"/>
<path d="M267.058 102.453L274.726 106.857L276.271 105.999L268.546 101.539L267.058 102.453Z" fill="#24126A"/>
<path d="M267.802 93.1325L256.986 86.8995C256.585 86.6708 256.585 86.2705 256.986 86.0418L264.368 81.7531C264.769 81.5244 265.456 81.5244 265.914 81.7531L276.73 87.986C277.13 88.2148 277.13 88.615 276.73 88.8438L269.347 93.1325C268.889 93.4184 268.26 93.4184 267.802 93.1325Z" fill="url(#paint9_linear_53_319)"/>
<path d="M276.729 88.3291L265.913 82.0962C265.513 81.8675 264.826 81.8675 264.368 82.0962L256.986 86.3849C256.871 86.4421 256.757 86.5564 256.699 86.6708C256.585 86.4421 256.699 86.2133 256.986 86.0418L264.368 81.7531C264.769 81.5244 265.455 81.5244 265.913 81.7531L276.729 87.986C277.015 88.1576 277.13 88.3863 277.015 88.615C276.958 88.5007 276.901 88.4435 276.729 88.3291Z" fill="#9198DB"/>
<path d="M219.1 87.3L225.223 51.1033L224.708 50.8745L225.452 50.4742C225.624 50.3599 225.796 50.3599 226.025 50.5314L274.84 78.7225C275.241 78.9513 275.527 79.5231 275.47 79.9806L269.289 116.463C269.232 116.635 269.175 116.806 269.06 116.806L268.316 117.207L268.202 116.52H268.259L219.729 88.5008C219.329 88.2721 218.985 87.7002 219.1 87.3Z" fill="url(#paint10_linear_53_319)"/>
<path d="M274.554 79.6375L275.355 79.2944C275.47 79.5232 275.47 79.6947 275.47 79.9234L269.289 116.406C269.232 116.578 269.175 116.749 269.06 116.749L268.316 117.149L268.202 116.463H268.259L265.798 115.034L274.554 79.6375Z" fill="url(#paint11_linear_53_319)"/>
<path d="M218.928 88.9583L267.744 117.149C268.145 117.378 268.431 117.264 268.488 116.864L274.669 80.3809C274.726 79.9806 274.44 79.3516 274.039 79.1229L225.223 50.9318C224.823 50.703 224.537 50.8174 224.479 51.2177L218.299 87.7003C218.242 88.1578 218.528 88.7296 218.928 88.9583Z" fill="#453C9E"/>
<path d="M199.471 131.96L154.031 105.713L199.471 79.4658L244.967 105.713L199.471 131.96Z" fill="#BCBEFF"/>
<path d="M199.47 124.755L166.45 105.713L199.47 86.6709L232.548 105.713L199.47 124.755Z" fill="#453C9E"/>
<path d="M199.47 87.9289L231.404 106.342L232.548 105.713L199.47 86.6709L166.45 105.713L167.594 106.342L199.47 87.9289Z" fill="white"/>
<path d="M244.967 105.713V120.58L199.47 146.77V131.96L244.967 105.713Z" fill="url(#paint12_linear_53_319)"/>
<path d="M154.031 105.713V120.58L199.471 146.77V131.96L154.031 105.713Z" fill="#24126A"/>
<g opacity="0.51">
<path d="M157.122 112.403V117.092L196.437 139.736V135.047L157.122 112.403Z" fill="#453C9E"/>
</g>
<path d="M199.471 131.102L154.775 105.255L154.031 105.713L199.471 131.96L244.967 105.713L244.223 105.255L199.471 131.102Z" fill="white"/>
<path d="M238.157 116.12V118.807L206.338 137.163V134.476L238.157 116.12Z" fill="#453C9E"/>
<path opacity="0.51" d="M154.031 105.713V120.58L199.471 146.77V131.96L154.031 105.713Z" fill="#453C9E"/>
<path d="M186.251 131.159L178.01 126.413V127.385L186.251 132.131V131.159Z" fill="#42E8E0"/>
<path d="M176.808 125.727L174.576 124.412V125.384L176.808 126.699V125.727Z" fill="#42E8E0"/>
<path d="M166.335 119.665L161.814 117.035V118.064L166.335 120.694V119.665Z" fill="#42E8E0"/>
<path d="M170.513 122.067L167.194 120.18V121.152L170.513 123.096V122.067Z" fill="#42E8E0"/>
<path d="M173.603 123.897L171.372 122.582V123.554L173.603 124.869V123.897Z" fill="#42E8E0"/>
<path d="M199.528 93.1895L198.097 92.3318L199.528 91.5312L200.958 92.3318L199.528 93.1895Z" fill="#42E8E0"/>
<path opacity="0.1" d="M202.446 94.8478L200.958 94.0472L202.446 93.1895L203.877 94.0472L202.446 94.8478Z" fill="#42E8E0"/>
<path opacity="0.4" d="M205.307 96.5064L203.877 95.7059L205.307 94.8481L206.738 95.7059L205.307 96.5064Z" fill="#42E8E0"/>
<path d="M208.226 98.1644L206.738 97.3638L208.226 96.5061L209.657 97.3638L208.226 98.1644Z" fill="#42E8E0"/>
<path opacity="0.4" d="M211.088 99.8229L209.657 99.0223L211.088 98.1646L212.518 99.0223L211.088 99.8229Z" fill="#42E8E0"/>
<path d="M213.949 101.538L212.518 100.68L213.949 99.8228L215.437 100.68L213.949 101.538Z" fill="#42E8E0"/>
<path d="M216.868 103.196L215.437 102.339L216.868 101.538L218.298 102.339L216.868 103.196Z" fill="#42E8E0"/>
<path d="M219.729 104.855L218.298 103.997L219.729 103.197L221.217 103.997L219.729 104.855Z" fill="#42E8E0"/>
<path opacity="0.1" d="M222.648 106.513L221.217 105.656L222.648 104.855L224.078 105.656L222.648 106.513Z" fill="#42E8E0"/>
<path d="M196.666 94.8478L195.178 94.0472L196.666 93.1895L198.097 94.0472L196.666 94.8478Z" fill="#42E8E0"/>
<path d="M199.527 96.506L198.096 95.7054L199.527 94.8477L200.958 95.7054L199.527 96.506Z" fill="#42E8E0"/>
<path d="M202.389 98.1644L200.958 97.3638L202.389 96.5061L203.877 97.3638L202.389 98.1644Z" fill="#42E8E0"/>
<path d="M205.307 99.8798L203.876 99.022L205.307 98.1643L206.738 99.022L205.307 99.8798Z" fill="#42E8E0"/>
<path d="M208.168 101.538L206.738 100.68L208.168 99.8796L209.656 100.68L208.168 101.538Z" fill="#42E8E0"/>
<path d="M211.087 103.196L209.657 102.339L211.087 101.538L212.518 102.339L211.087 103.196Z" fill="#42E8E0"/>
<path d="M213.949 104.855L212.518 103.997L213.949 103.196L215.379 103.997L213.949 104.855Z" fill="#42E8E0"/>
<path d="M216.868 106.513L215.38 105.712L216.868 104.855L218.298 105.712L216.868 106.513Z" fill="#42E8E0"/>
<path d="M219.729 108.171L218.298 107.371L219.729 106.513L221.16 107.371L219.729 108.171Z" fill="#42E8E0"/>
<path d="M193.747 96.5064L192.317 95.7059L193.747 94.8481L195.178 95.7059L193.747 96.5064Z" fill="#42E8E0"/>
<path d="M196.609 98.2218L195.178 97.3641L196.609 96.5063L198.097 97.3641L196.609 98.2218Z" fill="#42E8E0"/>
<path d="M199.527 99.8802L198.096 99.0225L199.527 98.2219L200.958 99.0225L199.527 99.8802Z" fill="#42E8E0"/>
<path opacity="0.1" d="M202.389 101.539L200.958 100.681L202.389 99.8804L203.819 100.681L202.389 101.539Z" fill="#42E8E0"/>
<path opacity="0.4" d="M205.307 103.197L203.819 102.339L205.307 101.538L206.738 102.339L205.307 103.197Z" fill="#42E8E0"/>
<path opacity="0.4" d="M208.168 104.855L206.738 104.055L208.168 103.197L209.599 104.055L208.168 104.855Z" fill="#42E8E0"/>
<path d="M211.088 106.514L209.6 105.713L211.088 104.855L212.518 105.713L211.088 106.514Z" fill="#42E8E0"/>
<path d="M213.949 108.172L212.518 107.371L213.949 106.513L215.379 107.371L213.949 108.172Z" fill="#42E8E0"/>
<path d="M216.868 109.83L215.38 109.03L216.868 108.172L218.298 109.03L216.868 109.83Z" fill="#42E8E0"/>
<path opacity="0.4" d="M190.829 98.2215L189.398 97.3638L190.829 96.5632L192.317 97.3638L190.829 98.2215Z" fill="#42E8E0"/>
<path opacity="0.4" d="M193.748 99.88L192.317 99.0222L193.748 98.2217L195.178 99.0222L193.748 99.88Z" fill="#42E8E0"/>
<path opacity="0.1" d="M196.609 101.538L195.178 100.68L196.609 99.8799L198.04 100.68L196.609 101.538Z" fill="#42E8E0"/>
<path d="M199.527 103.196L198.04 102.396L199.527 101.538L200.958 102.396L199.527 103.196Z" fill="#42E8E0"/>
<path d="M202.389 104.855L200.958 104.054L202.389 103.197L203.82 104.054L202.389 104.855Z" fill="#42E8E0"/>
<path d="M205.308 106.513L203.82 105.713L205.308 104.855L206.738 105.713L205.308 106.513Z" fill="#42E8E0"/>
<path opacity="0.4" d="M208.169 108.171L206.739 107.371L208.169 106.513L209.6 107.371L208.169 108.171Z" fill="#42E8E0"/>
<path d="M211.031 109.887L209.6 109.029L211.031 108.171L212.519 109.029L211.031 109.887Z" fill="#42E8E0"/>
<path d="M213.949 111.545L212.519 110.688L213.949 109.887L215.38 110.688L213.949 111.545Z" fill="#42E8E0"/>
<path d="M187.967 99.88L186.479 99.0222L187.967 98.2217L189.398 99.0222L187.967 99.88Z" fill="#42E8E0"/>
<path d="M190.828 101.538L189.398 100.737L190.828 99.8796L192.259 100.737L190.828 101.538Z" fill="#42E8E0"/>
<path d="M193.747 103.196L192.26 102.396L193.747 101.538L195.178 102.396L193.747 103.196Z" fill="#42E8E0"/>
<path d="M196.609 104.855L195.178 104.054L196.609 103.196L198.039 104.054L196.609 104.855Z" fill="#42E8E0"/>
<path d="M199.47 106.513L198.039 105.712L199.47 104.855L200.958 105.712L199.47 106.513Z" fill="#42E8E0"/>
<path d="M202.389 108.229L200.958 107.371L202.389 106.513L203.819 107.371L202.389 108.229Z" fill="#42E8E0"/>
<path d="M205.25 109.887L203.819 109.029L205.25 108.229L206.738 109.029L205.25 109.887Z" fill="#42E8E0"/>
<path d="M208.168 111.545L206.738 110.687L208.168 109.887L209.599 110.687L208.168 111.545Z" fill="#42E8E0"/>
<path d="M211.031 113.203L209.6 112.346L211.031 111.545L212.461 112.346L211.031 113.203Z" fill="#42E8E0"/>
<path d="M185.049 101.538L183.618 100.738L185.049 99.8801L186.479 100.738L185.049 101.538Z" fill="#42E8E0"/>
<path d="M187.91 103.197L186.479 102.396L187.91 101.538L189.398 102.396L187.91 103.197Z" fill="#42E8E0"/>
<path opacity="0.4" d="M190.828 104.855L189.398 104.055L190.828 103.197L192.259 104.055L190.828 104.855Z" fill="#42E8E0"/>
<path d="M193.69 106.57L192.26 105.713L193.69 104.855L195.178 105.713L193.69 106.57Z" fill="#42E8E0"/>
<path opacity="0.1" d="M196.608 108.229L195.178 107.371L196.608 106.571L198.039 107.371L196.608 108.229Z" fill="#42E8E0"/>
<path d="M199.47 109.887L198.039 109.03L199.47 108.229L200.901 109.03L199.47 109.887Z" fill="#42E8E0"/>
<path d="M202.389 111.546L200.901 110.688L202.389 109.887L203.82 110.688L202.389 111.546Z" fill="#42E8E0"/>
<path d="M205.25 113.204L203.819 112.403L205.25 111.545L206.681 112.403L205.25 113.204Z" fill="#42E8E0"/>
<path d="M208.169 114.862L206.681 114.061L208.169 113.204L209.599 114.061L208.169 114.862Z" fill="#42E8E0"/>
<path d="M182.13 103.196L180.699 102.396L182.13 101.538L183.618 102.396L182.13 103.196Z" fill="#42E8E0"/>
<path d="M185.049 104.912L183.618 104.054L185.049 103.196L186.48 104.054L185.049 104.912Z" fill="#42E8E0"/>
<path opacity="0.4" d="M187.91 106.57L186.48 105.712L187.91 104.912L189.341 105.712L187.91 106.57Z" fill="#42E8E0"/>
<path d="M190.829 108.229L189.341 107.371L190.829 106.57L192.259 107.371L190.829 108.229Z" fill="#42E8E0"/>
<path d="M193.69 109.887L192.26 109.029L193.69 108.229L195.121 109.029L193.69 109.887Z" fill="#42E8E0"/>
<path opacity="0.1" d="M196.609 111.545L195.121 110.745L196.609 109.887L198.04 110.745L196.609 111.545Z" fill="#42E8E0"/>
<path opacity="0.4" d="M199.47 113.203L198.04 112.403L199.47 111.545L200.901 112.403L199.47 113.203Z" fill="#42E8E0"/>
<path d="M202.332 114.862L200.901 114.061L202.332 113.203L203.82 114.061L202.332 114.862Z" fill="#42E8E0"/>
<path opacity="0.1" d="M205.25 116.52L203.82 115.72L205.25 114.862L206.681 115.72L205.25 116.52Z" fill="#42E8E0"/>
<path d="M179.269 104.912L177.781 104.054L179.269 103.254L180.699 104.054L179.269 104.912Z" fill="#42E8E0"/>
<path opacity="0.4" d="M182.13 106.57L180.699 105.713L182.13 104.912L183.561 105.713L182.13 106.57Z" fill="#42E8E0"/>
<path d="M185.049 108.229L183.561 107.371L185.049 106.571L186.479 107.371L185.049 108.229Z" fill="#42E8E0"/>
<path d="M187.91 109.887L186.479 109.087L187.91 108.229L189.341 109.087L187.91 109.887Z" fill="#42E8E0"/>
<path d="M190.771 111.546L189.341 110.745L190.771 109.887L192.259 110.745L190.771 111.546Z" fill="#42E8E0"/>
<path d="M193.69 113.204L192.26 112.403L193.69 111.545L195.121 112.403L193.69 113.204Z" fill="#42E8E0"/>
<path d="M196.552 114.862L195.121 114.061L196.552 113.204L198.039 114.061L196.552 114.862Z" fill="#42E8E0"/>
<path opacity="0.4" d="M199.47 116.578L198.039 115.72L199.47 114.862L200.901 115.72L199.47 116.578Z" fill="#42E8E0"/>
<path d="M202.332 118.236L200.901 117.378L202.332 116.577L203.762 117.378L202.332 118.236Z" fill="#42E8E0"/>
<path d="M176.35 106.57L174.919 105.712L176.35 104.912L177.781 105.712L176.35 106.57Z" fill="#42E8E0"/>
<path opacity="0.1" d="M179.211 108.228L177.781 107.371L179.211 106.57L180.699 107.371L179.211 108.228Z" fill="#42E8E0"/>
<path d="M182.13 109.887L180.699 109.086L182.13 108.229L183.561 109.086L182.13 109.887Z" fill="#42E8E0"/>
<path d="M184.991 111.545L183.561 110.744L184.991 109.887L186.479 110.744L184.991 111.545Z" fill="#42E8E0"/>
<path d="M187.91 113.203L186.479 112.403L187.91 111.545L189.34 112.403L187.91 113.203Z" fill="#42E8E0"/>
<path d="M190.771 114.919L189.341 114.061L190.771 113.203L192.202 114.061L190.771 114.919Z" fill="#42E8E0"/>
<path opacity="0.4" d="M193.69 116.577L192.202 115.72L193.69 114.919L195.121 115.72L193.69 116.577Z" fill="#42E8E0"/>
<path d="M196.551 118.235L195.121 117.378L196.551 116.577L197.982 117.378L196.551 118.235Z" fill="#42E8E0"/>
<path d="M199.47 119.894L197.982 119.036L199.47 118.236L200.901 119.036L199.47 119.894Z" fill="#42E8E0"/>
<path d="M199.471 106.17L154.031 79.9806L199.471 53.7336L244.967 79.9806L199.471 106.17Z" fill="#BCBEFF"/>
<path d="M199.47 99.0225L166.45 79.9806L199.47 60.8816L232.548 79.9806L199.47 99.0225Z" fill="#453C9E"/>
<path d="M199.47 62.1968L231.404 80.6097L232.548 79.9807L199.47 60.8816L166.45 79.9807L167.594 80.6097L199.47 62.1968Z" fill="white"/>
<path d="M244.967 79.9805V94.848L199.47 121.038V106.17L244.967 79.9805Z" fill="url(#paint13_linear_53_319)"/>
<path d="M154.031 79.9805V94.848L199.471 121.038V106.17L154.031 79.9805Z" fill="#24126A"/>
<g opacity="0.51">
<path d="M157.122 86.6711V91.3029L196.437 114.005V109.316L157.122 86.6711Z" fill="#453C9E"/>
</g>
<path d="M199.471 105.37L154.775 79.5234L154.031 79.9809L199.471 106.171L244.967 79.9809L244.223 79.5234L199.471 105.37Z" fill="white"/>
<path d="M238.157 90.3882V93.0758L206.338 111.431V108.744L238.157 90.3882Z" fill="#453C9E"/>
<path opacity="0.51" d="M154.031 79.9805V94.848L199.471 121.038V106.17L154.031 79.9805Z" fill="#453C9E"/>
<path d="M186.251 105.427L178.01 100.681V101.653L186.251 106.399V105.427Z" fill="#42E8E0"/>
<path d="M176.808 99.9946L174.576 98.6794V99.6515L176.808 100.967V99.9946Z" fill="#42E8E0"/>
<path d="M166.335 93.9334L161.814 91.303V92.2751L166.335 94.9627V93.9334Z" fill="#42E8E0"/>
<path d="M170.513 96.335L167.194 94.448V95.4201L170.513 97.3643V96.335Z" fill="#42E8E0"/>
<path d="M173.603 98.1651L171.372 96.8499V97.822L173.603 99.1372V98.1651Z" fill="#42E8E0"/>
<path d="M199.528 67.4579L198.097 66.6001L199.528 65.7996L200.958 66.6001L199.528 67.4579Z" fill="#42E8E0"/>
<path opacity="0.1" d="M202.446 69.1161L200.958 68.2583L202.446 67.4578L203.877 68.2583L202.446 69.1161Z" fill="#42E8E0"/>
<path opacity="0.4" d="M205.307 70.7743L203.877 69.9737L205.307 69.116L206.738 69.9737L205.307 70.7743Z" fill="#42E8E0"/>
<path d="M208.226 72.4325L206.738 71.6319L208.226 70.7742L209.657 71.6319L208.226 72.4325Z" fill="#42E8E0"/>
<path opacity="0.4" d="M211.088 74.0909L209.657 73.2904L211.088 72.4326L212.518 73.2904L211.088 74.0909Z" fill="#42E8E0"/>
<path d="M213.949 75.8063L212.518 74.9486L213.949 74.0908L215.437 74.9486L213.949 75.8063Z" fill="#42E8E0"/>
<path d="M216.868 77.4647L215.437 76.607L216.868 75.8064L218.298 76.607L216.868 77.4647Z" fill="#42E8E0"/>
<path d="M219.729 79.1229L218.298 78.2652L219.729 77.4646L221.217 78.2652L219.729 79.1229Z" fill="#42E8E0"/>
<path opacity="0.1" d="M222.648 80.7811L221.217 79.9234L222.648 79.1228L224.078 79.9234L222.648 80.7811Z" fill="#42E8E0"/>
<path d="M196.666 69.1161L195.178 68.3155L196.666 67.4578L198.097 68.3155L196.666 69.1161Z" fill="#42E8E0"/>
<path d="M199.527 70.7745L198.096 69.974L199.527 69.1162L200.958 69.974L199.527 70.7745Z" fill="#42E8E0"/>
<path d="M202.389 72.4327L200.958 71.6322L202.389 70.7744L203.877 71.6322L202.389 72.4327Z" fill="#42E8E0"/>
<path opacity="0.8" d="M205.307 74.1481L203.876 73.2904L205.307 72.4326L206.738 73.2904L205.307 74.1481Z" fill="#FF2C9C"/>
<path d="M208.168 75.8065L206.738 74.9488L208.168 74.1482L209.656 74.9488L208.168 75.8065Z" fill="#42E8E0"/>
<path d="M211.087 77.4649L209.657 76.6072L211.087 75.8066L212.518 76.6072L211.087 77.4649Z" fill="#42E8E0"/>
<path opacity="0.8" d="M213.949 79.1231L212.518 78.2654L213.949 77.4648L215.379 78.2654L213.949 79.1231Z" fill="url(#paint14_radial_53_319)"/>
<path d="M216.868 80.7813L215.38 79.9236L216.868 79.123L218.298 79.9236L216.868 80.7813Z" fill="#42E8E0"/>
<path opacity="0.8" d="M219.729 82.4398L218.298 81.6392L219.729 80.7815L221.16 81.6392L219.729 82.4398Z" fill="#FF2C9C"/>
<path d="M193.747 70.7743L192.317 69.9737L193.747 69.116L195.178 69.9737L193.747 70.7743Z" fill="#42E8E0"/>
<path opacity="0.8" d="M196.609 72.4897L195.178 71.6319L196.609 70.7742L198.097 71.6319L196.609 72.4897Z" fill="#FF2C9C"/>
<path d="M199.527 74.148L198.096 73.2903L199.527 72.4897L200.958 73.2903L199.527 74.148Z" fill="#42E8E0"/>
<path opacity="0.1" d="M202.389 75.8063L200.958 74.9485L202.389 74.1479L203.819 74.9485L202.389 75.8063Z" fill="#42E8E0"/>
<path opacity="0.4" d="M205.307 77.4647L203.819 76.607L205.307 75.8064L206.738 76.607L205.307 77.4647Z" fill="#42E8E0"/>
<path opacity="0.4" d="M208.168 79.1231L206.738 78.2654L208.168 77.4648L209.599 78.2654L208.168 79.1231Z" fill="#42E8E0"/>
<path d="M211.088 80.7811L209.6 79.9805L211.088 79.1228L212.518 79.9805L211.088 80.7811Z" fill="#42E8E0"/>
<path d="M213.949 82.4398L212.518 81.6392L213.949 80.7815L215.379 81.6392L213.949 82.4398Z" fill="#42E8E0"/>
<path d="M216.868 84.098L215.38 83.2974L216.868 82.4397L218.298 83.2974L216.868 84.098Z" fill="#42E8E0"/>
<path opacity="0.4" d="M190.829 72.4897L189.398 71.6319L190.829 70.7742L192.317 71.6319L190.829 72.4897Z" fill="#42E8E0"/>
<path opacity="0.4" d="M193.748 74.1478L192.317 73.2901L193.748 72.4895L195.178 73.2901L193.748 74.1478Z" fill="#42E8E0"/>
<path opacity="0.1" d="M196.609 75.8063L195.178 74.9485L196.609 74.1479L198.04 74.9485L196.609 75.8063Z" fill="#42E8E0"/>
<path d="M199.527 77.4647L198.04 76.607L199.527 75.8064L200.958 76.607L199.527 77.4647Z" fill="#42E8E0"/>
<path d="M202.389 79.1227L200.958 78.3221L202.389 77.4644L203.82 78.3221L202.389 79.1227Z" fill="#42E8E0"/>
<path opacity="0.8" d="M205.308 80.7811L203.82 79.9805L205.308 79.1228L206.738 79.9805L205.308 80.7811Z" fill="#FF2C9C"/>
<path opacity="0.4" d="M208.169 82.4395L206.739 81.639L208.169 80.7812L209.6 81.639L208.169 82.4395Z" fill="#42E8E0"/>
<path d="M211.031 84.0978L209.6 83.2972L211.031 82.4395L212.519 83.2972L211.031 84.0978Z" fill="#42E8E0"/>
<path d="M213.949 85.8131L212.519 84.9554L213.949 84.0977L215.38 84.9554L213.949 85.8131Z" fill="#42E8E0"/>
<path opacity="0.8" d="M187.967 74.148L186.479 73.2903L187.967 72.4897L189.398 73.2903L187.967 74.148Z" fill="#FF2C9C"/>
<path d="M190.828 75.8063L189.398 74.9485L190.828 74.1479L192.259 74.9485L190.828 75.8063Z" fill="#42E8E0"/>
<path d="M193.747 77.4649L192.26 76.6644L193.747 75.8066L195.178 76.6644L193.747 77.4649Z" fill="#42E8E0"/>
<path d="M196.609 79.1229L195.178 78.3223L196.609 77.4646L198.039 78.3223L196.609 79.1229Z" fill="#42E8E0"/>
<path opacity="0.8" d="M199.47 80.7813L198.039 79.9808L199.47 79.123L200.958 79.9808L199.47 80.7813Z" fill="#FF2C9C"/>
<path opacity="0.8" d="M202.389 82.4398L200.958 81.6392L202.389 80.7815L203.819 81.6392L202.389 82.4398Z" fill="#FF2C9C"/>
<path d="M205.25 84.1549L203.819 83.2972L205.25 82.4395L206.738 83.2972L205.25 84.1549Z" fill="#42E8E0"/>
<path d="M208.168 85.8136L206.738 84.9558L208.168 84.1553L209.599 84.9558L208.168 85.8136Z" fill="#42E8E0"/>
<path d="M211.031 87.4718L209.6 86.614L211.031 85.8135L212.461 86.614L211.031 87.4718Z" fill="#42E8E0"/>
<path d="M185.049 75.8063L183.618 75.0057L185.049 74.1479L186.479 75.0057L185.049 75.8063Z" fill="#42E8E0"/>
<path d="M187.91 77.4647L186.479 76.6641L187.91 75.8064L189.398 76.6641L187.91 77.4647Z" fill="#42E8E0"/>
<path opacity="0.4" d="M190.828 79.1229L189.398 78.3223L190.828 77.4646L192.259 78.3223L190.828 79.1229Z" fill="#42E8E0"/>
<path opacity="0.8" d="M193.69 80.7811L192.26 79.9805L193.69 79.1228L195.178 79.9805L193.69 80.7811Z" fill="#FF2C9C"/>
<path opacity="0.1" d="M196.608 82.4967L195.178 81.639L196.608 80.7812L198.039 81.639L196.608 82.4967Z" fill="#42E8E0"/>
<path d="M199.47 84.1551L198.039 83.2974L199.47 82.4968L200.901 83.2974L199.47 84.1551Z" fill="#42E8E0"/>
<path d="M202.389 85.8136L200.901 84.9558L202.389 84.1553L203.82 84.9558L202.389 85.8136Z" fill="#42E8E0"/>
<path opacity="0.8" d="M205.25 87.4715L203.819 86.6138L205.25 85.8132L206.681 86.6138L205.25 87.4715Z" fill="#FF2C9C"/>
<path d="M208.169 89.13L206.681 88.3294L208.169 87.4717L209.599 88.3294L208.169 89.13Z" fill="#42E8E0"/>
<path d="M182.13 77.4647L180.699 76.6641L182.13 75.8064L183.618 76.6641L182.13 77.4647Z" fill="#42E8E0"/>
<path d="M185.049 79.1229L183.618 78.3223L185.049 77.4646L186.48 78.3223L185.049 79.1229Z" fill="#42E8E0"/>
<path opacity="0.4" d="M187.91 80.8383L186.48 79.9805L187.91 79.1228L189.341 79.9805L187.91 80.8383Z" fill="#42E8E0"/>
<path d="M190.829 82.4969L189.341 81.6392L190.829 80.8386L192.259 81.6392L190.829 82.4969Z" fill="#42E8E0"/>
<path d="M193.69 84.1549L192.26 83.2971L193.69 82.4966L195.121 83.2971L193.69 84.1549Z" fill="#42E8E0"/>
<path opacity="0.1" d="M196.609 85.8136L195.121 84.9558L196.609 84.1553L198.04 84.9558L196.609 85.8136Z" fill="#42E8E0"/>
<path opacity="0.4" d="M199.47 87.4718L198.04 86.6712L199.47 85.8135L200.901 86.6712L199.47 87.4718Z" fill="#42E8E0"/>
<path d="M202.332 89.1297L200.901 88.3292L202.332 87.4714L203.82 88.3292L202.332 89.1297Z" fill="#42E8E0"/>
<path opacity="0.1" d="M205.25 90.7884L203.82 89.9879L205.25 89.1301L206.681 89.9879L205.25 90.7884Z" fill="#42E8E0"/>
<path d="M179.269 79.1801L177.781 78.3223L179.269 77.4646L180.699 78.3223L179.269 79.1801Z" fill="#42E8E0"/>
<path opacity="0.4" d="M182.13 80.8385L180.699 79.9807L182.13 79.1802L183.561 79.9807L182.13 80.8385Z" fill="#42E8E0"/>
<path d="M185.049 82.4967L183.561 81.6389L185.049 80.8384L186.479 81.6389L185.049 82.4967Z" fill="#42E8E0"/>
<path d="M187.91 84.1549L186.479 83.2971L187.91 82.4966L189.341 83.2971L187.91 84.1549Z" fill="#42E8E0"/>
<path d="M190.771 85.8133L189.341 85.0128L190.771 84.155L192.259 85.0128L190.771 85.8133Z" fill="#42E8E0"/>
<path d="M193.69 87.4718L192.26 86.6712L193.69 85.8135L195.121 86.6712L193.69 87.4718Z" fill="#42E8E0"/>
<path d="M196.552 89.1297L195.121 88.3292L196.552 87.4714L198.039 88.3292L196.552 89.1297Z" fill="#42E8E0"/>
<path opacity="0.4" d="M199.47 90.7882L198.039 89.9876L199.47 89.1299L200.901 89.9876L199.47 90.7882Z" fill="#42E8E0"/>
<path d="M202.332 92.5038L200.901 91.6461L202.332 90.7883L203.762 91.6461L202.332 92.5038Z" fill="#42E8E0"/>
<path d="M176.35 80.8385L174.919 79.9807L176.35 79.1802L177.781 79.9807L176.35 80.8385Z" fill="#42E8E0"/>
<path opacity="0.1" d="M179.211 82.4964L177.781 81.6387L179.211 80.8381L180.699 81.6387L179.211 82.4964Z" fill="#42E8E0"/>
<path opacity="0.8" d="M182.13 84.1549L180.699 83.3543L182.13 82.4966L183.561 83.3543L182.13 84.1549Z" fill="#FF2C9C"/>
<path d="M184.991 85.8133L183.561 85.0128L184.991 84.155L186.479 85.0128L184.991 85.8133Z" fill="#42E8E0"/>
<path d="M187.91 87.4715L186.479 86.671L187.91 85.8132L189.34 86.671L187.91 87.4715Z" fill="#42E8E0"/>
<path d="M190.771 89.1297L189.341 88.3292L190.771 87.4714L192.202 88.3292L190.771 89.1297Z" fill="#42E8E0"/>
<path opacity="0.4" d="M193.69 90.8451L192.202 89.9874L193.69 89.1296L195.121 89.9874L193.69 90.8451Z" fill="#42E8E0"/>
<path opacity="0.8" d="M196.551 92.5035L195.121 91.6458L196.551 90.8452L197.982 91.6458L196.551 92.5035Z" fill="#FF2C9C"/>
<path d="M199.47 94.162L197.982 93.3042L199.47 92.5037L200.901 93.3042L199.47 94.162Z" fill="#42E8E0"/>
<path d="M248.401 186.226C247.6 186.226 246.856 185.997 246.169 185.654L220.359 170.73C219.958 170.501 219.729 170.101 219.729 169.586C219.729 169.071 219.958 168.728 220.359 168.442L267.115 141.452C267.172 141.395 267.286 141.395 267.343 141.452L295.271 157.578C295.671 157.806 295.9 158.207 295.9 158.721C295.9 159.179 295.671 159.579 295.271 159.865L250.633 185.597C250.003 185.997 249.202 186.226 248.401 186.226ZM267.229 142.024L220.645 168.9C220.416 169.014 220.245 169.3 220.245 169.586C220.245 169.872 220.416 170.101 220.645 170.272L246.455 185.197C247.657 185.883 249.202 185.883 250.404 185.197L295.042 159.465C295.271 159.35 295.442 159.064 295.442 158.778C295.442 158.493 295.271 158.264 295.042 158.092L267.229 142.024Z" fill="#42E8E0"/>
<path d="M267.286 131.102L261.049 94.2764L261.564 94.0477L260.82 93.5902C260.648 93.4758 260.476 93.4758 260.247 93.6474L210.573 122.296C210.173 122.525 209.829 123.154 209.944 123.554L216.182 160.723C216.239 160.894 216.296 161.066 216.468 161.123L217.212 161.523L217.326 160.837H217.269L266.657 132.36C267.058 132.131 267.344 131.502 267.286 131.102Z" fill="url(#paint15_linear_53_319)"/>
<path d="M210.802 123.325L210.001 122.982C209.886 123.211 209.886 123.439 209.886 123.611L216.124 160.78C216.181 160.951 216.239 161.123 216.41 161.18L217.154 161.58L217.269 160.894H217.211L219.729 159.465L210.802 123.325Z" fill="url(#paint16_linear_53_319)"/>
<path d="M267.401 132.817L217.727 161.466C217.326 161.695 217.04 161.58 216.925 161.18L210.687 124.011C210.63 123.611 210.916 122.982 211.317 122.753L260.991 94.1046C261.392 93.8759 261.678 93.9902 261.792 94.3905L268.03 131.559C268.145 131.96 267.801 132.531 267.401 132.817Z" fill="#24126A"/>
<g opacity="0.51">
<path d="M260.361 96.449L212.461 124.068L218.413 159.064L266.256 131.445L260.361 96.449Z" fill="#453C9E"/>
</g>
<path d="M298.647 150.372L295.957 151.802L268.774 136.134C268.316 135.848 267.515 135.905 267 136.191L220.13 163.238C219.672 163.01 217.612 161.98 217.612 161.98L218.585 164.554C218.642 164.668 218.699 164.782 218.871 164.84L247.485 181.365C247.943 181.651 248.744 181.594 249.259 181.308L297.216 153.632C297.445 153.517 297.56 153.346 297.617 153.231L298.647 150.372Z" fill="url(#paint17_linear_53_319)"/>
<path d="M298.247 150.83L249.087 179.193C248.572 179.478 247.714 179.536 247.256 179.25L217.898 162.324C217.44 162.038 217.497 161.58 218.013 161.294L267.172 132.932C267.687 132.646 268.545 132.589 269.003 132.874L298.361 149.801C298.819 150.029 298.762 150.487 298.247 150.83Z" fill="url(#paint18_linear_53_319)"/>
<path d="M298.246 150.544L249.087 178.907C248.572 179.193 247.714 179.25 247.256 178.964L217.898 162.038C217.726 161.923 217.669 161.866 217.612 161.695C217.555 161.923 217.612 162.152 217.898 162.266L247.256 179.193C247.714 179.478 248.515 179.421 249.087 179.135L298.246 150.773C298.59 150.544 298.761 150.258 298.647 150.029C298.59 150.258 298.475 150.43 298.246 150.544Z" fill="white"/>
<path d="M234.208 173.074V172.559C234.208 172.502 234.265 172.502 234.265 172.502L236.154 173.588C236.211 173.588 236.211 173.646 236.211 173.703V174.217C236.211 174.275 236.154 174.275 236.154 174.275L234.265 173.188C234.265 173.188 234.208 173.131 234.208 173.074Z" fill="#2842A2"/>
<path d="M237.069 174.675V174.161C237.069 174.104 237.127 174.104 237.127 174.104L239.015 175.19C239.072 175.19 239.072 175.247 239.072 175.304V175.819C239.072 175.876 239.015 175.876 239.015 175.876L237.127 174.79C237.069 174.79 237.069 174.733 237.069 174.675Z" fill="#2842A2"/>
<path d="M225.509 160.78L266.37 137.22C266.656 137.049 267 137.049 267.229 137.22L281.765 145.626C281.994 145.741 281.994 146.027 281.765 146.141L240.904 169.7C240.618 169.872 240.274 169.872 240.045 169.7L225.452 161.294C225.338 161.18 225.338 160.894 225.509 160.78Z" fill="#ADB1F2"/>
<path d="M225.509 161.294L225.681 161.352L266.427 137.849C266.714 137.678 267.057 137.678 267.286 137.849L281.707 146.198L281.879 146.141C282.108 146.027 282.108 145.741 281.879 145.626L267.343 137.22C267.057 137.049 266.714 137.049 266.485 137.22L225.624 160.78C225.338 160.894 225.338 161.18 225.509 161.294Z" fill="#9198DB"/>
<path d="M268.373 139.336L232.891 159.807L231.289 158.892L266.828 138.421L268.373 139.336Z" fill="#24126A"/>
<path d="M272.264 141.566L238.958 160.779L237.355 159.864L270.662 140.651L272.264 141.566Z" fill="#24126A"/>
<path d="M274.783 142.995L235.581 165.64L233.979 164.725L273.18 142.081L274.783 142.995Z" fill="#24126A"/>
<path d="M277.301 144.425L238.099 167.07L236.497 166.155L275.698 143.567L277.301 144.425Z" fill="#24126A"/>
<path d="M279.819 145.912L240.618 168.499L239.015 167.584L278.217 144.997L279.819 145.912Z" fill="#24126A"/>
<path d="M230.717 161.008L229.172 161.923L227.569 161.008L229.172 160.093L230.717 161.008Z" fill="#24126A"/>
<path d="M236.325 162.266L233.006 164.154L231.461 163.239L234.723 161.352L236.325 162.266Z" fill="#24126A"/>
<path d="M267.973 166.441L279.018 160.094C279.476 159.865 279.476 159.464 279.018 159.179L271.464 154.833C271.006 154.604 270.319 154.604 269.919 154.833L258.874 161.18C258.416 161.409 258.416 161.809 258.874 162.095L266.428 166.441C266.828 166.727 267.515 166.727 267.973 166.441Z" fill="url(#paint19_linear_53_319)"/>
<path d="M258.873 161.58L269.919 155.233C270.376 155.004 271.063 155.004 271.464 155.233L279.018 159.579C279.132 159.636 279.247 159.75 279.304 159.865C279.418 159.636 279.304 159.407 279.018 159.236L271.464 154.89C271.006 154.661 270.319 154.661 269.919 154.89L258.873 161.237C258.587 161.409 258.473 161.637 258.587 161.866C258.645 161.752 258.759 161.637 258.873 161.58Z" fill="#9198DB"/>
<g opacity="0.11">
<path d="M267.229 132.875L218.07 161.237C217.555 161.523 216.696 161.58 216.239 161.294L186.881 144.368C186.423 144.082 186.48 143.625 186.995 143.339L236.154 114.976C236.669 114.69 237.528 114.633 237.985 114.919L267.343 131.845C267.859 132.074 267.801 132.531 267.229 132.875Z" fill="url(#paint20_linear_53_319)"/>
<path d="M217.898 137.964L228.943 131.616C229.401 131.388 229.401 130.987 228.943 130.702L221.389 126.356C220.931 126.127 220.245 126.127 219.844 126.356L208.799 132.703C208.341 132.932 208.341 133.332 208.799 133.618L216.353 137.964C216.811 138.192 217.498 138.192 217.898 137.964Z" fill="url(#paint21_linear_53_319)"/>
<path d="M208.799 133.046L219.844 126.699C220.302 126.47 220.989 126.47 221.389 126.699L228.943 131.045C229.058 131.102 229.172 131.216 229.229 131.331C229.344 131.102 229.229 130.873 228.943 130.702L221.389 126.356C220.931 126.127 220.245 126.127 219.844 126.356L208.799 132.703C208.513 132.874 208.398 133.103 208.513 133.332C208.627 133.218 208.685 133.16 208.799 133.046Z" fill="#9198DB"/>
<path d="M203.992 147.856L244.853 124.297C245.139 124.126 245.482 124.126 245.711 124.297L260.247 132.703C260.476 132.817 260.476 133.103 260.247 133.218L219.443 156.834C219.157 157.006 218.814 157.006 218.585 156.834L203.992 148.428C203.763 148.314 203.763 148.028 203.992 147.856Z" fill="#ADB1F2"/>
<path d="M203.992 148.429L204.163 148.486L244.91 124.984C245.196 124.812 245.54 124.812 245.768 124.984L260.19 133.332L260.362 133.275C260.591 133.161 260.591 132.875 260.362 132.761L245.826 124.355C245.54 124.183 245.196 124.183 244.967 124.355L204.106 147.914C203.763 148.028 203.763 148.314 203.992 148.429Z" fill="#9198DB"/>
<path d="M256.47 132.131L220.874 152.659L222.248 153.517L257.901 132.989L256.47 132.131Z" fill="#24126A"/>
<path d="M252.693 129.958L218.872 149.515L220.302 150.316L254.124 130.816L252.693 129.958Z" fill="#24126A"/>
<path d="M216.353 150.944L213.206 152.774L214.579 153.575L217.784 151.802L216.353 150.944Z" fill="#24126A"/>
<path d="M219.157 153.689L216.926 154.947L218.356 155.748L220.531 154.49L219.157 153.689Z" fill="#24126A"/>
<path d="M250.347 128.643L210.859 151.402L212.233 152.26L251.778 129.444L250.347 128.643Z" fill="#24126A"/>
<path d="M248 127.271L208.513 150.086L209.886 150.887L249.431 128.071L248 127.271Z" fill="#24126A"/>
<path d="M245.654 125.898L206.109 148.714L207.54 149.515L247.085 126.756L245.654 125.898Z" fill="#24126A"/>
</g>
<path d="M230.489 145.74L234.38 143.51L234.495 144.139L230.603 146.427L230.489 145.74Z" fill="#42E8E0"/>
<path d="M235.01 143.11L237.127 141.909L237.241 142.595L235.124 143.796L235.01 143.11Z" fill="#42E8E0"/>
<path d="M240.389 140.023L241.934 139.165L242.049 139.794L240.503 140.709L240.389 140.023Z" fill="#42E8E0"/>
<path d="M239.302 140.651L239.817 140.365L239.931 141.051L239.416 141.337L239.302 140.651Z" fill="#42E8E0"/>
<path d="M237.757 141.566L238.672 140.995L238.787 141.681L237.871 142.195L237.757 141.566Z" fill="#42E8E0"/>
<path d="M233.579 140.594L235.124 139.679L235.238 140.365L233.693 141.28L233.579 140.594Z" fill="#42E8E0"/>
<path d="M229.974 142.653L233.007 140.938L233.121 141.624L230.088 143.339L229.974 142.653Z" fill="#42E8E0"/>
<path d="M234.266 131.788L237.299 130.015L237.356 130.701L234.38 132.417L234.266 131.788Z" fill="#42E8E0"/>
<path d="M232.72 132.646L233.693 132.074L233.808 132.76L232.835 133.332L232.72 132.646Z" fill="#42E8E0"/>
<path d="M234.781 134.819L237.756 133.104L237.871 133.79L234.895 135.505L234.781 134.819Z" fill="#42E8E0"/>
<path d="M233.235 135.733L234.208 135.162L234.323 135.848L233.35 136.42L233.235 135.733Z" fill="#42E8E0"/>
<path d="M232.091 118.464L226.425 121.724L226.311 121.095L231.977 117.835L232.091 118.464Z" fill="#42E8E0"/>
<path d="M234.037 117.32L232.663 118.121L232.549 117.492L233.922 116.691L234.037 117.32Z" fill="#42E8E0"/>
<path d="M243.937 116.692L238.329 119.951L238.214 119.265L243.822 116.006L243.937 116.692Z" fill="#42E8E0"/>
<path d="M245.94 115.548L244.567 116.349L244.452 115.662L245.826 114.862L245.94 115.548Z" fill="#42E8E0"/>
<path d="M228.199 122.41L226.711 123.268L226.597 122.582L228.085 121.724L228.199 122.41Z" fill="#42E8E0"/>
<path d="M237.528 120.409L235.982 121.267L235.868 120.638L237.413 119.723L237.528 120.409Z" fill="#42E8E0"/>
<path d="M231.805 120.352L228.829 122.067L228.714 121.381L231.69 119.666L231.805 120.352Z" fill="#42E8E0"/>
<path d="M233.35 119.437L232.377 120.009L232.262 119.322L233.235 118.75L233.35 119.437Z" fill="#42E8E0"/>
<path d="M236.955 117.378L233.979 119.093L233.865 118.407L236.841 116.691L236.955 117.378Z" fill="#42E8E0"/>
<path d="M238.501 116.463L237.528 117.035L237.413 116.349L238.386 115.777L238.501 116.463Z" fill="#42E8E0"/>
<path d="M237.241 118.865L235.696 119.723L235.582 119.094L237.127 118.179L237.241 118.865Z" fill="#42E8E0"/>
<path d="M240.847 116.806L237.871 118.522L237.757 117.836L240.732 116.12L240.847 116.806Z" fill="#42E8E0"/>
<path d="M242.392 115.891L241.419 116.463L241.305 115.777L242.278 115.262L242.392 115.891Z" fill="#42E8E0"/>
<path d="M230.088 122.982L226.94 124.811L226.826 124.125L229.973 122.353L230.088 122.982Z" fill="#42E8E0"/>
<path d="M232.949 121.381L230.66 122.696L230.546 122.01L232.835 120.694L232.949 121.381Z" fill="#42E8E0"/>
<path d="M235.067 120.123L233.522 121.038L233.407 120.352L234.952 119.494L235.067 120.123Z" fill="#42E8E0"/>
<path d="M249.889 113.261L246.741 115.091L246.627 114.405L249.775 112.632L249.889 113.261Z" fill="#42E8E0"/>
<path d="M252.693 111.66L250.461 112.918L250.347 112.289L252.579 110.973L252.693 111.66Z" fill="#42E8E0"/>
<path d="M254.81 110.402L253.322 111.316L253.208 110.63L254.696 109.715L254.81 110.402Z" fill="#42E8E0"/>
<path d="M248.63 133.561L251.778 131.788L251.892 132.474L248.745 134.247L248.63 133.561Z" fill="#42E8E0"/>
<path d="M245.768 135.219L248.057 133.904L248.172 134.59L245.883 135.905L245.768 135.219Z" fill="#42E8E0"/>
<path d="M243.651 136.477L245.196 135.562L245.311 136.248L243.766 137.106L243.651 136.477Z" fill="#42E8E0"/>
<path d="M247.6 135.848L250.747 134.075L250.862 134.761L247.714 136.534L247.6 135.848Z" fill="#42E8E0"/>
<path d="M244.738 137.507L247.027 136.191L247.142 136.878L244.853 138.193L244.738 137.507Z" fill="#42E8E0"/>
<path d="M242.621 138.764L244.166 137.849L244.28 138.535L242.735 139.393L242.621 138.764Z" fill="#42E8E0"/>
<path d="M235.01 133.046L236.04 132.417L236.154 133.103L235.124 133.675L235.01 133.046Z" fill="#42E8E0"/>
<path d="M233.007 134.19L234.38 133.389L234.495 134.018L233.121 134.876L233.007 134.19Z" fill="#42E8E0"/>
<path d="M230.374 124.526L227.227 126.355L227.112 125.669L230.26 123.839L230.374 124.526Z" fill="#42E8E0"/>
<path d="M233.178 122.867L230.946 124.182L230.832 123.496L233.121 122.238L233.178 122.867Z" fill="#42E8E0"/>
<path d="M235.353 121.667L233.808 122.524L233.693 121.895L235.239 120.98L235.353 121.667Z" fill="#42E8E0"/>
<path d="M228.543 127.271L227.513 127.9L227.398 127.213L228.428 126.584L228.543 127.271Z" fill="#42E8E0"/>
<path d="M230.546 126.127L229.115 126.928L229.001 126.241L230.431 125.441L230.546 126.127Z" fill="#42E8E0"/>
<path d="M233.35 124.468L231.118 125.784L231.003 125.097L233.235 123.782L233.35 124.468Z" fill="#42E8E0"/>
<path d="M236.44 137.277L237.471 136.648L237.585 137.335L236.555 137.964L236.44 137.277Z" fill="#42E8E0"/>
<path d="M234.437 138.421L235.811 137.621L235.925 138.307L234.552 139.107L234.437 138.421Z" fill="#42E8E0"/>
<path d="M231.576 140.079L233.865 138.764L233.98 139.45L231.69 140.708L231.576 140.079Z" fill="#42E8E0"/>
<path d="M238.043 134.761L240.275 133.446L240.389 134.132L238.157 135.448L238.043 134.761Z" fill="#42E8E0"/>
<path d="M234.323 136.763L237.356 135.047L237.47 135.676L234.437 137.449L234.323 136.763Z" fill="#42E8E0"/>
<path d="M232.835 137.678L233.751 137.106L233.865 137.792L232.949 138.307L232.835 137.678Z" fill="#42E8E0"/>
<path d="M231.347 138.536L232.263 137.964L232.377 138.65L231.461 139.165L231.347 138.536Z" fill="#42E8E0"/>
<path d="M231.519 129.843L234.552 128.128L234.666 128.757L231.633 130.53L231.519 129.843Z" fill="#42E8E0"/>
<path d="M229.973 130.702L230.946 130.187L231.06 130.873L230.088 131.388L229.973 130.702Z" fill="#42E8E0"/>
<path d="M231.748 128.014L232.778 127.442L232.892 128.071L231.862 128.7L231.748 128.014Z" fill="#42E8E0"/>
<path d="M235.467 129.272L236.497 128.643L236.612 129.329L235.582 129.958L235.467 129.272Z" fill="#42E8E0"/>
<path d="M236.955 128.414L239.531 126.927L239.645 127.613L237.07 129.043L236.955 128.414Z" fill="#42E8E0"/>
<path d="M239.931 126.699L241.476 125.784L241.591 126.47L240.046 127.328L239.931 126.699Z" fill="#42E8E0"/>
<path d="M229.744 129.157L231.175 128.357L231.29 129.043L229.859 129.844L229.744 129.157Z" fill="#42E8E0"/>
<path d="M229.63 127.613L230.66 126.984L230.774 127.671L229.744 128.3L229.63 127.613Z" fill="#42E8E0"/>
<path d="M227.627 128.757L229.058 127.957L229.172 128.643L227.742 129.443L227.627 128.757Z" fill="#42E8E0"/>
<path d="M233.922 130.13L234.895 129.615L235.01 130.244L234.037 130.816L233.922 130.13Z" fill="#42E8E0"/>
<path d="M232.434 130.987L233.407 130.473L233.521 131.102L232.549 131.673L232.434 130.987Z" fill="#42E8E0"/>
<path d="M239.76 138.707L242.964 136.877L243.079 137.506L239.874 139.393L239.76 138.707Z" fill="#42E8E0"/>
<path d="M236.097 140.823L239.13 139.05L239.245 139.736L236.212 141.509L236.097 140.823Z" fill="#42E8E0"/>
<path d="M234.552 141.681L235.525 141.166L235.639 141.852L234.666 142.367L234.552 141.681Z" fill="#42E8E0"/>
<path d="M233.121 142.539L234.037 142.024L234.151 142.653L233.236 143.225L233.121 142.539Z" fill="#42E8E0"/>
<path d="M232.32 142.996L230.26 144.197L230.374 144.883L232.434 143.682L232.32 142.996Z" fill="#42E8E0"/>
<g opacity="0.8">
<path d="M150.541 186.283C149.739 186.283 148.938 186.054 148.252 185.654L103.613 159.922C103.156 159.693 102.927 159.236 102.927 158.721C102.927 158.206 103.213 157.749 103.613 157.52L131.713 141.28L131.884 141.395L178.64 168.385C179.098 168.614 179.327 169.071 179.327 169.586C179.327 170.1 179.04 170.558 178.64 170.787L152.83 185.711C152.143 186.054 151.342 186.283 150.541 186.283ZM148.595 185.082C149.797 185.768 151.285 185.768 152.486 185.082L178.296 170.158C178.525 170.043 178.64 169.815 178.64 169.529C178.64 169.3 178.525 169.071 178.296 168.957L131.713 142.081H131.655L103.9 158.092C103.671 158.206 103.556 158.435 103.556 158.721C103.556 158.95 103.671 159.178 103.9 159.293L148.595 185.082Z" fill="url(#paint22_linear_53_319)"/>
</g>
<path d="M131.712 131.102L137.95 94.2764L137.435 94.0477L138.179 93.5902C138.351 93.4758 138.523 93.4758 138.751 93.6474L188.426 122.296C188.826 122.525 189.17 123.154 189.055 123.554L182.817 160.723C182.76 160.894 182.703 161.066 182.531 161.123L181.787 161.523L181.673 160.837H181.73L132.342 132.36C131.941 132.131 131.655 131.502 131.712 131.102Z" fill="url(#paint23_linear_53_319)"/>
<path d="M188.139 123.325L188.94 122.982C189.055 123.211 189.055 123.439 189.055 123.611L182.817 160.78C182.76 160.951 182.703 161.123 182.531 161.18L181.787 161.58L181.672 160.894H181.73L179.212 159.465L188.139 123.325Z" fill="url(#paint24_linear_53_319)"/>
<path d="M131.598 132.817L181.272 161.466C181.672 161.695 181.958 161.58 182.073 161.18L188.311 124.011C188.368 123.611 188.082 122.982 187.681 122.753L138.007 94.1046C137.607 93.8759 137.32 93.9902 137.206 94.3905L130.968 131.559C130.854 131.96 131.14 132.531 131.598 132.817Z" fill="#24126A"/>
<g opacity="0.51">
<path d="M138.637 96.449L186.537 124.068L180.585 159.064L132.742 131.445L138.637 96.449Z" fill="#453C9E"/>
</g>
<path d="M100.352 150.372L103.041 151.802L130.225 136.134C130.683 135.848 131.484 135.905 131.999 136.191L178.869 163.238C179.327 163.01 181.387 161.98 181.387 161.98L180.414 164.554C180.357 164.668 180.299 164.782 180.128 164.84L151.514 181.423C151.056 181.708 150.255 181.651 149.74 181.365L101.725 153.632C101.496 153.517 101.382 153.346 101.324 153.231L100.352 150.372Z" fill="url(#paint25_linear_53_319)"/>
<path d="M100.752 150.83L149.911 179.193C150.426 179.478 151.284 179.536 151.742 179.25L181.1 162.324C181.558 162.038 181.501 161.58 180.986 161.294L131.827 132.932C131.312 132.646 130.453 132.589 129.995 132.874L100.637 149.801C100.18 150.029 100.237 150.487 100.752 150.83Z" fill="url(#paint26_linear_53_319)"/>
<path d="M100.752 150.544L149.911 178.907C150.426 179.193 151.285 179.25 151.742 178.964L181.101 162.038C181.272 161.923 181.329 161.866 181.387 161.695C181.444 161.923 181.387 162.152 181.101 162.266L151.742 179.193C151.285 179.478 150.483 179.421 149.911 179.135L100.752 150.773C100.409 150.544 100.237 150.258 100.351 150.029C100.409 150.258 100.523 150.43 100.752 150.544Z" fill="white"/>
<path d="M164.791 173.074V172.559C164.791 172.502 164.733 172.502 164.733 172.502L162.845 173.588C162.788 173.588 162.788 173.646 162.788 173.703V174.217C162.788 174.275 162.845 174.275 162.845 174.275L164.733 173.188C164.733 173.188 164.791 173.131 164.791 173.074Z" fill="#2842A2"/>
<path d="M161.929 174.675V174.161C161.929 174.104 161.872 174.104 161.872 174.104L159.983 175.19C159.926 175.19 159.926 175.247 159.926 175.304V175.819C159.926 175.876 159.983 175.876 159.983 175.876L161.872 174.79C161.872 174.79 161.929 174.733 161.929 174.675Z" fill="#2842A2"/>
<path d="M173.432 160.78L132.571 137.22C132.285 137.049 131.941 137.049 131.713 137.22L117.177 145.569C116.948 145.683 116.948 145.969 117.177 146.084L158.038 169.643C158.324 169.815 158.667 169.815 158.896 169.643L173.489 161.237C173.661 161.18 173.661 160.894 173.432 160.78Z" fill="#ADB1F2"/>
<path d="M173.432 161.294L173.26 161.352L132.514 137.849C132.228 137.678 131.884 137.678 131.655 137.849L117.234 146.198L117.062 146.141C116.833 146.027 116.833 145.741 117.062 145.626L131.598 137.22C131.884 137.049 132.228 137.049 132.456 137.22L173.317 160.78C173.661 160.894 173.661 161.18 173.432 161.294Z" fill="#9198DB"/>
<path d="M134.002 141.28L168.625 161.237L170.113 160.265L135.604 140.365L134.002 141.28Z" fill="#24126A"/>
<path d="M131.77 144.425L163.188 162.552L164.275 161.351L133.372 143.567L131.77 144.425Z" fill="#24126A"/>
<path d="M124.216 142.995L163.417 165.64L165.02 164.725L125.818 142.081L124.216 142.995Z" fill="#24126A"/>
<path d="M121.698 144.425L160.899 167.07L162.502 166.155L123.3 143.567L121.698 144.425Z" fill="#24126A"/>
<path d="M119.18 145.912L158.381 168.499L159.983 167.584L120.782 144.997L119.18 145.912Z" fill="#24126A"/>
<path d="M168.281 161.008L169.826 161.923L171.429 161.008L169.826 160.093L168.281 161.008Z" fill="#24126A"/>
<path d="M162.673 162.266L165.935 164.153L167.537 163.238L164.275 161.351L162.673 162.266Z" fill="#24126A"/>
<path d="M131.026 166.441L119.981 160.094C119.523 159.865 119.523 159.464 119.981 159.179L127.535 154.833C127.993 154.604 128.68 154.604 129.08 154.833L140.125 161.18C140.583 161.409 140.583 161.809 140.125 162.095L132.571 166.441C132.17 166.727 131.426 166.727 131.026 166.441Z" fill="url(#paint27_linear_53_319)"/>
<path d="M140.125 161.58L129.08 155.233C128.622 155.004 127.935 155.004 127.535 155.233L119.981 159.579C119.866 159.636 119.752 159.75 119.694 159.865C119.58 159.636 119.694 159.407 119.981 159.236L127.535 154.89C127.993 154.661 128.679 154.661 129.08 154.89L140.125 161.237C140.411 161.409 140.526 161.637 140.411 161.866C140.354 161.752 140.239 161.637 140.125 161.58Z" fill="#9198DB"/>
<g opacity="0.11">
<path d="M131.77 132.875L180.929 161.237C181.444 161.523 182.302 161.58 182.76 161.294L212.118 144.368C212.576 144.082 212.519 143.625 212.004 143.339L162.845 114.976C162.33 114.69 161.471 114.633 161.013 114.919L131.655 131.845C131.14 132.074 131.197 132.531 131.77 132.875Z" fill="url(#paint28_linear_53_319)"/>
<path d="M181.101 137.964L170.056 131.616C169.598 131.388 169.598 130.987 170.056 130.702L177.61 126.356C178.067 126.127 178.754 126.127 179.155 126.356L190.2 132.703C190.658 132.932 190.658 133.332 190.2 133.618L182.646 137.964C182.188 138.192 181.501 138.192 181.101 137.964Z" fill="url(#paint29_linear_53_319)"/>
<path d="M190.142 133.046L179.097 126.699C178.639 126.47 177.953 126.47 177.552 126.699L169.998 131.045C169.884 131.102 169.769 131.216 169.712 131.331C169.597 131.102 169.712 130.873 169.998 130.702L177.552 126.356C178.01 126.127 178.697 126.127 179.097 126.356L190.142 132.703C190.428 132.874 190.543 133.103 190.428 133.332C190.371 133.218 190.314 133.16 190.142 133.046Z" fill="#9198DB"/>
<path d="M195.007 147.856L154.146 124.297C153.86 124.126 153.516 124.126 153.287 124.297L138.752 132.703C138.523 132.817 138.523 133.103 138.752 133.218L179.555 156.834C179.841 157.006 180.185 157.006 180.414 156.834L195.007 148.428C195.236 148.314 195.236 148.028 195.007 147.856Z" fill="#ADB1F2"/>
<path d="M195.007 148.429L194.835 148.486L154.089 124.984C153.803 124.812 153.459 124.812 153.23 124.984L138.809 133.332L138.637 133.275C138.408 133.161 138.408 132.875 138.637 132.761L153.173 124.355C153.459 124.183 153.803 124.183 154.031 124.355L194.892 147.914C195.236 148.028 195.236 148.314 195.007 148.429Z" fill="#9198DB"/>
<path d="M142.529 132.131L178.125 152.659L176.694 153.517L141.098 132.989L142.529 132.131Z" fill="#24126A"/>
<path d="M146.249 129.958L180.128 149.515L178.697 150.316L144.875 130.816L146.249 129.958Z" fill="#24126A"/>
<path d="M182.646 150.944L185.793 152.774L184.363 153.575L181.215 151.802L182.646 150.944Z" fill="#24126A"/>
<path d="M179.842 153.689L182.073 154.947L180.643 155.748L178.411 154.49L179.842 153.689Z" fill="#24126A"/>
<path d="M148.595 128.643L188.139 151.402L186.766 152.26L147.221 129.444L148.595 128.643Z" fill="#24126A"/>
<path d="M150.999 127.271L190.486 150.086L189.113 150.887L149.568 128.071L150.999 127.271Z" fill="#24126A"/>
<path d="M153.345 125.898L192.832 148.714L191.459 149.515L151.914 126.756L153.345 125.898Z" fill="#24126A"/>
</g>
<path d="M149.339 109.43L153.23 111.66L153.345 110.974L149.453 108.744L149.339 109.43Z" fill="#42E8E0"/>
<path d="M153.86 112.003L155.977 113.261L156.092 112.575L153.974 111.317L153.86 112.003Z" fill="#42E8E0"/>
<path d="M159.239 115.148L160.784 116.006L160.899 115.319L159.354 114.462L159.239 115.148Z" fill="#42E8E0"/>
<path d="M158.152 114.462L158.667 114.805L158.781 114.119L158.266 113.833L158.152 114.462Z" fill="#42E8E0"/>
<path d="M156.607 113.604L157.523 114.119L157.637 113.49L156.721 112.918L156.607 113.604Z" fill="#42E8E0"/>
<path d="M152.429 114.576L153.917 115.434L154.032 114.748L152.544 113.89L152.429 114.576Z" fill="#42E8E0"/>
<path d="M148.824 112.518L151.8 114.233L151.914 113.547L148.938 111.832L148.824 112.518Z" fill="#42E8E0"/>
<path d="M153.116 123.382L156.092 125.098L156.206 124.469L153.23 122.696L153.116 123.382Z" fill="#42E8E0"/>
<path d="M151.571 122.525L152.544 123.039L152.658 122.353L151.685 121.838L151.571 122.525Z" fill="#42E8E0"/>
<path d="M153.631 120.295L156.606 122.067L156.721 121.381L153.745 119.666L153.631 120.295Z" fill="#42E8E0"/>
<path d="M152.086 119.437L153.001 119.951L153.116 119.322L152.2 118.75L152.086 119.437Z" fill="#42E8E0"/>
<path d="M150.884 136.649L145.276 133.389L145.161 134.075L150.77 137.335L150.884 136.649Z" fill="#42E8E0"/>
<path d="M152.887 137.792L151.513 136.992L151.399 137.678L152.772 138.478L152.887 137.792Z" fill="#42E8E0"/>
<path d="M162.787 138.479L157.179 135.219L157.064 135.905L162.673 139.108L162.787 138.479Z" fill="#42E8E0"/>
<path d="M164.79 139.622L163.417 138.822L163.302 139.451L164.676 140.309L164.79 139.622Z" fill="#42E8E0"/>
<path d="M147.05 132.76L145.505 131.845L145.39 132.531L146.935 133.446L147.05 132.76Z" fill="#42E8E0"/>
<path d="M156.378 134.762L154.832 133.847L154.718 134.533L156.263 135.391L156.378 134.762Z" fill="#42E8E0"/>
<path d="M150.655 134.819L147.679 133.104L147.565 133.79L150.541 135.505L150.655 134.819Z" fill="#42E8E0"/>
<path d="M152.2 135.734L151.227 135.162L151.113 135.848L152.085 136.363L152.2 135.734Z" fill="#42E8E0"/>
<path d="M155.806 137.793L152.83 136.077L152.715 136.763L155.691 138.479L155.806 137.793Z" fill="#42E8E0"/>
<path d="M157.351 138.707L156.378 138.135L156.263 138.821L157.236 139.336L157.351 138.707Z" fill="#42E8E0"/>
<path d="M156.092 136.306L154.547 135.391L154.432 136.077L155.977 136.935L156.092 136.306Z" fill="#42E8E0"/>
<path d="M159.697 138.364L156.664 136.648L156.55 137.277L159.583 138.993L159.697 138.364Z" fill="#42E8E0"/>
<path d="M161.242 139.222L160.269 138.707L160.155 139.336L161.128 139.908L161.242 139.222Z" fill="#42E8E0"/>
<path d="M148.938 132.131L145.791 130.358L145.676 130.987L148.824 132.817L148.938 132.131Z" fill="#42E8E0"/>
<path d="M151.742 133.789L149.51 132.474L149.396 133.16L151.628 134.476L151.742 133.789Z" fill="#42E8E0"/>
<path d="M153.917 134.99L152.372 134.132L152.257 134.819L153.802 135.676L153.917 134.99Z" fill="#42E8E0"/>
<path d="M168.682 141.852L165.592 140.08L165.477 140.709L168.567 142.538L168.682 141.852Z" fill="#42E8E0"/>
<path d="M171.543 143.511L169.311 142.195L169.197 142.882L171.429 144.197L171.543 143.511Z" fill="#42E8E0"/>
<path d="M173.661 144.711L172.173 143.854L172.058 144.54L173.546 145.397L173.661 144.711Z" fill="#42E8E0"/>
<path d="M167.48 121.553L170.628 123.383L170.742 122.696L167.595 120.924L167.48 121.553Z" fill="#42E8E0"/>
<path d="M164.619 119.894L166.908 121.209L167.022 120.58L164.733 119.265L164.619 119.894Z" fill="#42E8E0"/>
<path d="M162.501 118.694L164.047 119.551L164.161 118.922L162.616 118.007L162.501 118.694Z" fill="#42E8E0"/>
<path d="M166.45 119.265L169.598 121.095L169.712 120.409L166.564 118.579L166.45 119.265Z" fill="#42E8E0"/>
<path d="M163.589 117.607L165.878 118.922L165.992 118.236L163.703 116.978L163.589 117.607Z" fill="#42E8E0"/>
<path d="M161.471 116.406L163.016 117.264L163.131 116.635L161.586 115.72L161.471 116.406Z" fill="#42E8E0"/>
<path d="M153.803 122.124L154.89 122.753L155.005 122.067L153.917 121.438L153.803 122.124Z" fill="#42E8E0"/>
<path d="M151.857 120.981L153.23 121.781L153.345 121.095L151.971 120.294L151.857 120.981Z" fill="#42E8E0"/>
<path d="M149.224 130.587L146.077 128.814L145.962 129.501L149.11 131.273L149.224 130.587Z" fill="#42E8E0"/>
<path d="M152.028 132.246L149.797 130.931L149.682 131.617L151.914 132.932L152.028 132.246Z" fill="#42E8E0"/>
<path d="M154.146 133.504L152.658 132.589L152.544 133.275L154.032 134.133L154.146 133.504Z" fill="#42E8E0"/>
<path d="M147.393 127.9L146.305 127.271L146.191 127.957L147.278 128.529L147.393 127.9Z" fill="#42E8E0"/>
<path d="M149.396 129.043L147.965 128.243L147.851 128.872L149.282 129.672L149.396 129.043Z" fill="#42E8E0"/>
<path d="M152.2 130.645L149.968 129.387L149.854 130.016L152.085 131.331L152.2 130.645Z" fill="#42E8E0"/>
<path d="M155.233 117.893L156.321 118.465L156.435 117.836L155.348 117.207L155.233 117.893Z" fill="#42E8E0"/>
<path d="M153.287 116.749L154.661 117.55L154.775 116.864L153.402 116.063L153.287 116.749Z" fill="#42E8E0"/>
<path d="M150.426 115.091L152.658 116.406L152.772 115.72L150.54 114.405L150.426 115.091Z" fill="#42E8E0"/>
<path d="M156.893 120.352L159.125 121.667L159.239 120.981L157.007 119.723L156.893 120.352Z" fill="#42E8E0"/>
<path d="M153.173 118.35L156.206 120.123L156.321 119.437L153.288 117.721L153.173 118.35Z" fill="#42E8E0"/>
<path d="M151.628 117.493L152.601 118.007L152.715 117.378L151.742 116.806L151.628 117.493Z" fill="#42E8E0"/>
<path d="M150.197 116.635L151.113 117.207L151.227 116.521L150.312 115.949L150.197 116.635Z" fill="#42E8E0"/>
<path d="M150.369 125.326L153.345 127.042L153.459 126.356L150.483 124.64L150.369 125.326Z" fill="#42E8E0"/>
<path d="M148.824 124.411L149.797 124.983L149.911 124.297L148.938 123.725L148.824 124.411Z" fill="#42E8E0"/>
<path d="M150.598 127.099L151.628 127.728L151.742 127.042L150.712 126.47L150.598 127.099Z" fill="#42E8E0"/>
<path d="M154.317 125.898L155.348 126.47L155.462 125.841L154.432 125.212L154.317 125.898Z" fill="#42E8E0"/>
<path d="M155.805 126.756L158.323 128.186L158.438 127.557L155.92 126.07L155.805 126.756Z" fill="#42E8E0"/>
<path d="M158.781 128.471L160.327 129.329L160.441 128.643L158.896 127.785L158.781 128.471Z" fill="#42E8E0"/>
<path d="M148.594 125.955L149.968 126.756L150.082 126.127L148.709 125.269L148.594 125.955Z" fill="#42E8E0"/>
<path d="M148.48 127.556L149.51 128.128L149.625 127.499L148.595 126.87L148.48 127.556Z" fill="#42E8E0"/>
<path d="M146.477 126.413L147.851 127.213L147.965 126.527L146.592 125.727L146.477 126.413Z" fill="#42E8E0"/>
<path d="M152.772 124.983L153.745 125.555L153.86 124.869L152.887 124.354L152.772 124.983Z" fill="#42E8E0"/>
<path d="M151.284 124.126L152.257 124.697L152.372 124.011L151.399 123.497L151.284 124.126Z" fill="#42E8E0"/>
<path d="M158.61 116.406L161.815 118.293L161.929 117.607L158.724 115.777L158.61 116.406Z" fill="#42E8E0"/>
<path d="M154.947 114.347L157.98 116.063L158.095 115.434L155.062 113.661L154.947 114.347Z" fill="#42E8E0"/>
<path d="M153.402 113.432L154.375 114.004L154.489 113.318L153.516 112.803L153.402 113.432Z" fill="#42E8E0"/>
<path d="M151.971 112.575L152.887 113.147L153.001 112.461L152.028 111.946L151.971 112.575Z" fill="#42E8E0"/>
<path d="M151.113 112.117L149.11 110.974L149.224 110.288L151.227 111.431L151.113 112.117Z" fill="#42E8E0"/>
<path d="M130.625 139.336L132.17 140.194L133.773 139.336L132.17 138.421L130.625 139.336Z" fill="#24126A"/>
<path d="M126.734 141.566L129.996 143.453L131.598 142.538L128.336 140.651L126.734 141.566Z" fill="#24126A"/>
<path opacity="0.5" d="M232.549 79.9806V-15H166.45V79.9806L199.471 99.0225L232.549 79.9806Z" fill="url(#paint30_linear_53_319)"/>
</g>
</g>
<defs>
<filter id="filter0_d_53_319" x="-10" y="0" width="340" height="231" filterUnits="userSpaceOnUse" color-interpolation-filters="sRGB">
<feFlood flood-opacity="0" result="BackgroundImageFix"/>
<feColorMatrix in="SourceAlpha" type="matrix" values="0 0 0 0 0 0 0 0 0 0 0 0 0 0 0 0 0 0 127 0" result="hardAlpha"/>
<feOffset dy="4"/>
<feGaussianBlur stdDeviation="10"/>
<feComposite in2="hardAlpha" operator="out"/>
<feColorMatrix type="matrix" values="0 0 0 0 0 0 0 0 0 0.027451 0 0 0 0 0.368627 0 0 0 0.1 0"/>
<feBlend mode="normal" in2="BackgroundImageFix" result="effect1_dropShadow_53_319"/>
<feBlend mode="normal" in="SourceGraphic" in2="effect1_dropShadow_53_319" result="shape"/>
</filter>
<radialGradient id="paint0_radial_53_319" cx="0" cy="0" r="1" gradientUnits="userSpaceOnUse" gradientTransform="translate(190.667 118.822) rotate(180) scale(158.941 151.788)">
<stop stop-color="#42E8E0"/>
<stop offset="0.0311047" stop-color="#42E8E0"/>
<stop offset="0.1763" stop-color="#308BA7"/>
<stop offset="0.3263" stop-color="#265587"/>
<stop offset="0.4803" stop-color="#201A6C"/>
<stop offset="0.6397" stop-color="#160E5A"/>
<stop offset="0.8079" stop-color="#11074F"/>
<stop offset="1" stop-color="#0F054C"/>
</radialGradient>
<radialGradient id="paint1_radial_53_319" cx="0" cy="0" r="1" gradientUnits="userSpaceOnUse" gradientTransform="translate(318.395 31.2107) rotate(180) scale(251.847 251.974)">
<stop stop-color="#FF2C9C"/>
<stop offset="0.0300632" stop-color="#F62F9F"/>
<stop offset="0.2023" stop-color="#C63EB0"/>
<stop offset="0.3737" stop-color="#9E4BBE"/>
<stop offset="0.5413" stop-color="#7F54C9"/>
<stop offset="0.7039" stop-color="#695BD1"/>
<stop offset="0.8594" stop-color="#5C60D5"/>
<stop offset="1" stop-color="#5761D7"/>
</radialGradient>
<linearGradient id="paint2_linear_53_319" x1="100.334" y1="96.227" x2="179.988" y2="96.227" gradientUnits="userSpaceOnUse">
<stop stop-color="#5761D7"/>
<stop offset="0.1779" stop-color="#5C66D9"/>
<stop offset="0.3876" stop-color="#6A73DF"/>
<stop offset="0.6134" stop-color="#8289E8"/>
<stop offset="0.849" stop-color="#A3A7F5"/>
<stop offset="1" stop-color="#BCBEFF"/>
</linearGradient>
<linearGradient id="paint3_linear_53_319" x1="127.098" y1="93.5731" x2="206.794" y2="93.5731" gradientUnits="userSpaceOnUse">
<stop stop-color="#C0BFF6"/>
<stop offset="0.2938" stop-color="#C5C4F7"/>
<stop offset="0.6399" stop-color="#D3D2F9"/>
<stop offset="1" stop-color="#E9E9FD"/>
</linearGradient>
<linearGradient id="paint4_linear_53_319" x1="121.927" y1="87.4456" x2="142.327" y2="87.4456" gradientUnits="userSpaceOnUse">
<stop stop-color="#C0BFF6"/>
<stop offset="0.2938" stop-color="#C5C4F7"/>
<stop offset="0.6399" stop-color="#D3D2F9"/>
<stop offset="1" stop-color="#E9E9FD"/>
</linearGradient>
<linearGradient id="paint5_linear_53_319" x1="123.522" y1="83.7722" x2="179.921" y2="83.7722" gradientUnits="userSpaceOnUse">
<stop stop-color="#C0BFF6"/>
<stop offset="0.2938" stop-color="#C5C4F7"/>
<stop offset="0.6399" stop-color="#D3D2F9"/>
<stop offset="1" stop-color="#E9E9FD"/>
</linearGradient>
<linearGradient id="paint6_linear_53_319" x1="123.523" y1="98.2247" x2="133.207" y2="98.2247" gradientUnits="userSpaceOnUse">
<stop stop-color="#5761D7"/>
<stop offset="0.1779" stop-color="#5C66D9"/>
<stop offset="0.3876" stop-color="#6A73DF"/>
<stop offset="0.6134" stop-color="#8289E8"/>
<stop offset="0.849" stop-color="#A3A7F5"/>
<stop offset="1" stop-color="#BCBEFF"/>
</linearGradient>
<linearGradient id="paint7_linear_53_319" x1="298.655" y1="96.2272" x2="219.002" y2="96.2272" gradientUnits="userSpaceOnUse">
<stop stop-color="#5761D7"/>
<stop offset="0.1779" stop-color="#5C66D9"/>
<stop offset="0.3876" stop-color="#6A73DF"/>
<stop offset="0.6134" stop-color="#8289E8"/>
<stop offset="0.849" stop-color="#A3A7F5"/>
<stop offset="1" stop-color="#BCBEFF"/>
</linearGradient>
<linearGradient id="paint8_linear_53_319" x1="271.891" y1="93.5734" x2="192.195" y2="93.5734" gradientUnits="userSpaceOnUse">
<stop stop-color="#C0BFF6"/>
<stop offset="0.2938" stop-color="#C5C4F7"/>
<stop offset="0.6399" stop-color="#D3D2F9"/>
<stop offset="1" stop-color="#E9E9FD"/>
</linearGradient>
<linearGradient id="paint9_linear_53_319" x1="277.063" y1="87.4456" x2="256.663" y2="87.4456" gradientUnits="userSpaceOnUse">
<stop stop-color="#C0BFF6"/>
<stop offset="0.2938" stop-color="#C5C4F7"/>
<stop offset="0.6399" stop-color="#D3D2F9"/>
<stop offset="1" stop-color="#E9E9FD"/>
</linearGradient>
<linearGradient id="paint10_linear_53_319" x1="275.467" y1="83.7724" x2="219.068" y2="83.7724" gradientUnits="userSpaceOnUse">
<stop stop-color="#C0BFF6"/>
<stop offset="0.2938" stop-color="#C5C4F7"/>
<stop offset="0.6399" stop-color="#D3D2F9"/>
<stop offset="1" stop-color="#E9E9FD"/>
</linearGradient>
<linearGradient id="paint11_linear_53_319" x1="275.466" y1="98.2247" x2="265.782" y2="98.2247" gradientUnits="userSpaceOnUse">
<stop stop-color="#5761D7"/>
<stop offset="0.1779" stop-color="#5C66D9"/>
<stop offset="0.3876" stop-color="#6A73DF"/>
<stop offset="0.6134" stop-color="#8289E8"/>
<stop offset="0.849" stop-color="#A3A7F5"/>
<stop offset="1" stop-color="#BCBEFF"/>
</linearGradient>
<linearGradient id="paint12_linear_53_319" x1="222.224" y1="137.618" x2="222.224" y2="106.579" gradientUnits="userSpaceOnUse">
<stop stop-color="#C0BFF6"/>
<stop offset="0.2938" stop-color="#C5C4F7"/>
<stop offset="0.6399" stop-color="#D3D2F9"/>
<stop offset="1" stop-color="#E9E9FD"/>
</linearGradient>
<linearGradient id="paint13_linear_53_319" x1="222.224" y1="111.881" x2="222.224" y2="80.841" gradientUnits="userSpaceOnUse">
<stop stop-color="#C0BFF6"/>
<stop offset="0.2938" stop-color="#C5C4F7"/>
<stop offset="0.6399" stop-color="#D3D2F9"/>
<stop offset="1" stop-color="#E9E9FD"/>
</linearGradient>
<radialGradient id="paint14_radial_53_319" cx="0" cy="0" r="1" gradientUnits="userSpaceOnUse" gradientTransform="translate(213.964 78.2839) scale(1.17856 1.17763)">
<stop stop-color="#FF2C9C"/>
<stop offset="0.0300632" stop-color="#F62F9F"/>
<stop offset="0.2023" stop-color="#C63EB0"/>
<stop offset="0.3737" stop-color="#9E4BBE"/>
<stop offset="0.5413" stop-color="#7F54C9"/>
<stop offset="0.7039" stop-color="#695BD1"/>
<stop offset="0.8594" stop-color="#5C60D5"/>
<stop offset="1" stop-color="#5761D7"/>
</radialGradient>
<linearGradient id="paint15_linear_53_319" x1="209.894" y1="127.519" x2="267.29" y2="127.519" gradientUnits="userSpaceOnUse">
<stop stop-color="#C0BFF6"/>
<stop offset="0.2938" stop-color="#C5C4F7"/>
<stop offset="0.6399" stop-color="#D3D2F9"/>
<stop offset="1" stop-color="#E9E9FD"/>
</linearGradient>
<linearGradient id="paint16_linear_53_319" x1="209.894" y1="142.226" x2="219.75" y2="142.226" gradientUnits="userSpaceOnUse">
<stop stop-color="#5761D7"/>
<stop offset="0.1779" stop-color="#5C66D9"/>
<stop offset="0.3876" stop-color="#6A73DF"/>
<stop offset="0.6134" stop-color="#8289E8"/>
<stop offset="0.849" stop-color="#A3A7F5"/>
<stop offset="1" stop-color="#BCBEFF"/>
</linearGradient>
<linearGradient id="paint17_linear_53_319" x1="217.584" y1="158.759" x2="298.645" y2="158.759" gradientUnits="userSpaceOnUse">
<stop stop-color="#5761D7"/>
<stop offset="0.1779" stop-color="#5C66D9"/>
<stop offset="0.3876" stop-color="#6A73DF"/>
<stop offset="0.6134" stop-color="#8289E8"/>
<stop offset="0.849" stop-color="#A3A7F5"/>
<stop offset="1" stop-color="#BCBEFF"/>
</linearGradient>
<linearGradient id="paint18_linear_53_319" x1="244.821" y1="156.059" x2="325.926" y2="156.059" gradientUnits="userSpaceOnUse">
<stop stop-color="#C0BFF6"/>
<stop offset="0.2938" stop-color="#C5C4F7"/>
<stop offset="0.6399" stop-color="#D3D2F9"/>
<stop offset="1" stop-color="#E9E9FD"/>
</linearGradient>
<linearGradient id="paint19_linear_53_319" x1="258.556" y1="160.659" x2="279.316" y2="160.659" gradientUnits="userSpaceOnUse">
<stop stop-color="#C0BFF6"/>
<stop offset="0.2938" stop-color="#C5C4F7"/>
<stop offset="0.6399" stop-color="#D3D2F9"/>
<stop offset="1" stop-color="#E9E9FD"/>
</linearGradient>
<linearGradient id="paint20_linear_53_319" x1="213.834" y1="138.096" x2="294.939" y2="138.096" gradientUnits="userSpaceOnUse">
<stop stop-color="#C0BFF6"/>
<stop offset="0.2938" stop-color="#C5C4F7"/>
<stop offset="0.6399" stop-color="#D3D2F9"/>
<stop offset="1" stop-color="#E9E9FD"/>
</linearGradient>
<linearGradient id="paint21_linear_53_319" x1="208.496" y1="132.147" x2="229.257" y2="132.147" gradientUnits="userSpaceOnUse">
<stop stop-color="#C0BFF6"/>
<stop offset="0.2938" stop-color="#C5C4F7"/>
<stop offset="0.6399" stop-color="#D3D2F9"/>
<stop offset="1" stop-color="#E9E9FD"/>
</linearGradient>
<linearGradient id="paint22_linear_53_319" x1="102.959" y1="163.808" x2="179.368" y2="163.808" gradientUnits="userSpaceOnUse">
<stop stop-color="#5761D7"/>
<stop offset="0.1406" stop-color="#5C60D5"/>
<stop offset="0.2961" stop-color="#695BD1"/>
<stop offset="0.4587" stop-color="#7F54C9"/>
<stop offset="0.6263" stop-color="#9E4BBE"/>
<stop offset="0.7977" stop-color="#C63EB0"/>
<stop offset="0.9699" stop-color="#F62F9F"/>
<stop offset="1" stop-color="#FF2C9C"/>
</linearGradient>
<linearGradient id="paint23_linear_53_319" x1="189.095" y1="127.519" x2="131.699" y2="127.519" gradientUnits="userSpaceOnUse">
<stop stop-color="#C0BFF6"/>
<stop offset="0.2938" stop-color="#C5C4F7"/>
<stop offset="0.6399" stop-color="#D3D2F9"/>
<stop offset="1" stop-color="#E9E9FD"/>
</linearGradient>
<linearGradient id="paint24_linear_53_319" x1="189.095" y1="142.226" x2="179.239" y2="142.226" gradientUnits="userSpaceOnUse">
<stop stop-color="#5761D7"/>
<stop offset="0.1779" stop-color="#5C66D9"/>
<stop offset="0.3876" stop-color="#6A73DF"/>
<stop offset="0.6134" stop-color="#8289E8"/>
<stop offset="0.849" stop-color="#A3A7F5"/>
<stop offset="1" stop-color="#BCBEFF"/>
</linearGradient>
<linearGradient id="paint25_linear_53_319" x1="181.406" y1="158.759" x2="100.344" y2="158.759" gradientUnits="userSpaceOnUse">
<stop stop-color="#5761D7"/>
<stop offset="0.1779" stop-color="#5C66D9"/>
<stop offset="0.3876" stop-color="#6A73DF"/>
<stop offset="0.6134" stop-color="#8289E8"/>
<stop offset="0.849" stop-color="#A3A7F5"/>
<stop offset="1" stop-color="#BCBEFF"/>
</linearGradient>
<linearGradient id="paint26_linear_53_319" x1="154.168" y1="156.059" x2="73.0633" y2="156.059" gradientUnits="userSpaceOnUse">
<stop stop-color="#C0BFF6"/>
<stop offset="0.2938" stop-color="#C5C4F7"/>
<stop offset="0.6399" stop-color="#D3D2F9"/>
<stop offset="1" stop-color="#E9E9FD"/>
</linearGradient>
<linearGradient id="paint27_linear_53_319" x1="140.434" y1="160.659" x2="119.673" y2="160.659" gradientUnits="userSpaceOnUse">
<stop stop-color="#C0BFF6"/>
<stop offset="0.2938" stop-color="#C5C4F7"/>
<stop offset="0.6399" stop-color="#D3D2F9"/>
<stop offset="1" stop-color="#E9E9FD"/>
</linearGradient>
<linearGradient id="paint28_linear_53_319" x1="185.155" y1="138.096" x2="104.05" y2="138.096" gradientUnits="userSpaceOnUse">
<stop stop-color="#C0BFF6"/>
<stop offset="0.2938" stop-color="#C5C4F7"/>
<stop offset="0.6399" stop-color="#D3D2F9"/>
<stop offset="1" stop-color="#E9E9FD"/>
</linearGradient>
<linearGradient id="paint29_linear_53_319" x1="190.493" y1="132.147" x2="169.733" y2="132.147" gradientUnits="userSpaceOnUse">
<stop stop-color="#C0BFF6"/>
<stop offset="0.2938" stop-color="#C5C4F7"/>
<stop offset="0.6399" stop-color="#D3D2F9"/>
<stop offset="1" stop-color="#E9E9FD"/>
</linearGradient>
<linearGradient id="paint30_linear_53_319" x1="199.495" y1="99.033" x2="199.495" y2="-15" gradientUnits="userSpaceOnUse">
<stop stop-color="#42E8E0"/>
<stop offset="0.1055" stop-color="#37B6BF"/>
<stop offset="0.2197" stop-color="#2C87A1"/>
<stop offset="0.338" stop-color="#235F87" stop-opacity="0.91"/>
<stop offset="0.4587" stop-color="#1C3F72" stop-opacity="0.74"/>
<stop offset="0.5824" stop-color="#162561" stop-opacity="0.69"/>
<stop offset="0.7105" stop-color="#121355" stop-opacity="0.6"/>
<stop offset="0.8458" stop-color="#10084E" stop-opacity="0"/>
<stop offset="1" stop-color="#0F054C" stop-opacity="0"/>
</linearGradient>
<clipPath id="clip0_53_319">
<rect x="10" y="16" width="300" height="191" rx="10" fill="white"/>
</clipPath>
</defs>
</svg>
