<svg width="132" height="16" viewBox="0 0 132 16" fill="none" xmlns="http://www.w3.org/2000/svg">
<path d="M0.606 16V0.489999H3.444L8.68 10.016L13.894 0.489999H16.688V16H13.586V6.54L9.582 13.668H7.668L3.686 6.606V16H0.606ZM19.8335 16V0.489999H30.4595V3.152H23.0895V6.782H29.9755V9.466H23.0895V13.338H30.4595V16H19.8335ZM33.1538 16V0.489999H36.5638V16H33.1538ZM39.6636 16V0.489999H42.1936L49.9376 10.368V0.489999H53.1056V16H50.5976L42.8316 6.1V16H39.6636ZM62.3951 16V0.489999H65.2331L70.4691 10.016L75.6831 0.489999H78.4771V16H75.3751V6.54L71.3711 13.668H69.4571L65.4751 6.606V16H62.3951ZM81.6225 16V0.489999H85.0325V16H81.6225ZM88.1323 16V0.489999H90.6623L98.4063 10.368V0.489999H101.574V16H99.0663L91.3003 6.1V16H88.1323ZM104.697 16V0.489999H115.323V3.152H107.953V6.782H114.839V9.466H107.953V13.338H115.323V16H104.697ZM118.017 16V0.489999H125.101C126.832 0.489999 128.166 0.907999 129.105 1.744C130.044 2.58 130.513 3.746 130.513 5.242C130.513 6.40067 130.212 7.36867 129.611 8.146C129.024 8.90867 128.181 9.42933 127.081 9.708C127.858 9.94267 128.496 10.5073 128.995 11.402L131.503 16H127.741L125.057 11.05C124.837 10.654 124.566 10.3827 124.243 10.236C123.92 10.0747 123.539 9.994 123.099 9.994H121.427V16H118.017ZM121.427 7.53H124.485C126.318 7.53 127.235 6.79667 127.235 5.33C127.235 3.878 126.318 3.152 124.485 3.152H121.427V7.53Z" fill="white"/>
</svg>
