<svg width="40" height="40" viewBox="0 0 40 40" fill="none" xmlns="http://www.w3.org/2000/svg">
<rect width="40" height="40" rx="20" fill="#F0F5FB"/>
<g clip-path="url(#clip0_38_191)">
<path fill-rule="evenodd" clip-rule="evenodd" d="M24.5405 18.3717C24.5405 21.7786 21.7786 24.5405 18.3717 24.5405C14.9648 24.5405 12.203 21.7786 12.203 18.3717C12.203 14.9648 14.9648 12.203 18.3717 12.203C21.7786 12.203 24.5405 14.9648 24.5405 18.3717ZM24.607 23.3342C25.692 21.9728 26.3405 20.248 26.3405 18.3717C26.3405 13.9707 22.7727 10.403 18.3717 10.403C13.9707 10.403 10.403 13.9707 10.403 18.3717C10.403 22.7727 13.9707 26.3405 18.3717 26.3405C20.248 26.3405 21.9728 25.692 23.3342 24.607L28.311 29.5838C28.6624 29.9352 29.2323 29.9352 29.5838 29.5838C29.9352 29.2323 29.9352 28.6624 29.5838 28.311L24.607 23.3342Z" fill="white"/>
<path fill-rule="evenodd" clip-rule="evenodd" d="M24.5405 18.3717C24.5405 21.7786 21.7786 24.5405 18.3717 24.5405C14.9648 24.5405 12.203 21.7786 12.203 18.3717C12.203 14.9648 14.9648 12.203 18.3717 12.203C21.7786 12.203 24.5405 14.9648 24.5405 18.3717ZM24.607 23.3342C25.692 21.9728 26.3405 20.248 26.3405 18.3717C26.3405 13.9707 22.7727 10.403 18.3717 10.403C13.9707 10.403 10.403 13.9707 10.403 18.3717C10.403 22.7727 13.9707 26.3405 18.3717 26.3405C20.248 26.3405 21.9728 25.692 23.3342 24.607L28.311 29.5838C28.6624 29.9352 29.2323 29.9352 29.5838 29.5838C29.9352 29.2323 29.9352 28.6624 29.5838 28.311L24.607 23.3342Z" fill="url(#paint0_linear_38_191)"/>
</g>
<defs>
<linearGradient id="paint0_linear_38_191" x1="9.89192" y1="36.7634" x2="29.7272" y2="30.9115" gradientUnits="userSpaceOnUse">
<stop stop-color="#0D748B"/>
<stop offset="1" stop-color="#1A0B73"/>
</linearGradient>
<clipPath id="clip0_38_191">
<rect width="20" height="20" fill="white" transform="translate(10 10)"/>
</clipPath>
</defs>
</svg>
