<svg width="36" height="36" viewBox="0 0 36 36" fill="none" xmlns="http://www.w3.org/2000/svg">
<path d="M18 0C8.05887 0 0 8.05887 0 18C0 27.9411 8.05887 36 18 36C27.9411 36 36 27.9411 36 18C36 8.05887 27.9411 0 18 0ZM27.3557 11.3861L24.1587 26.6484C24.1201 26.833 24.0356 27.005 23.9132 27.1484C23.7907 27.2918 23.6342 27.4022 23.4579 27.4694C23.2817 27.5365 23.0914 27.5583 22.9045 27.5327C22.7176 27.5071 22.5402 27.435 22.3885 27.3229L17.7383 23.8874L14.921 26.5452C14.8841 26.58 14.8407 26.6071 14.7932 26.6249C14.7458 26.6427 14.6952 26.6509 14.6446 26.649C14.5939 26.6471 14.5441 26.6351 14.4982 26.6137C14.4522 26.5924 14.4109 26.562 14.3768 26.5245L14.3163 26.458L14.8058 21.7207L23.6289 13.6593C23.6725 13.6195 23.6996 13.5648 23.7049 13.506C23.7102 13.4472 23.6932 13.3885 23.6574 13.3416C23.6215 13.2946 23.5694 13.2628 23.5113 13.2525C23.4531 13.2421 23.3932 13.2539 23.3433 13.2855L12.0596 20.4271L7.2 18.795C7.07078 18.7516 6.95817 18.6693 6.87759 18.5593C6.79702 18.4494 6.75245 18.3172 6.74998 18.1809C6.74752 18.0446 6.78728 17.9109 6.86383 17.7981C6.94037 17.6853 7.04994 17.599 7.1775 17.5509L26.1914 10.3883C26.3381 10.3331 26.4969 10.3183 26.6512 10.3455C26.8056 10.3726 26.9498 10.4408 27.0688 10.5428C27.1877 10.6447 27.2772 10.7768 27.3276 10.9252C27.3781 11.0735 27.3878 11.2327 27.3557 11.3861Z" fill="white"/>
<path d="M18 0C8.05887 0 0 8.05887 0 18C0 27.9411 8.05887 36 18 36C27.9411 36 36 27.9411 36 18C36 8.05887 27.9411 0 18 0ZM27.3557 11.3861L24.1587 26.6484C24.1201 26.833 24.0356 27.005 23.9132 27.1484C23.7907 27.2918 23.6342 27.4022 23.4579 27.4694C23.2817 27.5365 23.0914 27.5583 22.9045 27.5327C22.7176 27.5071 22.5402 27.435 22.3885 27.3229L17.7383 23.8874L14.921 26.5452C14.8841 26.58 14.8407 26.6071 14.7932 26.6249C14.7458 26.6427 14.6952 26.6509 14.6446 26.649C14.5939 26.6471 14.5441 26.6351 14.4982 26.6137C14.4522 26.5924 14.4109 26.562 14.3768 26.5245L14.3163 26.458L14.8058 21.7207L23.6289 13.6593C23.6725 13.6195 23.6996 13.5648 23.7049 13.506C23.7102 13.4472 23.6932 13.3885 23.6574 13.3416C23.6215 13.2946 23.5694 13.2628 23.5113 13.2525C23.4531 13.2421 23.3932 13.2539 23.3433 13.2855L12.0596 20.4271L7.2 18.795C7.07078 18.7516 6.95817 18.6693 6.87759 18.5593C6.79702 18.4494 6.75245 18.3172 6.74998 18.1809C6.74752 18.0446 6.78728 17.9109 6.86383 17.7981C6.94037 17.6853 7.04994 17.599 7.1775 17.5509L26.1914 10.3883C26.3381 10.3331 26.4969 10.3183 26.6512 10.3455C26.8056 10.3726 26.9498 10.4408 27.0688 10.5428C27.1877 10.6447 27.2772 10.7768 27.3276 10.9252C27.3781 11.0735 27.3878 11.2327 27.3557 11.3861Z" fill="url(#paint0_linear_53_870)"/>
<defs>
<linearGradient id="paint0_linear_53_870" x1="-0.946153" y1="48.8045" x2="35.7775" y2="37.9702" gradientUnits="userSpaceOnUse">
<stop stop-color="#0D748B"/>
<stop offset="1" stop-color="#1A0B73"/>
</linearGradient>
</defs>
</svg>
