<svg width="133" height="126" viewBox="0 0 133 126" fill="none" xmlns="http://www.w3.org/2000/svg">
<path opacity="0.5" d="M117.241 78.7075L121.339 81.0912V90.6264L117.241 88.2426V78.7075Z" fill="#5CFFF3"/>
<path opacity="0.2" d="M113.143 81.0912L117.241 83.475V88.2425L113.143 85.8588V81.0912Z" fill="#5CFFF3"/>
<path opacity="0.5" d="M109.045 64.3622L113.143 66.746V85.8588L109.045 83.475V64.3622Z" fill="#5CFFF3"/>
<path opacity="0.2" d="M104.947 57.2108L109.045 59.5946V83.475L104.947 81.0912V57.2108Z" fill="#5CFFF3"/>
<path opacity="0.5" d="M100.849 59.5946L104.947 61.9784V81.0912L100.849 78.7074V59.5946Z" fill="#5CFFF3"/>
<path opacity="0.2" d="M96.7505 42.9081L100.849 45.2919V78.7074L96.7505 76.3236V42.9081Z" fill="#5CFFF3"/>
<path opacity="0.5" d="M92.6523 45.2919L96.7505 47.6757V76.3236L92.6523 73.8973V45.2919Z" fill="#5CFFF3"/>
<path opacity="0.2" d="M88.5542 47.6757L92.6524 50.0594V73.8973L88.5542 71.5135V47.6757Z" fill="#5CFFF3"/>
<path opacity="0.5" d="M84.4558 35.7568L88.554 38.1406V71.5135L84.4558 69.1297V35.7568Z" fill="#5CFFF3"/>
<path opacity="0.2" d="M80.3577 23.8378L84.4558 26.2216V69.1297L80.3577 66.7459V23.8378Z" fill="#5CFFF3"/>
<path opacity="0.5" d="M76.2595 26.2216L80.3577 28.6054V66.7459L76.2595 64.3622V26.2216Z" fill="#5CFFF3"/>
<path opacity="0.2" d="M72.1614 14.3027L76.2595 16.6865V64.3621L72.1614 61.9784V14.3027Z" fill="#5CFFF3"/>
<path opacity="0.5" d="M68.0632 11.9189L72.1614 14.3027V61.9784L68.0632 59.5946V11.9189Z" fill="#5CFFF3"/>
<path opacity="0.2" d="M63.9651 0L68.0633 2.38378V59.5946L63.9651 57.2108V0Z" fill="#5CFFF3"/>
<path opacity="0.4" d="M67.9789 126C88.7225 126 105.538 116.223 105.538 104.163C105.538 92.1025 88.7225 82.3257 67.9789 82.3257C47.2354 82.3257 30.4194 92.1025 30.4194 104.163C30.4194 116.223 47.2354 126 67.9789 126Z" fill="#0F054C"/>
<path d="M67.9788 117.316C91.5924 117.316 110.735 106.186 110.735 92.4568C110.735 78.7273 91.5924 67.5973 67.9788 67.5973C44.3652 67.5973 25.2227 78.7273 25.2227 92.4568C25.2227 106.186 44.3652 117.316 67.9788 117.316Z" fill="url(#paint0_linear_46_168)"/>
<path opacity="0.48" d="M110.735 84.2412H109.679C107.947 79.8142 104.144 75.6 98.2293 72.152C81.5409 62.4466 54.5015 62.4466 37.7708 72.152C32.1939 75.3872 28.476 79.346 26.617 83.5176H25.265V89.0088C24.9271 95.6068 29.1097 102.29 37.7708 107.313C54.4592 117.018 81.4987 117.018 98.2293 107.313C106.595 102.46 110.735 96.1176 110.735 89.7324V84.2412Z" fill="url(#paint1_linear_46_168)"/>
<path opacity="0.48" d="M110.735 84.2412H109.679C107.947 79.8142 104.144 75.6 98.2293 72.152C81.5409 62.4466 54.5015 62.4466 37.7708 72.152C32.1939 75.3872 28.476 79.346 26.617 83.5176H25.265V89.0088C24.9271 95.6068 29.1097 102.29 37.7708 107.313C54.4592 117.018 81.4987 117.018 98.2293 107.313C106.595 102.46 110.735 96.1176 110.735 89.7324V84.2412Z" fill="url(#paint2_linear_46_168)"/>
<path opacity="0.48" d="M110.735 84.2412H109.679C107.947 79.8142 104.144 75.6 98.2293 72.152C81.5409 62.4466 54.5015 62.4466 37.7708 72.152C32.1939 75.3872 28.476 79.346 26.617 83.5176H25.265V89.0088C24.9271 95.6068 29.1097 102.29 37.7708 107.313C54.4592 117.018 81.4987 117.018 98.2293 107.313C106.595 102.46 110.735 96.1176 110.735 89.7324V84.2412Z" fill="url(#paint3_linear_46_168)"/>
<path d="M110.735 82.1128H109.679C107.947 77.6858 104.144 73.4716 98.2293 70.0236C81.5409 60.3182 54.5015 60.3182 37.7708 70.0236C32.1939 73.2588 28.476 77.2175 26.617 81.3892H25.265V86.8804C24.9271 93.4783 29.1097 100.161 37.7708 105.184C54.4592 114.89 81.4987 114.89 98.2293 105.184C106.595 100.332 110.735 93.9892 110.735 87.604V82.1128Z" fill="url(#paint4_linear_46_168)"/>
<path opacity="0.48" d="M109.679 82.1129C109.637 81.9426 109.552 81.8149 109.51 81.6446V78.0264H107.271V77.771C106.721 77.0047 106.088 76.2385 105.369 75.5149V78.0264H104.102V74.2804C103.51 73.727 102.877 73.2162 102.201 72.6629V78.0264H100.933V71.7264C100.342 71.3007 99.6658 70.875 99.032 70.4919V78.0264H97.7646V69.7257C97.1308 69.3852 96.4971 69.0446 95.8634 68.7041V78.0264H94.5959V68.1081C93.9622 67.8102 93.3284 67.5547 92.6524 67.2568V78.0264H91.3849V69.3H89.4415V78.0264H88.174V71.7264H86.2306V78.0689H84.9631V74.1527H83.0196V78.0689H81.7944V76.5365H79.8087V78.0689H56.2337V76.5365H54.2902V78.0689H53.065V74.1527H51.0793V78.0689H49.8118V71.7264H47.8683V78.0689H46.6009V69.3426H44.6574V78.0689H43.3899V67.2993C42.7562 67.5548 42.0802 67.8527 41.4465 68.1507V78.0689H40.179V68.7466C39.5452 69.0872 38.8693 69.4277 38.2778 69.7683V78.0689H37.0103V70.4919C36.3343 70.9176 35.7006 71.3007 35.1091 71.7264V78.0264H33.8416V72.6629C33.1656 73.1737 32.5319 73.727 31.9404 74.2804V78.0689H30.6729V75.5575C29.9547 76.2811 29.321 77.0473 28.7717 77.8135V78.1115H26.5325V81.4318H25.603V90.6689C25.941 92.3291 26.5748 93.9892 27.5042 95.5642V89.775H28.814V97.5223C29.3632 98.2885 29.9969 99.0122 30.7152 99.7784V89.8176H31.9827V101.055C32.5741 101.609 33.2079 102.12 33.8839 102.673V89.8602H35.1513V103.609C35.7428 104.035 36.4188 104.461 37.0525 104.844V89.8176H38.32V105.568C38.9538 105.908 39.5875 106.249 40.2212 106.589V89.8176H41.4887V107.185C42.1224 107.483 42.7562 107.739 43.4322 108.036V89.8176H44.6996V108.547C45.3334 108.803 45.9671 109.016 46.6431 109.228V89.8176H47.9106V109.612C48.5443 109.824 49.1781 109.995 49.854 110.165V89.775H51.1215V110.463C51.7553 110.633 52.4312 110.761 53.065 110.931V89.775H54.2902V111.187C54.9239 111.314 55.5999 111.442 56.2337 111.527V89.775H57.4589V111.74C58.0926 111.825 58.7686 111.91 59.4023 111.995V89.775H60.6276V112.123C61.2613 112.208 61.9373 112.251 62.571 112.293V89.775H63.7963V112.378C64.4722 112.421 65.106 112.464 65.782 112.464V89.775H67.0072V112.506C67.6832 112.506 68.3169 112.506 68.9929 112.506V89.775H70.2181V112.464C70.8941 112.464 71.5279 112.421 72.2038 112.378V89.775H73.4291V112.293C74.105 112.251 74.7388 112.208 75.3725 112.123V89.775H76.5977V111.995C77.2737 111.91 77.9075 111.825 78.5412 111.74V89.775H79.7664V111.527C80.4002 111.399 81.0762 111.314 81.7099 111.187V89.775H82.9351V110.889C83.5689 110.761 84.2448 110.591 84.8786 110.42V89.7324H86.1461V110.122C86.7798 109.952 87.4558 109.739 88.0895 109.569V89.775H89.357V109.186C89.9907 108.973 90.6667 108.718 91.3005 108.505V89.8176H92.5679V108.036C93.2017 107.781 93.8776 107.483 94.5114 107.185V89.8176H95.7789V106.589C96.4126 106.249 97.0886 105.908 97.6801 105.568V89.8176H98.9475V104.801C99.6235 104.376 100.257 103.993 100.849 103.567V89.8176H102.116V102.63C102.792 102.12 103.426 101.566 104.017 101.013V89.8176H105.285V99.7784C106.003 99.0547 106.637 98.2885 107.186 97.5223V89.8176H108.496V95.5642C109.425 93.9466 110.059 92.2865 110.397 90.6264V82.198L109.679 82.1129Z" fill="url(#paint5_linear_46_168)"/>
<path d="M67.9788 106.972C91.5924 106.972 110.735 95.8423 110.735 82.1128C110.735 68.3833 91.5924 57.2534 67.9788 57.2534C44.3652 57.2534 25.2227 68.3833 25.2227 82.1128C25.2227 95.8423 44.3652 106.972 67.9788 106.972Z" fill="url(#paint6_linear_46_168)"/>
<path opacity="0.3" d="M68.0212 57.2534C58.3461 57.2534 48.6711 59.1689 40.7705 62.9574L28.0112 90.8817C30.0814 94.0743 33.3346 97.0966 37.7708 99.6932C40.517 101.311 43.5589 102.63 46.8121 103.695L68.0212 57.2534Z" fill="#42E8E0"/>
<path opacity="0.3" d="M79.9776 58.275L58.0503 106.334C63.2892 107.057 68.7393 107.185 74.0627 106.759L94.2578 62.5318C89.9062 60.5311 85.0475 59.1264 79.9776 58.275Z" fill="#42E8E0"/>
<g opacity="0.05">
<path d="M67.9788 104.12C88.8856 104.12 105.834 94.2672 105.834 82.1128C105.834 69.9585 88.8856 60.1054 67.9788 60.1054C47.0719 60.1054 30.1235 69.9585 30.1235 82.1128C30.1235 94.2672 47.0719 104.12 67.9788 104.12Z" fill="url(#paint7_linear_46_168)"/>
<path d="M0.380242 82.0277L0 81.8149L65.9087 43.4615L66.3312 43.6743L0.380242 82.0277Z" fill="#42E8E0"/>
<path d="M1.56312 82.7088L1.14062 82.496L67.0915 44.1426L67.4718 44.3554L1.56312 82.7088Z" fill="#42E8E0"/>
<path d="M2.70397 83.3898L2.32373 83.1344L68.2324 44.7811L68.6549 45.0365L2.70397 83.3898Z" fill="#42E8E0"/>
<path d="M3.88685 84.0709L3.46436 83.8155L69.4153 45.4622L69.7955 45.7176L3.88685 84.0709Z" fill="#42E8E0"/>
<path d="M5.0277 84.752L4.64746 84.4966L70.5561 46.1432L70.9786 46.3987L5.0277 84.752Z" fill="#42E8E0"/>
<path d="M6.21058 85.4331L5.78809 85.1777L71.739 46.8243L72.1192 47.0797L6.21058 85.4331Z" fill="#42E8E0"/>
<path d="M7.35143 86.0716L6.97119 85.8588L72.8799 47.5054L73.3023 47.7183L7.35143 86.0716Z" fill="#42E8E0"/>
<path d="M8.53431 86.7527L8.11182 86.5398L74.0627 48.1865L74.443 48.3993L8.53431 86.7527Z" fill="#42E8E0"/>
<path d="M9.67516 87.4338L9.29492 87.2209L75.2036 48.8676L75.6261 49.0804L9.67516 87.4338Z" fill="#42E8E0"/>
<path d="M10.858 88.1149L10.4355 87.902L76.3865 49.5486L76.7667 49.7615L10.858 88.1149Z" fill="#42E8E0"/>
<path d="M11.9987 88.7959L11.6184 88.5405L77.5271 50.1871L77.9496 50.4425L11.9987 88.7959Z" fill="#42E8E0"/>
<path d="M13.1818 89.477L12.7593 89.2216L78.7102 50.8682L79.0904 51.1236L13.1818 89.477Z" fill="#42E8E0"/>
<path d="M14.3224 90.1581L13.9421 89.9027L79.8508 51.5493L80.2733 51.8047L14.3224 90.1581Z" fill="#42E8E0"/>
<path d="M15.5055 90.8392L15.083 90.5838L81.0339 52.2304L81.4142 52.4858L15.5055 90.8392Z" fill="#42E8E0"/>
<path d="M16.6461 91.4777L16.2659 91.2649L82.1745 52.9115L82.597 53.1243L16.6461 91.4777Z" fill="#42E8E0"/>
<path d="M17.8292 92.1588L17.4067 91.946L83.3576 53.5926L83.7379 53.8054L17.8292 92.1588Z" fill="#42E8E0"/>
<path d="M18.9698 92.8398L18.5896 92.627L84.4983 54.2736L84.9208 54.4865L18.9698 92.8398Z" fill="#42E8E0"/>
<path d="M20.153 93.521L19.7305 93.2656L85.6814 54.9122L86.0616 55.1676L20.153 93.521Z" fill="#42E8E0"/>
<path d="M21.2936 94.202L20.9133 93.9466L86.822 55.5933L87.2445 55.8487L21.2936 94.202Z" fill="#42E8E0"/>
<path d="M22.4764 94.8831L22.054 94.6277L88.0049 56.2743L88.3851 56.5297L22.4764 94.8831Z" fill="#42E8E0"/>
<path d="M23.6173 95.5642L23.2371 95.3088L89.1457 56.9554L89.5682 57.2108L23.6173 95.5642Z" fill="#42E8E0"/>
<path d="M24.8002 96.2453L24.3777 95.9899L90.3286 57.6365L90.7088 57.8919L24.8002 96.2453Z" fill="#42E8E0"/>
<path d="M25.941 96.8838L25.5608 96.6709L91.4695 58.3176L91.8919 58.5304L25.941 96.8838Z" fill="#42E8E0"/>
<path d="M27.1239 97.5649L26.7014 97.352L92.6523 58.9987L93.0326 59.2115L27.1239 97.5649Z" fill="#42E8E0"/>
<path d="M28.2648 98.246L27.8845 98.0331L93.7932 59.6797L94.2157 59.8926L28.2648 98.246Z" fill="#42E8E0"/>
<path d="M29.4476 98.927L29.0251 98.6716L94.9761 60.3182L95.3563 60.5736L29.4476 98.927Z" fill="#42E8E0"/>
<path d="M30.5885 99.6081L30.166 99.3527L96.1169 60.9993L96.5394 61.2547L30.5885 99.6081Z" fill="#42E8E0"/>
<path d="M31.7714 100.289L31.3489 100.034L97.2998 61.6804L97.68 61.9358L31.7714 100.289Z" fill="#42E8E0"/>
<path d="M32.912 100.97L32.4895 100.715L98.4404 62.3615L98.8629 62.6169L32.912 100.97Z" fill="#42E8E0"/>
<path d="M34.0951 101.651L33.6726 101.396L99.6235 63.0426L100.004 63.298L34.0951 101.651Z" fill="#42E8E0"/>
<path d="M35.2357 102.29L34.8132 102.077L100.764 63.7236L101.187 63.9365L35.2357 102.29Z" fill="#42E8E0"/>
<path d="M36.4188 102.971L35.9963 102.758L101.947 64.4047L102.327 64.6176L36.4188 102.971Z" fill="#42E8E0"/>
<path d="M37.5595 103.652L37.137 103.439L103.088 65.0858L103.51 65.2987L37.5595 103.652Z" fill="#42E8E0"/>
<path d="M38.7426 104.333L38.3201 104.078L104.271 65.7243L104.651 65.9797L38.7426 104.333Z" fill="#42E8E0"/>
<path d="M39.8832 105.014L39.4607 104.759L105.412 66.4054L105.834 66.6608L39.8832 105.014Z" fill="#42E8E0"/>
<path d="M41.066 105.695L40.6436 105.44L106.594 67.0865L106.975 67.3419L41.066 105.695Z" fill="#42E8E0"/>
<path d="M42.2069 106.376L41.7844 106.121L107.735 67.7676L108.158 68.023L42.2069 106.376Z" fill="#42E8E0"/>
<path d="M43.3898 107.057L42.9673 106.802L108.918 68.4487L109.298 68.6615L43.3898 107.057Z" fill="#42E8E0"/>
<path d="M44.5306 107.696L44.1082 107.483L110.059 69.1297L110.482 69.3425L44.5306 107.696Z" fill="#42E8E0"/>
<path d="M45.6713 108.377L45.291 108.164L111.242 69.8108L111.622 70.0236L45.6713 108.377Z" fill="#42E8E0"/>
<path d="M46.8544 109.058L46.4319 108.845L112.383 70.4919L112.805 70.7047L46.8544 109.058Z" fill="#42E8E0"/>
<path d="M47.995 109.739L47.6147 109.484L113.566 71.1304L113.946 71.3858L47.995 109.739Z" fill="#42E8E0"/>
<path d="M49.1781 110.42L48.7556 110.165L114.707 71.8115L115.129 72.0669L49.1781 110.42Z" fill="#42E8E0"/>
<path d="M50.3187 111.101L49.9385 110.846L115.847 72.4926L116.27 72.748L50.3187 111.101Z" fill="#42E8E0"/>
<path d="M51.5016 111.782L51.0791 111.527L117.03 73.1736L117.453 73.4291L51.5016 111.782Z" fill="#42E8E0"/>
<path d="M52.6424 112.421L52.2622 112.208L118.171 73.8547L118.593 74.0676L52.6424 112.421Z" fill="#42E8E0"/>
<path d="M53.8253 113.102L53.4028 112.889L119.354 74.5358L119.776 74.7487L53.8253 113.102Z" fill="#42E8E0"/>
<path d="M54.9662 113.783L54.5859 113.57L120.495 75.2169L120.917 75.4297L54.9662 113.783Z" fill="#42E8E0"/>
<path d="M56.1491 114.464L55.7266 114.251L121.677 75.8979L122.1 76.1108L56.1491 114.464Z" fill="#42E8E0"/>
<path d="M57.2899 115.145L56.9097 114.89L122.818 76.5365L123.241 76.7919L57.2899 115.145Z" fill="#42E8E0"/>
<path d="M58.4728 115.826L58.0503 115.571L124.001 77.2176L124.424 77.473L58.4728 115.826Z" fill="#42E8E0"/>
<path d="M59.6134 116.507L59.2332 116.252L125.142 77.8986L125.564 78.154L59.6134 116.507Z" fill="#42E8E0"/>
<path d="M60.7965 117.188L60.374 116.933L126.325 78.5797L126.747 78.8351L60.7965 117.188Z" fill="#42E8E0"/>
<path d="M61.9371 117.827L61.5569 117.614L127.466 79.2608L127.888 79.4736L61.9371 117.827Z" fill="#42E8E0"/>
<path d="M63.1202 118.508L62.6978 118.295L128.649 79.9419L129.071 80.1547L63.1202 118.508Z" fill="#42E8E0"/>
<path d="M64.2609 119.189L63.8806 118.976L129.789 80.623L130.212 80.8358L64.2609 119.189Z" fill="#42E8E0"/>
<path d="M65.444 119.87L65.0215 119.657L130.972 81.3041L131.353 81.5169L65.444 119.87Z" fill="#42E8E0"/>
<path d="M66.5846 120.551L66.2043 120.296L132.113 81.9426L132.535 82.198L66.5846 120.551Z" fill="#42E8E0"/>
<path d="M67.7677 121.232L67.3452 120.977L133.296 82.6237L133.676 82.8791L67.7677 121.232Z" fill="#42E8E0"/>
<path d="M68.9083 121.914L68.5281 121.658L134.437 83.3047L134.859 83.5601L68.9083 121.914Z" fill="#42E8E0"/>
<path d="M70.0914 122.595L69.6689 122.339L135.62 83.9858L136 84.2412L70.0914 122.595Z" fill="#42E8E0"/>
</g>
<path d="M41.2351 68.0656C56.0224 59.4669 79.9776 59.4669 94.7648 68.0656C101.82 72.1946 105.496 77.5156 105.834 82.8791C106.172 77.0048 102.496 71.0453 94.7648 66.5757C79.9776 57.977 56.0224 57.977 41.2351 66.5757C33.5036 71.0453 29.8279 77.0048 30.1659 82.8791C30.4616 77.473 34.1795 72.152 41.2351 68.0656Z" fill="url(#paint8_linear_46_168)"/>
<path d="M79.6819 77.473C77.4004 77.2602 75.2035 77.6433 73.091 78.5798C75.626 76.4514 75.0345 74.2804 71.3166 72.0669C71.2321 72.0244 71.1476 71.9818 71.0631 71.8966C69.7956 71.1304 68.5281 70.5771 67.2184 70.2365C65.8242 69.8534 64.5144 69.6406 63.2892 69.6406C62.064 69.6406 60.8388 69.8108 59.529 70.1514C58.8531 70.3216 58.1771 70.5345 57.5856 70.7473L55.2196 69.3426L51.713 71.3858L53.6564 72.5352C53.3184 72.7054 52.9382 72.9183 52.6002 73.1311L51.3327 73.8973L49.3893 72.748L45.8826 74.7912L47.826 75.9406L45.4178 77.3453L44.4884 77.8987L44.2349 78.0264L40.2212 80.3676L43.7279 82.4108L47.7415 80.0696L73.0488 94.798L69.0351 97.1392L72.5418 99.1825L76.5555 96.8412L77.7807 96.1602L80.1889 94.7554L82.1746 95.9048L85.6813 93.8615L84.4138 93.1379L83.6956 92.7122L86.0193 91.35L88.005 92.4993L91.5117 90.4561L90.2442 89.7325L89.2302 89.1365C90.6244 87.9021 91.3427 86.7102 91.4272 85.4757C91.5117 83.6453 89.9907 81.7723 86.8642 79.9419C86.7797 79.8994 86.7375 79.8568 86.653 79.8142C84.287 78.4095 81.9633 77.6858 79.6819 77.473ZM56.1491 76.6216L57.2898 75.9831C60.0783 74.3656 62.74 74.2804 65.3172 75.7703C66.7959 76.6216 67.6409 77.4304 67.7676 78.1541C67.8944 78.8777 67.2184 79.6865 65.6552 80.5804L64.3032 81.3892L56.1491 76.6216ZM78.6679 89.7325L68.9929 84.1135L70.3871 83.3048C71.9925 82.3683 73.4713 81.9426 74.8655 82.0277C76.2597 82.1129 77.8652 82.6662 79.6819 83.7304C81.2874 84.6669 82.1746 85.5608 82.3013 86.3696C82.4281 87.1784 81.7098 88.0298 80.1889 88.9237L78.6679 89.7325Z" fill="url(#paint9_linear_46_168)"/>
<path d="M45.8826 71.8966V74.1527L47.826 73.0459L45.8826 71.8966Z" fill="url(#paint10_linear_46_168)"/>
<path d="M51.7129 68.4912V70.7473L53.6986 69.6405L51.7129 68.4912Z" fill="url(#paint11_linear_46_168)"/>
<path d="M74.6543 73.046V75.7277L72.8799 74.621L74.6543 73.046Z" fill="url(#paint12_linear_46_168)"/>
<path d="M91.3848 82.1129V85.4331L88.7654 83.773L91.3848 82.1129Z" fill="url(#paint13_linear_46_168)"/>
<path d="M79.6819 74.6209C77.4004 74.4081 75.2035 74.7912 73.091 75.7277C75.626 73.5993 75.0345 71.4284 71.3166 69.2149C71.2321 69.1723 71.1476 69.1297 71.0631 69.0446C69.7956 68.2784 68.5281 67.725 67.2184 67.3845C65.8242 67.0014 64.5144 66.7885 63.2892 66.7885C62.064 66.7885 60.8388 66.9588 59.529 67.2993C58.8531 67.4696 58.1771 67.6824 57.5856 67.8953L55.2196 66.4905L51.713 68.5338L53.6564 69.6831C53.3184 69.8534 52.9382 70.0662 52.6002 70.2791L51.3327 71.0453L49.3893 69.8959L45.8826 71.9392L47.826 73.0885L45.4178 74.4932L44.4884 75.0466L44.2349 75.1743L40.2212 77.5155L43.7279 79.5588L47.7415 77.2176L73.0488 91.9459L69.0351 94.2872L72.5418 96.3304L76.5555 93.9892L77.7807 93.3081L80.1889 91.9034L82.1746 93.0527L85.6813 91.0095L84.4138 90.2858L83.6956 89.8601L86.0193 88.498L88.005 89.6473L91.5117 87.604L90.2442 86.8804L89.2302 86.2845C90.6244 85.05 91.3427 83.8581 91.4272 82.6237C91.5117 80.7932 89.9907 78.9203 86.8642 77.0899C86.7797 77.0473 86.7375 77.0047 86.653 76.9622C84.287 75.5574 81.9633 74.7912 79.6819 74.6209ZM56.1491 73.7696L57.2898 73.1311C60.0783 71.5135 62.74 71.4284 65.3172 72.9182C66.7959 73.7696 67.6409 74.5784 67.7676 75.302C67.8944 76.0257 67.2184 76.8345 65.6552 77.7284L64.3032 78.5372L56.1491 73.7696ZM78.6679 86.8804L68.9929 81.2615L70.3871 80.4527C71.9925 79.5162 73.4713 79.0905 74.8655 79.1757C76.2597 79.2608 77.8652 79.8142 79.6819 80.8784C81.2874 81.8149 82.1746 82.7088 82.3013 83.5176C82.4281 84.3264 81.7098 85.1777 80.1889 86.0716L78.6679 86.8804Z" fill="url(#paint14_linear_46_168)"/>
<path d="M91.4693 87.5615V90.4135L87.9626 92.4567V89.5621L91.4693 87.5615Z" fill="url(#paint15_linear_46_168)"/>
<path d="M85.639 90.9243V93.8189L82.1323 95.8196V92.9676L85.639 90.9243Z" fill="url(#paint16_linear_46_168)"/>
<path d="M72.4996 96.2878V99.1398L68.9929 97.0966V94.2446L72.4996 96.2878Z" fill="url(#paint17_linear_46_168)"/>
<path d="M40.179 77.473V80.325L43.6856 82.3682V79.5162L40.179 77.473Z" fill="url(#paint18_linear_46_168)"/>
<path d="M47.6992 80.027V77.175L43.6855 79.5162V82.3682L47.6992 80.027Z" fill="url(#paint19_linear_46_168)"/>
<path d="M47.6992 77.175V80.027L70.556 93.3081L73.0065 91.9034L47.6992 77.175Z" fill="url(#paint20_linear_46_168)"/>
<path d="M68.5282 61.425C66.965 61.425 65.444 61.0845 64.2611 60.4034C63.0781 59.7223 62.4021 58.7858 62.4021 57.7642C62.4021 56.7426 63.0781 55.8061 64.2611 55.125C66.627 53.7629 70.4717 53.7629 72.8376 55.125C74.0206 55.8061 74.6966 56.7426 74.6966 57.7642C74.6966 58.7858 74.0206 59.7223 72.8376 60.4034C71.6124 61.0845 70.0492 61.425 68.5282 61.425ZM68.5282 54.5716C67.0495 54.5716 65.613 54.9122 64.4723 55.5507C63.4161 56.1466 62.8668 56.9554 62.8668 57.7642C62.8668 58.573 63.4583 59.3818 64.4723 59.9777C66.7115 61.2973 70.3449 61.2973 72.5841 59.9777C73.6404 59.3818 74.1896 58.573 74.1896 57.7642C74.1896 56.9554 73.5981 56.1466 72.5841 55.5507C71.4434 54.8696 69.9647 54.5716 68.5282 54.5716Z" fill="#42E8E0"/>
<path d="M71.0631 59.2115C69.6689 60.0203 67.3874 60.0203 65.9932 59.2115C64.599 58.4027 64.599 57.0831 65.9932 56.2743C67.3874 55.4655 69.6689 55.4655 71.0631 56.2743C72.4573 57.0831 72.4573 58.4027 71.0631 59.2115Z" fill="#42E8E0"/>
<path d="M83.3155 50.6128L80.8228 49.123L85.0899 46.6541L87.5826 48.1013L83.3155 50.6128Z" fill="#42E8E0"/>
<path opacity="0.8" d="M78.7947 48.3142L75.626 47.3777L78.3722 44.2277L81.5409 45.1642L78.7947 48.3142Z" fill="#42E8E0"/>
<path opacity="0.6" d="M73.2601 46.9095L69.7534 46.5689L70.6829 43.121L74.2318 43.4189L73.2601 46.9095Z" fill="#42E8E0"/>
<path opacity="0.4" d="M67.2609 46.5689L63.7542 46.9095L62.8247 43.4189L66.3314 43.121L67.2609 46.5689Z" fill="#42E8E0"/>
<path opacity="0.2" d="M61.388 47.3777L58.2193 48.3142L55.4731 45.1642L58.6418 44.2277L61.388 47.3777Z" fill="#42E8E0"/>
<path opacity="0.1" d="M56.2338 49.123L53.6988 50.6128L49.4316 48.1013L51.9666 46.6541L56.2338 49.123Z" fill="#42E8E0"/>
<path opacity="0.2" d="M74.9077 54.5291L74.0205 54.0183L80.4424 50.3149L81.3296 50.8257L74.9077 54.5291Z" fill="#42E8E0"/>
<path opacity="0.4" d="M72.9222 53.55L71.7815 53.2095L75.8797 48.527L77.0204 48.8676L72.9222 53.55Z" fill="#42E8E0"/>
<path opacity="0.6" d="M70.4716 52.954L69.2041 52.8689L70.6406 47.6757L71.8658 47.7608L70.4716 52.954Z" fill="#42E8E0"/>
<path opacity="0.8" d="M67.8099 52.8689L66.5847 52.954L65.1482 47.7608L66.4157 47.6757L67.8099 52.8689Z" fill="#42E8E0"/>
<path d="M65.2328 53.2095L64.1343 53.55L60.0361 48.8676L61.1346 48.527L65.2328 53.2095Z" fill="#42E8E0"/>
<path d="M62.9937 54.0183L62.1064 54.5291L55.7268 50.8257L56.614 50.3149L62.9937 54.0183Z" fill="#42E8E0"/>
<path d="M61.3036 55.2101L60.7122 55.8486L52.6848 53.4649L53.2341 52.8264L61.3036 55.2101Z" fill="#42E8E0"/>
<path d="M60.2896 56.6149L60.0784 57.3385L51.1638 56.5297L51.3751 55.8061L60.2896 56.6149Z" fill="#42E8E0"/>
<path d="M60.0784 58.1473L60.2896 58.871L51.3751 59.7223L51.1638 58.9987L60.0784 58.1473Z" fill="#42E8E0"/>
<path d="M60.7122 59.6372L61.3036 60.3183L53.2341 62.7021L52.6848 62.0636L60.7122 59.6372Z" fill="#42E8E0"/>
<path d="M62.1064 60.9568L62.9937 61.4676L56.614 65.2135L55.7268 64.7027L62.1064 60.9568Z" fill="#42E8E0"/>
<path opacity="0.6" d="M93.6243 45.675C103.004 52.273 103.553 61.6804 95.1875 68.6189L98.5674 71.7689C110.059 63.4257 109.806 51.4216 97.8069 43.2487L93.6243 45.675Z" fill="#42E8E0"/>
<path opacity="0.2" d="M73.5981 76.4514C63.6696 77.3453 53.1495 75.6 45.5024 71.1304C43.6857 70.0663 42.1647 68.9169 40.855 67.725L35.1091 68.8744C36.7568 70.5345 38.8271 72.1521 41.2775 73.5568C50.9526 79.1757 64.5145 81.1764 76.9358 79.5588L73.5981 76.4514Z" fill="#42E8E0"/>
<path d="M30.4195 60.9142L36.1654 59.7649C35.1514 54.2737 38.2778 48.5696 45.5024 44.3554C57.5012 37.3743 76.4711 36.9912 89.2726 43.1635L93.4975 40.7372C78.3723 33.2453 55.6422 33.6284 41.3198 41.9291C32.4052 47.1223 28.7718 54.1885 30.4195 60.9142Z" fill="#42E8E0"/>
<path d="M65.0214 70.2791L62.74 68.9595L91.5539 52.2304L93.7931 53.5074L65.0214 70.2791Z" fill="#42E8E0"/>
<path opacity="0.8" d="M68.1901 72.1095L65.9509 70.8325L78.4567 63.5534L80.6959 64.8304L68.1901 72.1095Z" fill="#42E8E0"/>
<path opacity="0.6" d="M71.6123 74.1101L69.373 72.7905L89.2724 61.2122L91.5116 62.5317L71.6123 74.1101Z" fill="#42E8E0"/>
<path opacity="0.2" d="M74.9499 76.0682L72.7107 74.7486L88.2161 65.7243L90.4553 67.0439L74.9499 76.0682Z" fill="#42E8E0"/>
<defs>
<linearGradient id="paint0_linear_46_168" x1="23.9139" y1="70.0841" x2="70.0789" y2="141.702" gradientUnits="userSpaceOnUse">
<stop stop-color="#42E8E0"/>
<stop offset="0.0157138" stop-color="#40DDDA"/>
<stop offset="0.0920726" stop-color="#3AAEC0"/>
<stop offset="0.173" stop-color="#3484A9"/>
<stop offset="0.2573" stop-color="#2F6195"/>
<stop offset="0.3458" stop-color="#2B4486"/>
<stop offset="0.44" stop-color="#282E79"/>
<stop offset="0.5425" stop-color="#261E71"/>
<stop offset="0.6594" stop-color="#24156C"/>
<stop offset="0.8226" stop-color="#24126A"/>
</linearGradient>
<linearGradient id="paint1_linear_46_168" x1="18.8061" y1="89.7456" x2="103.428" y2="89.7456" gradientUnits="userSpaceOnUse">
<stop stop-color="#42E8E0"/>
<stop offset="0.1507" stop-color="#43E3E0"/>
<stop offset="0.3285" stop-color="#45D5DF"/>
<stop offset="0.5199" stop-color="#49BDDD"/>
<stop offset="0.7209" stop-color="#4E9CDB"/>
<stop offset="0.9274" stop-color="#5472D8"/>
<stop offset="1" stop-color="#5761D7"/>
</linearGradient>
<linearGradient id="paint2_linear_46_168" x1="18.8061" y1="89.7456" x2="103.428" y2="89.7456" gradientUnits="userSpaceOnUse">
<stop stop-color="#42E8E0"/>
<stop offset="0.1507" stop-color="#43E3E0"/>
<stop offset="0.3285" stop-color="#45D5DF"/>
<stop offset="0.5199" stop-color="#49BDDD"/>
<stop offset="0.7209" stop-color="#4E9CDB"/>
<stop offset="0.9274" stop-color="#5472D8"/>
<stop offset="1" stop-color="#5761D7"/>
</linearGradient>
<linearGradient id="paint3_linear_46_168" x1="18.8061" y1="89.7456" x2="103.428" y2="89.7456" gradientUnits="userSpaceOnUse">
<stop stop-color="#42E8E0"/>
<stop offset="0.1507" stop-color="#43E3E0"/>
<stop offset="0.3285" stop-color="#45D5DF"/>
<stop offset="0.5199" stop-color="#49BDDD"/>
<stop offset="0.7209" stop-color="#4E9CDB"/>
<stop offset="0.9274" stop-color="#5472D8"/>
<stop offset="1" stop-color="#5761D7"/>
</linearGradient>
<linearGradient id="paint4_linear_46_168" x1="18.8061" y1="87.615" x2="103.428" y2="87.615" gradientUnits="userSpaceOnUse">
<stop stop-color="#42E8E0"/>
<stop offset="0.0157138" stop-color="#40DDDA"/>
<stop offset="0.0920726" stop-color="#3AAEC0"/>
<stop offset="0.173" stop-color="#3484A9"/>
<stop offset="0.2573" stop-color="#2F6195"/>
<stop offset="0.3458" stop-color="#2B4486"/>
<stop offset="0.44" stop-color="#282E79"/>
<stop offset="0.5425" stop-color="#261E71"/>
<stop offset="0.6594" stop-color="#24156C"/>
<stop offset="0.8226" stop-color="#24126A"/>
</linearGradient>
<linearGradient id="paint5_linear_46_168" x1="25.5699" y1="89.8704" x2="110.435" y2="89.8704" gradientUnits="userSpaceOnUse">
<stop stop-color="#42E8E0"/>
<stop offset="0.1507" stop-color="#43E3E0"/>
<stop offset="0.3285" stop-color="#45D5DF"/>
<stop offset="0.5199" stop-color="#49BDDD"/>
<stop offset="0.7209" stop-color="#4E9CDB"/>
<stop offset="0.9274" stop-color="#5472D8"/>
<stop offset="1" stop-color="#5761D7"/>
</linearGradient>
<linearGradient id="paint6_linear_46_168" x1="23.9139" y1="59.7684" x2="70.0789" y2="131.386" gradientUnits="userSpaceOnUse">
<stop stop-color="#42E8E0"/>
<stop offset="0.0157138" stop-color="#40DDDA"/>
<stop offset="0.0920726" stop-color="#3AAEC0"/>
<stop offset="0.173" stop-color="#3484A9"/>
<stop offset="0.2573" stop-color="#2F6195"/>
<stop offset="0.3458" stop-color="#2B4486"/>
<stop offset="0.44" stop-color="#282E79"/>
<stop offset="0.5425" stop-color="#261E71"/>
<stop offset="0.6594" stop-color="#24156C"/>
<stop offset="0.8226" stop-color="#24126A"/>
</linearGradient>
<linearGradient id="paint7_linear_46_168" x1="61.3222" y1="48.5389" x2="82.7736" y2="154.945" gradientUnits="userSpaceOnUse">
<stop stop-color="#42E8E0"/>
<stop offset="0.0157138" stop-color="#40DDDA"/>
<stop offset="0.0920726" stop-color="#3AAEC0"/>
<stop offset="0.173" stop-color="#3484A9"/>
<stop offset="0.2573" stop-color="#2F6195"/>
<stop offset="0.3458" stop-color="#2B4486"/>
<stop offset="0.44" stop-color="#282E79"/>
<stop offset="0.5425" stop-color="#261E71"/>
<stop offset="0.6594" stop-color="#24156C"/>
<stop offset="0.8226" stop-color="#24126A"/>
</linearGradient>
<linearGradient id="paint8_linear_46_168" x1="30.1493" y1="71.4931" x2="105.837" y2="71.4931" gradientUnits="userSpaceOnUse">
<stop stop-color="#2B237C"/>
<stop offset="1" stop-color="#180D5B"/>
</linearGradient>
<linearGradient id="paint9_linear_46_168" x1="40.1815" y1="84.2342" x2="91.4552" y2="84.2342" gradientUnits="userSpaceOnUse">
<stop stop-color="#2B237C"/>
<stop offset="1" stop-color="#180D5B"/>
</linearGradient>
<linearGradient id="paint10_linear_46_168" x1="46.7326" y1="71.4314" x2="46.9162" y2="74.5096" gradientUnits="userSpaceOnUse">
<stop stop-color="#42E8E0"/>
<stop offset="0.0157138" stop-color="#40DDDA"/>
<stop offset="0.0920726" stop-color="#3AAEC0"/>
<stop offset="0.173" stop-color="#3484A9"/>
<stop offset="0.2573" stop-color="#2F6195"/>
<stop offset="0.3458" stop-color="#2B4486"/>
<stop offset="0.44" stop-color="#282E79"/>
<stop offset="0.5425" stop-color="#261E71"/>
<stop offset="0.6594" stop-color="#24156C"/>
<stop offset="0.8226" stop-color="#24126A"/>
</linearGradient>
<linearGradient id="paint11_linear_46_168" x1="52.5731" y1="68.0385" x2="52.7567" y2="71.1167" gradientUnits="userSpaceOnUse">
<stop stop-color="#42E8E0"/>
<stop offset="0.0157138" stop-color="#40DDDA"/>
<stop offset="0.0920726" stop-color="#3AAEC0"/>
<stop offset="0.173" stop-color="#3484A9"/>
<stop offset="0.2573" stop-color="#2F6195"/>
<stop offset="0.3458" stop-color="#2B4486"/>
<stop offset="0.44" stop-color="#282E79"/>
<stop offset="0.5425" stop-color="#261E71"/>
<stop offset="0.6594" stop-color="#24156C"/>
<stop offset="0.8226" stop-color="#24126A"/>
</linearGradient>
<linearGradient id="paint12_linear_46_168" x1="73.7029" y1="72.593" x2="73.9214" y2="76.258" gradientUnits="userSpaceOnUse">
<stop stop-color="#2B237C"/>
<stop offset="1" stop-color="#180D5B"/>
</linearGradient>
<linearGradient id="paint13_linear_46_168" x1="88.9164" y1="83.2493" x2="92.5201" y2="83.9988" gradientUnits="userSpaceOnUse">
<stop stop-color="#2B237C"/>
<stop offset="1" stop-color="#180D5B"/>
</linearGradient>
<linearGradient id="paint14_linear_46_168" x1="42.3613" y1="75.9904" x2="212.057" y2="111.286" gradientUnits="userSpaceOnUse">
<stop stop-color="#42E8E0"/>
<stop offset="0.0157138" stop-color="#40DDDA"/>
<stop offset="0.0920726" stop-color="#3AAEC0"/>
<stop offset="0.173" stop-color="#3484A9"/>
<stop offset="0.2573" stop-color="#2F6195"/>
<stop offset="0.3458" stop-color="#2B4486"/>
<stop offset="0.44" stop-color="#282E79"/>
<stop offset="0.5425" stop-color="#261E71"/>
<stop offset="0.6594" stop-color="#24156C"/>
<stop offset="0.8226" stop-color="#24126A"/>
</linearGradient>
<linearGradient id="paint15_linear_46_168" x1="87.9934" y1="89.6322" x2="92.4493" y2="90.559" gradientUnits="userSpaceOnUse">
<stop stop-color="#2B237C"/>
<stop offset="1" stop-color="#180D5B"/>
</linearGradient>
<linearGradient id="paint16_linear_46_168" x1="82.1617" y1="93.0245" x2="86.6176" y2="93.9513" gradientUnits="userSpaceOnUse">
<stop stop-color="#2B237C"/>
<stop offset="1" stop-color="#180D5B"/>
</linearGradient>
<linearGradient id="paint17_linear_46_168" x1="68.6329" y1="96.2409" x2="74.1169" y2="97.3815" gradientUnits="userSpaceOnUse">
<stop stop-color="#2B237C"/>
<stop offset="1" stop-color="#180D5B"/>
</linearGradient>
<linearGradient id="paint18_linear_46_168" x1="41.7302" y1="76.445" x2="42.1452" y2="83.4058" gradientUnits="userSpaceOnUse">
<stop stop-color="#42E8E0"/>
<stop offset="0.0157138" stop-color="#40DDDA"/>
<stop offset="0.0920726" stop-color="#3AAEC0"/>
<stop offset="0.173" stop-color="#3484A9"/>
<stop offset="0.2573" stop-color="#2F6195"/>
<stop offset="0.3458" stop-color="#2B4486"/>
<stop offset="0.44" stop-color="#282E79"/>
<stop offset="0.5425" stop-color="#261E71"/>
<stop offset="0.6594" stop-color="#24156C"/>
<stop offset="0.8226" stop-color="#24126A"/>
</linearGradient>
<linearGradient id="paint19_linear_46_168" x1="45.502" y1="76.3947" x2="45.9051" y2="83.1548" gradientUnits="userSpaceOnUse">
<stop stop-color="#2B237C"/>
<stop offset="1" stop-color="#180D5B"/>
</linearGradient>
<linearGradient id="paint20_linear_46_168" x1="59.6131" y1="73.244" x2="61.034" y2="97.0734" gradientUnits="userSpaceOnUse">
<stop stop-color="#42E8E0"/>
<stop offset="0.0157138" stop-color="#40DDDA"/>
<stop offset="0.0920726" stop-color="#3AAEC0"/>
<stop offset="0.173" stop-color="#3484A9"/>
<stop offset="0.2573" stop-color="#2F6195"/>
<stop offset="0.3458" stop-color="#2B4486"/>
<stop offset="0.44" stop-color="#282E79"/>
<stop offset="0.5425" stop-color="#261E71"/>
<stop offset="0.6594" stop-color="#24156C"/>
<stop offset="0.8226" stop-color="#24126A"/>
</linearGradient>
</defs>
</svg>
