<svg width="300" height="818" viewBox="0 0 300 818" fill="none" xmlns="http://www.w3.org/2000/svg">
<path opacity="0.1" d="M1139.8 605.417L1109.6 588.739L1139.8 571.874L1143.33 570H1141.37L1138.82 571.312L1108.42 587.99L1078.02 571.312L1075.67 570H1073.71L1077.24 571.874L1107.64 588.552L1077.24 605.229L1046.84 621.907L1016.44 605.229L986.438 588.739L1016.64 571.874L1020.17 570H1018.21L1015.66 571.312L985.262 587.99L955.061 571.312L952.511 570H950.55L954.08 571.874L984.477 588.739L954.08 605.417L923.683 622.095L893.286 605.417L863.281 588.739L893.482 571.874L897.012 570H895.051L892.501 571.312L862.104 587.99L831.707 571.312L829.353 570H827.392L830.922 571.874L861.32 588.552L830.922 605.229L800.525 621.907L770.128 605.229L739.927 588.739L770.324 571.874L773.854 570H771.893L769.343 571.312L738.946 587.99L708.549 571.312L706.196 570H704.235L707.765 571.874L738.162 588.552L707.765 605.229L677.367 621.907L647.166 605.417L616.769 588.739L647.166 571.874L650.696 570H648.735L646.186 571.312L615.789 588.177L585.391 571.499L583.038 570H581.077L584.607 571.874L615.004 588.552L584.607 605.229L554.21 621.907L523.812 605.229L493.611 588.739L524.009 571.874L527.539 570H525.578L523.028 571.312L492.631 587.99L462.234 571.312L459.88 570H457.919L461.449 571.874L491.846 588.552L461.449 605.229L431.052 621.907L400.655 605.229L370.454 588.739L400.851 571.874L404.381 570H402.42L399.87 571.312L369.473 587.99L339.076 571.312L336.723 570H334.762L338.292 571.874L368.689 588.552L338.292 605.229L307.894 622.095L277.497 605.417L247.1 588.739L277.497 571.874L281.027 570H279.066L276.517 571.312L246.119 587.99L215.722 571.312L213.565 570H211.604L215.134 571.874L245.531 588.552L215.134 605.229L184.737 621.907L154.339 605.229L124.138 588.552L154.339 571.874L157.869 570H155.908L153.359 571.312L123.158 588.177L92.7605 571.312L90.2111 570H88.25L91.78 571.874L122.177 588.552L91.78 605.229L61.3827 621.907L30.9855 605.229L0.980555 588.552L31.1817 571.874L34.7117 570H32.7505L30.2011 571.312L0 587.99V589.114L30.2011 605.792L60.5983 622.469L30.2011 639.335L0 656.012V657.137L30.2011 673.814L60.5983 690.492L30.2011 707.17L0 724.035V725.159L30.2011 741.837L60.5983 758.515L30.2011 775.193L0 791.871V792.995L30.2011 809.673L60.5983 826.35L30.2011 843.028L0 859.893V861.018L30.2011 877.695L60.5983 894.373L30.2011 911.051L0 927.916V929.041L30.2011 945.718L60.5983 962.396L30.2011 979.074L0 995.752V996.876L30.2011 1013.55L60.5983 1030.23L30.2011 1046.91L0 1063.77V1064.9L30.2011 1081.58L60.5983 1098.25L30.2011 1114.93L0 1131.8V1132.92L30.2011 1149.6L60.5983 1166.28L30.2011 1182.95L0 1199.63V1200.76L30.2011 1217.43L60.5983 1234.11L40.595 1245.17H42.5561L61.5789 1234.67L80.6016 1245.17H82.5627L62.5594 1234.11L92.9566 1217.43L123.354 1200.76L153.751 1217.43L184.148 1234.11L164.145 1245.17H166.106L185.129 1234.67L204.152 1245.17H206.113L186.109 1234.11L216.507 1217.43L246.904 1200.76L277.301 1217.43L307.698 1234.11L287.695 1245.17H289.656L308.679 1234.67L327.702 1245.17H329.663L309.659 1234.11L340.056 1217.43L370.454 1200.76L400.851 1217.43L431.248 1234.11L411.245 1245.17H413.206L432.229 1234.67L451.251 1245.17H453.213L433.209 1234.11L463.606 1217.43L494.004 1200.76L524.401 1217.43L554.798 1234.11L534.795 1245.17H536.756L555.779 1234.67L574.801 1245.17H576.763L556.759 1234.11L587.156 1217.43L617.554 1200.76L647.951 1217.43L678.348 1234.11L658.345 1245.17H660.306L679.329 1234.67L698.351 1245.17H700.312L680.309 1234.11L710.706 1217.43L741.104 1200.76L771.501 1217.43L801.898 1234.11L781.895 1245.17H783.856L802.878 1234.67L821.901 1245.17H823.862L803.859 1234.11L834.256 1217.43L864.653 1200.76L895.051 1217.43L925.448 1234.11L905.445 1245.17H907.406L926.428 1234.67L945.451 1245.17H947.412L927.409 1234.11L957.806 1217.43L988.203 1200.76L1018.6 1217.43L1049 1234.11L1028.99 1245.17H1030.96L1049.98 1234.67L1069 1245.17H1070.96L1050.96 1234.11L1081.36 1217.43L1111.75 1200.76L1142.15 1217.43L1172.55 1234.11L1152.54 1245.17H1154.51L1173.53 1234.67L1180 1238.24V1237.11L1174.51 1234.11L1180 1231.11V1229.99L1173.53 1233.55L1143.13 1216.87L1112.73 1200.19L1143.13 1183.52L1173.53 1166.84L1180 1170.4V1169.28L1174.51 1166.28L1180 1163.28V1162.15L1173.53 1165.71L1143.13 1149.04L1112.73 1132.36L1143.13 1115.68L1173.53 1099L1180 1102.56V1101.44L1174.51 1098.44L1180 1095.44V1094.32L1173.53 1097.88L1143.13 1081.2L1112.73 1064.52L1143.13 1047.85L1173.53 1031.17L1180 1034.73V1033.6L1174.51 1030.61L1180 1027.61V1026.48L1173.53 1030.04L1143.13 1013.37L1112.73 996.689L1143.13 980.011L1173.53 963.333L1180 966.893V965.394L1174.51 962.396L1180 959.398V958.273L1173.53 961.834L1143.13 945.156L1112.73 928.478L1143.13 911.801L1173.53 895.123L1180 898.683V897.559L1174.51 894.561L1180 891.562V890.438L1173.53 893.998L1143.13 877.321L1112.73 860.643L1143.13 843.965L1173.53 827.287L1180 830.848V829.723L1174.51 826.725L1180 823.727V822.603L1173.53 826.163L1143.13 809.485L1112.73 792.808L1143.13 776.13L1173.53 759.452L1180 763.012V761.888L1174.51 758.89L1176.67 755.517V754.392L1170.19 757.953L1139.8 741.275L1109.4 724.597L1139.8 707.92L1170.19 691.242L1176.67 694.802V693.678L1171.17 690.68L1176.67 687.681V686.557L1170.19 690.117L1139.8 673.44L1109.4 656.762L1139.8 640.084L1170.19 623.406L1176.67 626.967V625.842L1171.17 622.844L1176.67 619.846V618.722L1170.19 622.282L1139.8 605.417ZM1077.24 639.897L1107.64 656.574L1077.24 673.252L1046.84 689.93L1016.44 673.252L986.438 656.574L1016.84 639.897L1047.23 623.219L1077.24 639.897ZM339.272 911.238L308.875 894.561L339.272 877.883L369.669 861.205L400.066 877.883L430.464 894.561L400.066 911.238L369.669 927.916L339.272 911.238ZM368.493 928.478L338.095 945.156L307.698 961.834L277.301 945.156L246.904 928.478L277.301 911.801L307.698 895.123L338.095 911.801L368.493 928.478ZM400.851 911.801L431.248 895.123L461.645 911.801L492.043 928.478L461.645 945.156L431.248 961.834L400.851 945.156L370.454 928.478L400.851 911.801ZM462.43 911.238L432.033 894.561L462.43 877.883L492.827 861.205L523.224 877.883L553.621 894.561L523.224 911.238L492.827 927.916L462.43 911.238ZM524.009 911.801L554.406 895.123L584.803 911.801L615.2 928.478L584.803 945.156L554.406 961.834L524.009 945.156L493.611 928.478L524.009 911.801ZM585.587 911.238L555.19 894.561L585.587 877.883L615.985 861.205L646.382 877.883L676.779 894.561L646.382 911.238L615.789 927.916L585.587 911.238ZM647.166 911.801L677.564 895.123L707.961 911.801L738.358 928.478L707.961 945.156L677.564 961.834L647.166 945.156L616.769 928.478L647.166 911.801ZM708.745 911.238L678.348 894.561L708.745 877.883L739.142 861.205L769.54 877.883L799.937 894.561L769.54 911.238L739.142 927.916L708.745 911.238ZM770.324 911.801L800.721 895.123L831.118 911.801L861.516 928.478L831.118 945.156L800.721 961.834L770.324 945.156L739.927 928.478L770.324 911.801ZM831.903 911.238L801.506 894.561L831.903 877.883L862.3 861.205L892.697 877.883L923.095 894.561L892.697 911.238L862.3 927.916L831.903 911.238ZM831.903 843.216L801.506 826.538L831.903 809.86L862.3 793.182L892.697 809.86L923.095 826.538L892.697 843.216L862.3 859.893L831.903 843.216ZM830.922 843.778L861.32 860.456L830.922 877.133L800.525 893.811L770.128 877.133L739.731 860.456L770.128 843.778L800.525 827.1L830.922 843.778ZM769.343 843.216L738.946 859.893L708.549 843.216L678.152 826.538L708.549 809.86L738.946 793.182L769.343 809.86L799.741 826.538L769.343 843.216ZM707.765 843.778L738.162 860.456L707.765 877.133L677.367 893.811L646.97 877.133L616.573 860.456L646.97 843.778L677.367 827.1L707.765 843.778ZM646.186 843.216L615.789 859.893L585.391 843.216L554.994 826.538L585.391 809.86L615.789 792.995L646.186 809.673L676.583 826.35L646.186 843.216ZM584.607 843.778L615.004 860.456L584.607 877.133L554.21 893.811L523.812 877.133L493.415 860.456L523.812 843.778L554.21 827.1L584.607 843.778ZM523.028 843.216L492.631 859.893L462.234 843.216L431.836 826.538L462.234 809.86L492.631 793.182L523.028 809.86L553.425 826.538L523.028 843.216ZM461.449 843.778L491.846 860.456L461.449 877.133L431.052 893.811L400.655 877.133L370.258 860.456L400.655 843.778L431.052 827.1L461.449 843.778ZM399.87 843.216L369.473 859.893L339.076 843.216L308.679 826.538L339.076 809.86L369.473 793.182L399.87 809.86L430.268 826.538L399.87 843.216ZM338.095 843.778L368.493 860.456L338.095 877.133L307.698 893.811L277.301 877.133L246.904 860.456L277.301 843.778L307.698 827.1L338.095 843.778ZM276.517 843.216L246.119 859.893L215.722 843.216L185.325 826.538L215.722 809.86L246.119 793.182L276.517 809.86L306.914 826.538L276.517 843.216ZM276.517 877.695L306.914 894.373L276.517 911.051L246.119 927.729L215.722 911.051L185.325 894.373L215.722 877.695L246.119 861.018L276.517 877.695ZM276.517 945.718L306.914 962.396L276.517 979.074L246.119 995.752L215.722 979.074L185.325 962.396L215.722 945.718L246.119 929.041L276.517 945.718ZM277.497 979.636L307.894 962.958L338.292 979.636L368.689 996.314L338.292 1012.99L307.894 1029.67L277.497 1012.99L247.1 996.314L277.497 979.636ZM339.272 979.074L308.875 962.396L339.272 945.718L369.669 929.041L400.066 945.718L430.464 962.396L400.066 979.074L369.669 995.752L339.272 979.074ZM400.851 979.636L431.248 962.958L461.645 979.636L492.043 996.314L461.645 1012.99L431.248 1029.67L400.851 1012.99L370.454 996.314L400.851 979.636ZM462.43 979.074L432.033 962.396L462.43 945.718L492.827 929.041L523.224 945.718L553.621 962.396L523.224 979.074L492.827 995.752L462.43 979.074ZM524.009 979.636L554.406 962.958L584.803 979.636L615.2 996.314L584.803 1012.99L554.406 1029.67L524.009 1012.99L493.611 996.314L524.009 979.636ZM585.587 979.074L555.19 962.396L585.587 945.718L615.985 929.041L646.382 945.718L676.779 962.396L646.382 979.074L615.985 995.752L585.587 979.074ZM647.166 979.636L677.564 962.958L707.961 979.636L738.358 996.314L707.961 1012.99L677.564 1029.67L647.166 1012.99L616.769 996.314L647.166 979.636ZM708.745 979.074L678.348 962.396L708.745 945.718L739.142 929.041L769.54 945.718L799.937 962.396L769.54 979.074L739.142 995.752L708.745 979.074ZM770.324 979.636L800.721 962.958L831.118 979.636L861.516 996.314L831.118 1012.99L800.721 1029.67L770.324 1012.99L739.927 996.314L770.324 979.636ZM831.903 979.074L801.506 962.396L831.903 945.718L862.3 929.041L892.697 945.718L923.095 962.396L892.697 979.074L862.3 995.752L831.903 979.074ZM893.482 979.636L923.879 962.958L954.276 979.636L984.673 996.314L954.276 1012.99L923.879 1029.67L893.482 1012.99L863.085 996.314L893.482 979.636ZM893.482 945.156L863.085 928.478L893.482 911.801L923.879 895.123L954.276 911.801L984.673 928.478L954.276 945.156L923.879 961.834L893.482 945.156ZM893.482 877.133L863.085 860.456L893.482 843.778L923.879 827.1L954.276 843.778L984.477 860.456L954.08 877.133L923.683 893.811L893.482 877.133ZM893.482 809.298L863.085 792.62L893.482 775.942L923.879 759.265L954.276 775.942L984.673 792.62L954.276 809.298L923.879 825.976L893.482 809.298ZM892.501 775.193L862.104 791.871L831.707 775.193L801.31 758.515L831.707 741.837L862.104 725.159L892.501 741.837L922.898 758.515L892.501 775.193ZM830.922 775.755L861.32 792.433L830.922 809.11L800.525 825.788L770.128 809.11L739.731 792.433L770.128 775.755L800.525 759.077L830.922 775.755ZM769.343 775.193L738.946 791.871L708.549 775.193L678.152 758.515L708.549 741.837L738.946 725.159L769.343 741.837L799.741 758.515L769.343 775.193ZM707.765 775.755L738.162 792.433L707.765 809.11L677.367 825.788L646.97 809.11L616.573 792.433L646.97 775.755L677.367 759.077L707.765 775.755ZM646.186 775.193L615.789 791.871L585.391 775.193L554.994 758.515L585.391 741.837L615.789 725.159L646.186 741.837L676.583 758.515L646.186 775.193ZM584.607 775.755L615.004 792.433L584.607 809.11L554.21 825.788L523.812 809.11L493.415 792.433L523.812 775.755L554.21 759.077L584.607 775.755ZM523.028 775.193L492.631 791.871L462.234 775.193L431.836 758.515L462.234 741.837L492.631 725.159L523.028 741.837L553.425 758.515L523.028 775.193ZM461.449 775.755L491.846 792.433L461.449 809.11L431.052 825.788L400.655 809.11L370.258 792.433L400.655 775.755L431.052 759.077L461.449 775.755ZM399.87 775.193L369.473 791.871L339.076 775.193L308.679 758.515L339.076 741.837L369.473 725.159L399.87 741.837L430.268 758.515L399.87 775.193ZM338.095 775.755L368.493 792.433L338.095 809.11L307.698 825.788L277.301 809.11L246.904 792.433L277.301 775.755L307.698 759.077L338.095 775.755ZM276.517 775.193L246.119 791.871L215.722 775.193L185.325 758.515L215.722 741.837L246.119 725.159L276.517 741.837L306.914 758.515L276.517 775.193ZM214.938 775.755L245.335 792.433L214.938 809.11L184.54 825.788L154.143 809.11L123.746 792.433L154.143 775.755L184.54 759.077L214.938 775.755ZM214.938 843.778L245.335 860.456L214.938 877.133L184.54 893.811L154.143 877.133L124.138 860.456L154.535 843.778L184.933 827.1L214.938 843.778ZM214.938 911.801L245.335 928.478L214.938 945.156L184.54 961.834L154.143 945.156L123.746 928.478L154.143 911.801L184.54 895.123L214.938 911.801ZM214.938 979.636L245.335 996.314L214.938 1012.99L184.54 1029.67L154.143 1012.99L123.746 996.314L154.143 979.636L184.54 962.958L214.938 979.636ZM214.938 1047.66L245.335 1064.34L214.938 1081.01L184.54 1097.69L154.143 1081.01L123.746 1064.34L154.143 1047.66L184.54 1030.98L214.938 1047.66ZM215.918 1047.1L185.521 1030.42L215.918 1013.74L246.315 997.063L276.713 1013.74L307.11 1030.42L276.713 1047.1L246.315 1063.77L215.918 1047.1ZM277.497 1047.66L307.894 1030.98L338.292 1047.66L368.689 1064.34L338.292 1081.01L307.894 1097.69L277.497 1081.01L247.1 1064.34L277.497 1047.66ZM339.272 1047.1L308.875 1030.42L339.272 1013.74L369.669 997.063L400.066 1013.74L430.464 1030.42L400.066 1047.1L369.669 1063.77L339.272 1047.1ZM400.851 1047.66L431.248 1030.98L461.645 1047.66L492.043 1064.34L461.645 1081.01L431.248 1097.69L400.851 1081.01L370.454 1064.34L400.851 1047.66ZM462.43 1047.1L432.033 1030.42L462.43 1013.74L492.827 997.063L523.224 1013.74L553.621 1030.42L523.224 1047.1L492.827 1063.77L462.43 1047.1ZM524.009 1047.66L554.406 1030.98L584.803 1047.66L615.2 1064.34L584.803 1081.01L554.406 1097.69L524.009 1081.01L493.611 1064.34L524.009 1047.66ZM585.587 1047.1L555.19 1030.42L585.587 1013.74L615.985 997.063L646.382 1013.74L676.779 1030.42L646.382 1047.1L615.985 1063.77L585.587 1047.1ZM647.166 1047.66L677.564 1030.98L707.961 1047.66L738.358 1064.34L707.961 1081.01L677.564 1097.69L647.166 1081.01L616.769 1064.34L647.166 1047.66ZM708.745 1047.1L678.348 1030.42L708.745 1013.74L739.142 997.063L769.54 1013.74L799.937 1030.42L769.54 1047.1L739.142 1063.77L708.745 1047.1ZM770.324 1047.66L800.721 1030.98L831.118 1047.66L861.516 1064.34L831.118 1081.01L800.721 1097.69L770.324 1081.01L739.927 1064.34L770.324 1047.66ZM831.903 1047.1L801.506 1030.42L831.903 1013.74L862.3 997.063L892.697 1013.74L923.095 1030.42L892.697 1047.1L862.3 1063.77L831.903 1047.1ZM893.482 1047.66L923.879 1030.98L954.276 1047.66L984.673 1064.34L954.276 1081.01L923.879 1097.69L893.482 1081.01L863.085 1064.34L893.482 1047.66ZM955.061 1047.1L924.663 1030.42L955.061 1013.74L985.458 997.063L1015.86 1013.74L1046.25 1030.42L1015.86 1047.1L985.458 1063.77L955.061 1047.1ZM955.061 979.074L924.663 962.396L955.061 945.718L985.458 929.041L1015.86 945.718L1046.25 962.396L1015.86 979.074L985.458 995.752L955.061 979.074ZM955.061 911.238L924.663 894.561L955.061 877.883L985.458 861.205L1015.86 877.883L1046.25 894.561L1015.86 911.238L985.458 927.916L955.061 911.238ZM955.061 843.216L924.663 826.538L955.061 809.86L985.458 793.182L1015.86 809.86L1046.25 826.538L1015.86 843.216L985.458 859.893L955.061 843.216ZM955.061 775.193L924.663 758.515L955.061 741.837L985.458 725.159L1015.86 741.837L1046.25 758.515L1015.86 775.193L985.458 791.871L955.061 775.193ZM955.061 707.357L924.663 690.68L955.061 674.002L985.458 657.324L1015.86 674.002L1046.25 690.68L1015.86 707.357L985.458 724.035L955.061 707.357ZM954.08 707.92L984.477 724.597L954.08 741.275L923.683 757.953L893.286 741.275L862.888 724.597L893.286 707.92L923.683 691.242L954.08 707.92ZM892.501 707.357L862.104 724.035L831.707 707.357L801.31 690.68L831.707 674.002L862.104 657.324L892.501 674.002L922.898 690.68L892.501 707.357ZM830.922 707.92L861.32 724.597L830.922 741.275L800.525 757.953L770.128 741.275L739.731 724.597L770.128 707.92L800.525 691.242L830.922 707.92ZM769.343 707.357L738.946 724.035L708.549 707.357L678.152 690.68L708.549 674.002L738.946 657.324L769.343 674.002L799.741 690.68L769.343 707.357ZM707.765 707.92L738.162 724.597L707.765 741.275L677.367 757.953L647.166 741.275L616.769 724.597L647.166 707.92L677.564 691.242L707.765 707.92ZM646.186 707.357L615.789 724.035L585.391 707.357L554.994 690.68L585.391 674.002L615.789 657.324L646.186 674.002L676.583 690.68L646.186 707.357ZM584.607 707.92L615.004 724.597L584.607 741.275L554.21 757.953L523.812 741.275L493.415 724.597L523.812 707.92L554.21 691.242L584.607 707.92ZM523.028 707.357L492.631 724.035L462.234 707.357L431.836 690.68L462.234 674.002L492.631 657.324L523.028 674.002L553.425 690.68L523.028 707.357ZM461.449 707.92L491.846 724.597L461.449 741.275L431.052 757.953L400.655 741.275L370.258 724.597L400.655 707.92L431.052 691.242L461.449 707.92ZM399.87 707.357L369.473 724.035L339.076 707.357L308.679 690.68L339.076 674.002L369.473 657.324L399.87 674.002L430.268 690.68L399.87 707.357ZM338.095 707.92L368.493 724.597L338.095 741.275L307.698 757.953L277.301 741.275L246.904 724.597L277.301 707.92L307.698 691.242L338.095 707.92ZM276.517 707.357L246.119 724.035L215.722 707.357L185.325 690.68L215.722 674.002L246.119 657.324L276.517 674.002L306.914 690.68L276.517 707.357ZM214.938 707.92L245.335 724.597L214.938 741.275L184.54 757.953L154.143 741.275L123.746 724.597L154.143 707.92L184.54 691.242L214.938 707.92ZM153.359 707.357L122.962 724.035L92.5644 707.357L62.1672 690.68L92.5644 674.002L122.962 657.324L153.359 674.002L183.756 690.68L153.359 707.357ZM153.359 741.837L183.756 758.515L153.359 775.193L122.962 791.871L92.5644 775.193L62.1672 758.515L92.5644 741.837L122.962 725.159L153.359 741.837ZM153.359 809.86L183.756 826.538L153.359 843.216L122.962 859.893L92.5644 843.216L62.1672 826.538L92.5644 809.86L122.962 793.182L153.359 809.86ZM153.359 877.695L183.756 894.373L153.359 911.051L123.158 927.916L92.7605 911.238L62.3633 894.561L92.7605 877.883L123.158 861.205L153.359 877.695ZM153.359 945.718L183.756 962.396L153.359 979.074L122.962 995.752L92.5644 979.074L62.1672 962.396L92.5644 945.718L122.962 929.041L153.359 945.718ZM153.359 1013.74L183.756 1030.42L153.359 1047.1L122.962 1063.77L92.5644 1047.1L62.1672 1030.42L92.5644 1013.74L122.962 997.063L153.359 1013.74ZM153.359 1081.58L183.756 1098.25L153.359 1114.93L122.962 1131.61L92.5644 1114.93L62.1672 1098.25L92.5644 1081.58L122.962 1064.9L153.359 1081.58ZM154.339 1115.68L184.737 1099L215.134 1115.68L245.531 1132.36L215.134 1149.04L184.737 1165.71L154.339 1149.04L123.942 1132.36L154.339 1115.68ZM215.918 1115.12L185.521 1098.44L215.918 1081.76L246.315 1065.09L276.517 1081.58L306.914 1098.25L276.517 1114.93L246.119 1131.61L215.918 1115.12ZM277.497 1115.68L307.894 1099L338.292 1115.68L368.689 1132.36L338.292 1149.04L307.894 1165.71L277.497 1149.04L247.1 1132.36L277.497 1115.68ZM339.272 1115.12L308.875 1098.44L339.272 1081.58L369.669 1064.9L400.066 1081.58L430.464 1098.25L400.066 1114.93L369.669 1131.61L339.272 1115.12ZM400.851 1115.68L431.248 1099L461.645 1115.68L492.043 1132.36L461.645 1149.04L431.248 1165.71L400.851 1149.04L370.454 1132.36L400.851 1115.68ZM462.43 1115.12L432.033 1098.44L462.43 1081.76L492.827 1065.09L523.224 1081.76L553.621 1098.44L523.224 1115.12L492.827 1131.8L462.43 1115.12ZM524.009 1115.68L554.406 1099L584.803 1115.68L615.2 1132.36L584.803 1149.04L554.406 1165.71L524.009 1149.04L493.611 1132.36L524.009 1115.68ZM585.587 1115.12L555.19 1098.44L585.587 1081.76L615.985 1065.09L646.382 1081.76L676.779 1098.44L646.382 1115.12L615.985 1131.8L585.587 1115.12ZM647.166 1115.68L677.564 1099L707.961 1115.68L738.358 1132.36L707.961 1149.04L677.564 1165.71L647.166 1149.04L616.769 1132.36L647.166 1115.68ZM708.745 1115.12L678.348 1098.44L708.745 1081.76L739.142 1065.09L769.54 1081.76L799.937 1098.44L769.54 1115.12L739.142 1131.8L708.745 1115.12ZM770.324 1115.68L800.721 1099L831.118 1115.68L861.516 1132.36L831.118 1149.04L800.721 1165.71L770.324 1149.04L739.927 1132.36L770.324 1115.68ZM831.903 1115.12L801.506 1098.44L831.903 1081.76L862.3 1065.09L892.697 1081.76L923.095 1098.44L892.697 1115.12L862.3 1131.8L831.903 1115.12ZM893.482 1115.68L923.879 1099L954.276 1115.68L984.673 1132.36L954.276 1149.04L923.879 1165.71L893.482 1149.04L863.085 1132.36L893.482 1115.68ZM955.061 1115.12L924.663 1098.44L955.061 1081.58L985.458 1064.9L1015.86 1081.58L1046.25 1098.25L1015.86 1114.93L985.458 1131.61L955.061 1115.12ZM1016.64 1115.68L1047.04 1099L1077.43 1115.68L1107.83 1132.36L1077.43 1149.04L1047.04 1165.71L1016.64 1149.04L986.242 1132.36L1016.64 1115.68ZM1016.64 1081.01L986.242 1064.34L1016.64 1047.66L1047.04 1030.98L1077.43 1047.66L1107.83 1064.34L1077.43 1081.01L1047.04 1097.69L1016.64 1081.01ZM1016.64 1013.18L986.242 996.501L1016.64 979.823L1047.04 963.146L1077.43 979.823L1107.83 996.501L1077.43 1013.18L1047.04 1029.86L1016.64 1013.18ZM1016.64 945.156L986.242 928.478L1016.64 911.801L1047.04 895.123L1077.43 911.801L1107.83 928.478L1077.43 945.156L1047.04 961.834L1016.64 945.156ZM1016.64 877.133L986.438 860.456L1016.84 843.778L1047.23 827.1L1077.63 843.778L1108.03 860.456L1077.63 877.133L1047.23 893.811L1016.64 877.133ZM1016.64 809.298L986.242 792.62L1016.64 775.942L1047.04 759.265L1077.43 775.942L1107.83 792.62L1077.43 809.298L1047.04 825.976L1016.64 809.298ZM1016.64 741.275L986.438 724.597L1016.84 707.92L1047.23 691.242L1077.63 707.92L1108.03 724.597L1077.63 741.275L1047.23 757.953L1016.64 741.275ZM955.061 605.979L985.458 589.301L1015.86 605.979L1046.25 622.657L1015.66 639.335L985.262 656.012L955.061 639.335L924.663 622.657L955.061 605.979ZM954.08 639.897L984.477 656.574L954.08 673.252L923.683 689.93L893.286 673.252L862.888 656.574L893.286 639.897L923.683 623.219L954.08 639.897ZM831.903 605.979L862.3 589.301L892.697 605.979L923.095 622.657L892.501 639.335L862.104 656.012L831.903 639.335L801.506 622.657L831.903 605.979ZM830.922 639.897L861.32 656.574L830.922 673.252L800.525 689.93L770.128 673.252L739.731 656.574L770.128 639.897L800.525 623.219L830.922 639.897ZM708.745 605.979L739.142 589.301L769.54 605.979L799.937 622.657L769.343 639.335L738.946 656.012L708.745 639.335L678.348 622.657L708.745 605.979ZM707.765 639.897L738.162 656.574L707.765 673.252L677.367 689.93L647.166 673.252L616.769 656.574L647.166 639.897L677.564 623.219L707.765 639.897ZM585.587 605.979L615.985 589.301L646.382 605.979L676.779 622.657L646.186 639.335L615.789 656.012L585.587 639.335L555.19 622.657L585.587 605.979ZM584.607 639.897L615.004 656.574L584.607 673.252L554.21 689.93L523.812 673.252L493.415 656.574L523.812 639.897L554.21 623.219L584.607 639.897ZM462.43 605.979L492.827 589.301L523.224 605.979L553.621 622.657L523.028 639.335L492.631 656.012L462.43 639.335L432.033 622.657L462.43 605.979ZM461.449 639.897L491.846 656.574L461.449 673.252L431.052 689.93L400.655 673.252L370.258 656.574L400.655 639.897L431.052 623.219L461.449 639.897ZM339.076 605.979L369.473 589.301L399.87 605.979L430.268 622.657L399.87 639.335L369.473 656.012L339.076 639.335L308.679 622.657L339.076 605.979ZM338.095 639.897L368.493 656.574L338.095 673.252L307.894 690.117L277.497 673.44L247.1 656.762L277.497 640.084L307.894 623.406L338.095 639.897ZM215.918 605.979L246.315 589.301L276.713 605.979L307.11 622.657L276.517 639.335L246.119 656.012L215.918 639.335L185.521 622.657L215.918 605.979ZM214.938 639.897L245.335 656.574L214.938 673.252L184.54 689.93L154.143 673.252L123.746 656.574L154.143 639.897L184.54 623.219L214.938 639.897ZM92.7605 605.979L123.158 589.301L153.555 605.979L183.952 622.657L153.359 639.335L122.962 656.012L92.7605 639.335L62.3633 622.657L92.7605 605.979ZM31.1817 673.252L0.980555 656.574L31.3778 639.897L61.775 623.219L92.1722 639.897L122.569 656.574L92.1722 673.252L61.775 689.93L31.1817 673.252ZM31.1817 741.275L0.980555 724.597L31.3778 707.92L61.775 691.242L92.1722 707.92L122.569 724.597L92.1722 741.275L61.775 757.953L31.1817 741.275ZM31.1817 809.298L0.784444 792.62L31.1817 775.942L61.5789 759.265L91.9761 775.942L122.373 792.62L91.9761 809.298L61.5789 825.976L31.1817 809.298ZM31.1817 877.133L0.980555 860.456L31.3778 843.778L61.775 827.1L92.1722 843.778L122.569 860.456L92.1722 877.133L61.775 893.811L31.1817 877.133ZM31.1817 945.156L0.784444 928.478L31.1817 911.801L61.5789 895.123L91.9761 911.801L122.373 928.478L91.9761 945.156L61.5789 961.834L31.1817 945.156ZM31.1817 1013.18L0.784444 996.501L31.1817 979.823L61.5789 963.146L91.9761 979.823L122.373 996.501L91.9761 1013.18L61.5789 1029.86L31.1817 1013.18ZM31.1817 1081.01L0.784444 1064.34L31.1817 1047.66L61.5789 1030.98L91.9761 1047.66L122.373 1064.34L91.9761 1081.01L61.5789 1097.69L31.1817 1081.01ZM31.1817 1149.04L0.784444 1132.36L31.1817 1115.68L61.5789 1099L91.9761 1115.68L122.373 1132.36L91.78 1149.04L61.3827 1165.71L31.1817 1149.04ZM91.78 1217.06L61.3827 1233.74L30.9855 1217.06L0.588333 1200.38L30.9855 1183.7L61.3827 1167.03L91.78 1183.7L122.177 1200.38L91.78 1217.06ZM92.7605 1182.95L62.3633 1166.28L92.7605 1149.6L123.158 1132.92L153.555 1149.6L183.952 1166.28L153.555 1182.95L123.158 1199.63L92.7605 1182.95ZM214.938 1217.06L184.54 1233.74L154.143 1217.06L123.746 1200.38L154.143 1183.7L184.54 1167.03L214.938 1183.7L245.335 1200.38L214.938 1217.06ZM215.918 1182.95L185.521 1166.28L215.918 1149.6L246.315 1132.92L276.713 1149.6L307.11 1166.28L276.713 1182.95L246.315 1199.63L215.918 1182.95ZM338.292 1217.06L307.894 1233.74L277.497 1217.06L247.1 1200.38L277.497 1183.7L307.894 1167.03L338.292 1183.7L368.689 1200.38L338.292 1217.06ZM339.272 1182.95L308.875 1166.28L339.272 1149.6L369.669 1132.92L400.066 1149.6L430.464 1166.28L400.066 1182.95L369.669 1199.63L339.272 1182.95ZM461.449 1217.06L431.052 1233.74L400.655 1217.06L370.258 1200.38L400.655 1183.7L431.052 1167.03L461.449 1183.7L491.846 1200.38L461.449 1217.06ZM462.43 1182.95L432.033 1166.28L462.43 1149.6L492.827 1132.92L523.224 1149.6L553.621 1166.28L523.224 1182.95L492.827 1199.63L462.43 1182.95ZM584.607 1217.06L554.21 1233.74L523.812 1217.06L493.415 1200.38L523.812 1183.7L554.21 1167.03L584.607 1183.7L615.004 1200.38L584.607 1217.06ZM585.587 1182.95L555.19 1166.28L585.587 1149.6L615.985 1132.92L646.382 1149.6L676.779 1166.28L646.382 1182.95L615.985 1199.63L585.587 1182.95ZM707.765 1217.06L677.367 1233.74L646.97 1217.06L616.573 1200.38L646.97 1183.7L677.367 1167.03L707.765 1183.7L738.162 1200.38L707.765 1217.06ZM708.745 1182.95L678.348 1166.28L708.745 1149.6L739.142 1132.92L769.54 1149.6L799.937 1166.28L769.54 1182.95L739.142 1199.63L708.745 1182.95ZM830.922 1217.06L800.525 1233.74L770.128 1217.06L739.731 1200.38L770.128 1183.7L800.525 1167.03L830.922 1183.7L861.32 1200.38L830.922 1217.06ZM831.903 1182.95L801.506 1166.28L831.903 1149.6L862.3 1132.92L892.697 1149.6L923.095 1166.28L892.697 1182.95L862.3 1199.63L831.903 1182.95ZM954.08 1217.06L923.683 1233.74L893.286 1217.06L862.888 1200.38L893.286 1183.7L923.683 1167.03L954.08 1183.7L984.477 1200.38L954.08 1217.06ZM955.061 1182.95L924.663 1166.28L955.061 1149.6L985.458 1132.92L1015.86 1149.6L1046.25 1166.28L1015.86 1182.95L985.458 1199.63L955.061 1182.95ZM1077.24 1217.06L1046.84 1233.74L1016.44 1217.06L986.046 1200.38L1016.44 1183.7L1046.84 1167.03L1077.24 1183.7L1107.64 1200.38L1077.24 1217.06ZM1139.01 1149.6L1169.41 1166.28L1139.01 1182.95L1108.62 1199.63L1078.22 1182.95L1047.82 1166.28L1078.22 1149.6L1108.62 1132.92L1139.01 1149.6ZM1138.82 1081.58L1169.21 1098.25L1138.82 1114.93L1108.42 1131.61L1078.02 1114.93L1047.62 1098.25L1078.02 1081.58L1108.42 1064.9L1138.82 1081.58ZM1138.82 1013.74L1169.21 1030.42L1138.82 1047.1L1108.42 1063.77L1078.02 1047.1L1047.62 1030.42L1078.02 1013.74L1108.42 997.063L1138.82 1013.74ZM1138.82 945.718L1169.21 962.396L1138.82 979.074L1108.42 995.752L1078.02 979.074L1047.62 962.396L1078.02 945.718L1108.42 929.041L1138.82 945.718ZM1138.82 877.695L1169.21 894.373L1138.82 911.051L1108.42 927.729L1078.02 911.051L1047.62 894.373L1078.02 877.695L1108.42 861.018L1138.82 877.695ZM1138.82 809.86L1169.21 826.538L1138.82 843.216L1108.42 859.893L1078.02 843.216L1047.62 826.538L1078.02 809.86L1108.42 793.182L1138.82 809.86ZM1138.82 741.837L1169.21 758.515L1138.82 775.193L1108.42 791.871L1078.02 775.193L1047.62 758.515L1078.02 741.837L1108.42 725.159L1138.82 741.837ZM1138.82 673.814L1169.21 690.492L1138.82 707.17L1108.42 723.848L1078.02 707.17L1047.62 690.492L1078.02 673.814L1108.42 657.137L1138.82 673.814ZM1138.82 639.335L1108.42 656.012L1078.22 639.335L1047.82 622.657L1078.22 605.979L1108.62 589.301L1139.01 605.979L1169.41 622.657L1138.82 639.335Z" fill="url(#paint0_radial_46_394)" fill-opacity="0.9"/>
<path opacity="0.1" d="M1139.8 -5.92008L1109.6 -22.5978L1139.8 -39.463L1143.33 -41.3369H1141.37L1138.82 -40.0252L1108.42 -23.3474L1078.02 -40.0252L1075.67 -41.3369H1073.71L1077.24 -39.463L1107.64 -22.7852L1077.24 -6.10747L1046.84 10.5703L1016.44 -6.10747L986.438 -22.5978L1016.64 -39.463L1020.17 -41.3369H1018.21L1015.66 -40.0252L985.262 -23.3474L955.061 -40.0252L952.511 -41.3369H950.55L954.08 -39.463L984.477 -22.5978L954.08 -5.92008L923.683 10.7577L893.286 -5.92008L863.281 -22.5978L893.482 -39.463L897.012 -41.3369H895.051L892.501 -40.0252L862.104 -23.3474L831.707 -40.0252L829.353 -41.3369H827.392L830.922 -39.463L861.32 -22.7852L830.922 -6.10747L800.525 10.5703L770.128 -6.10747L739.927 -22.5978L770.324 -39.463L773.854 -41.3369H771.893L769.343 -40.0252L738.946 -23.3474L708.549 -40.0252L706.196 -41.3369H704.235L707.765 -39.463L738.162 -22.7852L707.765 -6.10747L677.367 10.5703L647.166 -5.92008L616.769 -22.5978L647.166 -39.463L650.696 -41.3369H648.735L646.186 -40.0252L615.789 -23.16L585.391 -39.8378L583.038 -41.3369H581.077L584.607 -39.463L615.004 -22.7852L584.607 -6.10747L554.21 10.5703L523.812 -6.10747L493.611 -22.5978L524.009 -39.463L527.539 -41.3369H525.578L523.028 -40.0252L492.631 -23.3474L462.234 -40.0252L459.88 -41.3369H457.919L461.449 -39.463L491.846 -22.7852L461.449 -6.10747L431.052 10.5703L400.655 -6.10747L370.454 -22.5978L400.851 -39.463L404.381 -41.3369H402.42L399.87 -40.0252L369.473 -23.3474L339.076 -40.0252L336.723 -41.3369H334.762L338.292 -39.463L368.689 -22.7852L338.292 -6.10747L307.894 10.7577L277.497 -5.92008L247.1 -22.5978L277.497 -39.463L281.027 -41.3369H279.066L276.517 -40.0252L246.119 -23.3474L215.722 -40.0252L213.565 -41.3369H211.604L215.134 -39.463L245.531 -22.7852L215.134 -6.10747L184.737 10.5703L154.339 -6.10747L124.138 -22.7852L154.339 -39.463L157.869 -41.3369H155.908L153.359 -40.0252L123.158 -23.16L92.7605 -40.0252L90.2111 -41.3369H88.25L91.78 -39.463L122.177 -22.7852L91.78 -6.10747L61.3827 10.5703L30.9855 -6.10747L0.980555 -22.7852L31.1817 -39.463L34.7117 -41.3369H32.7505L30.2011 -40.0252L0 -23.3474V-22.2231L30.2011 -5.5453L60.5983 11.1325L30.2011 27.9976L0 44.6754V45.7998L30.2011 62.4775L60.5983 79.1553L30.2011 95.8331L0 112.698V113.823L30.2011 130.5L60.5983 147.178L30.2011 163.856L0 180.534V181.658L30.2011 198.336L60.5983 215.014L30.2011 231.691L0 248.556V249.681L30.2011 266.359L60.5983 283.036L30.2011 299.714L0 316.579V317.704L30.2011 334.381L60.5983 351.059L30.2011 367.737L0 384.415V385.539L30.2011 402.217L60.5983 418.895L30.2011 435.572L0 452.438V453.562L30.2011 470.24L60.5983 486.917L30.2011 503.595L0 520.46V521.585L30.2011 538.262L60.5983 554.94L30.2011 571.618L0 588.296V589.42L30.2011 606.098L60.5983 622.776L40.595 633.832H42.5561L61.5789 623.338L80.6016 633.832H82.5627L62.5594 622.776L92.9566 606.098L123.354 589.42L153.751 606.098L184.148 622.776L164.145 633.832H166.106L185.129 623.338L204.152 633.832H206.113L186.109 622.776L216.507 606.098L246.904 589.42L277.301 606.098L307.698 622.776L287.695 633.832H289.656L308.679 623.338L327.702 633.832H329.663L309.659 622.776L340.056 606.098L370.454 589.42L400.851 606.098L431.248 622.776L411.245 633.832H413.206L432.229 623.338L451.251 633.832H453.213L433.209 622.776L463.606 606.098L494.004 589.42L524.401 606.098L554.798 622.776L534.795 633.832H536.756L555.779 623.338L574.801 633.832H576.763L556.759 622.776L587.156 606.098L617.554 589.42L647.951 606.098L678.348 622.776L658.345 633.832H660.306L679.329 623.338L698.351 633.832H700.312L680.309 622.776L710.706 606.098L741.104 589.42L771.501 606.098L801.898 622.776L781.895 633.832H783.856L802.878 623.338L821.901 633.832H823.862L803.859 622.776L834.256 606.098L864.653 589.42L895.051 606.098L925.448 622.776L905.445 633.832H907.406L926.428 623.338L945.451 633.832H947.412L927.409 622.776L957.806 606.098L988.203 589.42L1018.6 606.098L1049 622.776L1028.99 633.832H1030.96L1049.98 623.338L1069 633.832H1070.96L1050.96 622.776L1081.36 606.098L1111.75 589.42L1142.15 606.098L1172.55 622.776L1152.54 633.832H1154.51L1173.53 623.338L1180 626.898V625.774L1174.51 622.776L1180 619.777V618.653L1173.53 622.214L1143.13 605.536L1112.73 588.858L1143.13 572.18L1173.53 555.502L1180 559.063V557.938L1174.51 554.94L1180 551.942V550.818L1173.53 554.378L1143.13 537.7L1112.73 521.023L1143.13 504.345L1173.53 487.667L1180 491.227V490.103L1174.51 487.105L1180 484.107V482.982L1173.53 486.543L1143.13 469.865L1112.73 453.187L1143.13 436.509L1173.53 419.832L1180 423.392V422.268L1174.51 419.269L1180 416.271V415.147L1173.53 418.707L1143.13 402.029L1112.73 385.352L1143.13 368.674L1173.53 351.996L1180 355.557V354.057L1174.51 351.059L1180 348.061V346.937L1173.53 350.497L1143.13 333.819L1112.73 317.141L1143.13 300.464L1173.53 283.786L1180 287.346V286.222L1174.51 283.224L1180 280.225V279.101L1173.53 282.662L1143.13 265.984L1112.73 249.306L1143.13 232.628L1173.53 215.951L1180 219.511V218.387L1174.51 215.388L1180 212.39V211.266L1173.53 214.826L1143.13 198.148L1112.73 181.471L1143.13 164.793L1173.53 148.115L1180 151.675V150.551L1174.51 147.553L1176.67 144.18V143.056L1170.19 146.616L1139.8 129.938L1109.4 113.26L1139.8 96.5826L1170.19 79.9048L1176.67 83.4653V82.3409L1171.17 79.3427L1176.67 76.3444V75.2201L1170.19 78.7805L1139.8 62.1027L1109.4 45.425L1139.8 28.7472L1170.19 12.0694L1176.67 15.6298V14.5055L1171.17 11.5073L1176.67 8.50901V7.38466L1170.19 10.9451L1139.8 -5.92008ZM1077.24 28.5598L1107.64 45.2376L1077.24 61.9153L1046.84 78.5931L1016.44 61.9153L986.438 45.2376L1016.84 28.5598L1047.23 11.882L1077.24 28.5598ZM339.272 299.902L308.875 283.224L339.272 266.546L369.669 249.868L400.066 266.546L430.464 283.224L400.066 299.902L369.669 316.579L339.272 299.902ZM368.493 317.141L338.095 333.819L307.698 350.497L277.301 333.819L246.904 317.141L277.301 300.464L307.698 283.786L338.095 300.464L368.493 317.141ZM400.851 300.464L431.248 283.786L461.645 300.464L492.043 317.141L461.645 333.819L431.248 350.497L400.851 333.819L370.454 317.141L400.851 300.464ZM462.43 299.902L432.033 283.224L462.43 266.546L492.827 249.868L523.224 266.546L553.621 283.224L523.224 299.902L492.827 316.579L462.43 299.902ZM524.009 300.464L554.406 283.786L584.803 300.464L615.2 317.141L584.803 333.819L554.406 350.497L524.009 333.819L493.611 317.141L524.009 300.464ZM585.587 299.902L555.19 283.224L585.587 266.546L615.985 249.868L646.382 266.546L676.779 283.224L646.382 299.902L615.789 316.579L585.587 299.902ZM647.166 300.464L677.564 283.786L707.961 300.464L738.358 317.141L707.961 333.819L677.564 350.497L647.166 333.819L616.769 317.141L647.166 300.464ZM708.745 299.902L678.348 283.224L708.745 266.546L739.142 249.868L769.54 266.546L799.937 283.224L769.54 299.902L739.142 316.579L708.745 299.902ZM770.324 300.464L800.721 283.786L831.118 300.464L861.516 317.141L831.118 333.819L800.721 350.497L770.324 333.819L739.927 317.141L770.324 300.464ZM831.903 299.902L801.506 283.224L831.903 266.546L862.3 249.868L892.697 266.546L923.095 283.224L892.697 299.902L862.3 316.579L831.903 299.902ZM831.903 231.879L801.506 215.201L831.903 198.523L862.3 181.845L892.697 198.523L923.095 215.201L892.697 231.879L862.3 248.556L831.903 231.879ZM830.922 232.441L861.32 249.119L830.922 265.796L800.525 282.474L770.128 265.796L739.731 249.119L770.128 232.441L800.525 215.763L830.922 232.441ZM769.343 231.879L738.946 248.556L708.549 231.879L678.152 215.201L708.549 198.523L738.946 181.845L769.343 198.523L799.741 215.201L769.343 231.879ZM707.765 232.441L738.162 249.119L707.765 265.796L677.367 282.474L646.97 265.796L616.573 249.119L646.97 232.441L677.367 215.763L707.765 232.441ZM646.186 231.879L615.789 248.556L585.391 231.879L554.994 215.201L585.391 198.523L615.789 181.658L646.186 198.336L676.583 215.014L646.186 231.879ZM584.607 232.441L615.004 249.119L584.607 265.796L554.21 282.474L523.812 265.796L493.415 249.119L523.812 232.441L554.21 215.763L584.607 232.441ZM523.028 231.879L492.631 248.556L462.234 231.879L431.836 215.201L462.234 198.523L492.631 181.845L523.028 198.523L553.425 215.201L523.028 231.879ZM461.449 232.441L491.846 249.119L461.449 265.796L431.052 282.474L400.655 265.796L370.258 249.119L400.655 232.441L431.052 215.763L461.449 232.441ZM399.87 231.879L369.473 248.556L339.076 231.879L308.679 215.201L339.076 198.523L369.473 181.845L399.87 198.523L430.268 215.201L399.87 231.879ZM338.095 232.441L368.493 249.119L338.095 265.796L307.698 282.474L277.301 265.796L246.904 249.119L277.301 232.441L307.698 215.763L338.095 232.441ZM276.517 231.879L246.119 248.556L215.722 231.879L185.325 215.201L215.722 198.523L246.119 181.845L276.517 198.523L306.914 215.201L276.517 231.879ZM276.517 266.359L306.914 283.036L276.517 299.714L246.119 316.392L215.722 299.714L185.325 283.036L215.722 266.359L246.119 249.681L276.517 266.359ZM276.517 334.381L306.914 351.059L276.517 367.737L246.119 384.415L215.722 367.737L185.325 351.059L215.722 334.381L246.119 317.704L276.517 334.381ZM277.497 368.299L307.894 351.621L338.292 368.299L368.689 384.977L338.292 401.655L307.894 418.332L277.497 401.655L247.1 384.977L277.497 368.299ZM339.272 367.737L308.875 351.059L339.272 334.381L369.669 317.704L400.066 334.381L430.464 351.059L400.066 367.737L369.669 384.415L339.272 367.737ZM400.851 368.299L431.248 351.621L461.645 368.299L492.043 384.977L461.645 401.655L431.248 418.332L400.851 401.655L370.454 384.977L400.851 368.299ZM462.43 367.737L432.033 351.059L462.43 334.381L492.827 317.704L523.224 334.381L553.621 351.059L523.224 367.737L492.827 384.415L462.43 367.737ZM524.009 368.299L554.406 351.621L584.803 368.299L615.2 384.977L584.803 401.655L554.406 418.332L524.009 401.655L493.611 384.977L524.009 368.299ZM585.587 367.737L555.19 351.059L585.587 334.381L615.985 317.704L646.382 334.381L676.779 351.059L646.382 367.737L615.985 384.415L585.587 367.737ZM647.166 368.299L677.564 351.621L707.961 368.299L738.358 384.977L707.961 401.655L677.564 418.332L647.166 401.655L616.769 384.977L647.166 368.299ZM708.745 367.737L678.348 351.059L708.745 334.381L739.142 317.704L769.54 334.381L799.937 351.059L769.54 367.737L739.142 384.415L708.745 367.737ZM770.324 368.299L800.721 351.621L831.118 368.299L861.516 384.977L831.118 401.655L800.721 418.332L770.324 401.655L739.927 384.977L770.324 368.299ZM831.903 367.737L801.506 351.059L831.903 334.381L862.3 317.704L892.697 334.381L923.095 351.059L892.697 367.737L862.3 384.415L831.903 367.737ZM893.482 368.299L923.879 351.621L954.276 368.299L984.673 384.977L954.276 401.655L923.879 418.332L893.482 401.655L863.085 384.977L893.482 368.299ZM893.482 333.819L863.085 317.141L893.482 300.464L923.879 283.786L954.276 300.464L984.673 317.141L954.276 333.819L923.879 350.497L893.482 333.819ZM893.482 265.796L863.085 249.119L893.482 232.441L923.879 215.763L954.276 232.441L984.477 249.119L954.08 265.796L923.683 282.474L893.482 265.796ZM893.482 197.961L863.085 181.283L893.482 164.605L923.879 147.928L954.276 164.605L984.673 181.283L954.276 197.961L923.879 214.639L893.482 197.961ZM892.501 163.856L862.104 180.534L831.707 163.856L801.31 147.178L831.707 130.5L862.104 113.823L892.501 130.5L922.898 147.178L892.501 163.856ZM830.922 164.418L861.32 181.096L830.922 197.774L800.525 214.451L770.128 197.774L739.731 181.096L770.128 164.418L800.525 147.74L830.922 164.418ZM769.343 163.856L738.946 180.534L708.549 163.856L678.152 147.178L708.549 130.5L738.946 113.823L769.343 130.5L799.741 147.178L769.343 163.856ZM707.765 164.418L738.162 181.096L707.765 197.774L677.367 214.451L646.97 197.774L616.573 181.096L646.97 164.418L677.367 147.74L707.765 164.418ZM646.186 163.856L615.789 180.534L585.391 163.856L554.994 147.178L585.391 130.5L615.789 113.823L646.186 130.5L676.583 147.178L646.186 163.856ZM584.607 164.418L615.004 181.096L584.607 197.774L554.21 214.451L523.812 197.774L493.415 181.096L523.812 164.418L554.21 147.74L584.607 164.418ZM523.028 163.856L492.631 180.534L462.234 163.856L431.836 147.178L462.234 130.5L492.631 113.823L523.028 130.5L553.425 147.178L523.028 163.856ZM461.449 164.418L491.846 181.096L461.449 197.774L431.052 214.451L400.655 197.774L370.258 181.096L400.655 164.418L431.052 147.74L461.449 164.418ZM399.87 163.856L369.473 180.534L339.076 163.856L308.679 147.178L339.076 130.5L369.473 113.823L399.87 130.5L430.268 147.178L399.87 163.856ZM338.095 164.418L368.493 181.096L338.095 197.774L307.698 214.451L277.301 197.774L246.904 181.096L277.301 164.418L307.698 147.74L338.095 164.418ZM276.517 163.856L246.119 180.534L215.722 163.856L185.325 147.178L215.722 130.5L246.119 113.823L276.517 130.5L306.914 147.178L276.517 163.856ZM214.938 164.418L245.335 181.096L214.938 197.774L184.54 214.451L154.143 197.774L123.746 181.096L154.143 164.418L184.54 147.74L214.938 164.418ZM214.938 232.441L245.335 249.119L214.938 265.796L184.54 282.474L154.143 265.796L124.138 249.119L154.535 232.441L184.933 215.763L214.938 232.441ZM214.938 300.464L245.335 317.141L214.938 333.819L184.54 350.497L154.143 333.819L123.746 317.141L154.143 300.464L184.54 283.786L214.938 300.464ZM214.938 368.299L245.335 384.977L214.938 401.655L184.54 418.332L154.143 401.655L123.746 384.977L154.143 368.299L184.54 351.621L214.938 368.299ZM214.938 436.322L245.335 453L214.938 469.677L184.54 486.355L154.143 469.677L123.746 453L154.143 436.322L184.54 419.644L214.938 436.322ZM215.918 435.76L185.521 419.082L215.918 402.404L246.315 385.726L276.713 402.404L307.11 419.082L276.713 435.76L246.315 452.438L215.918 435.76ZM277.497 436.322L307.894 419.644L338.292 436.322L368.689 453L338.292 469.677L307.894 486.355L277.497 469.677L247.1 453L277.497 436.322ZM339.272 435.76L308.875 419.082L339.272 402.404L369.669 385.726L400.066 402.404L430.464 419.082L400.066 435.76L369.669 452.438L339.272 435.76ZM400.851 436.322L431.248 419.644L461.645 436.322L492.043 453L461.645 469.677L431.248 486.355L400.851 469.677L370.454 453L400.851 436.322ZM462.43 435.76L432.033 419.082L462.43 402.404L492.827 385.726L523.224 402.404L553.621 419.082L523.224 435.76L492.827 452.438L462.43 435.76ZM524.009 436.322L554.406 419.644L584.803 436.322L615.2 453L584.803 469.677L554.406 486.355L524.009 469.677L493.611 453L524.009 436.322ZM585.587 435.76L555.19 419.082L585.587 402.404L615.985 385.726L646.382 402.404L676.779 419.082L646.382 435.76L615.985 452.438L585.587 435.76ZM647.166 436.322L677.564 419.644L707.961 436.322L738.358 453L707.961 469.677L677.564 486.355L647.166 469.677L616.769 453L647.166 436.322ZM708.745 435.76L678.348 419.082L708.745 402.404L739.142 385.726L769.54 402.404L799.937 419.082L769.54 435.76L739.142 452.438L708.745 435.76ZM770.324 436.322L800.721 419.644L831.118 436.322L861.516 453L831.118 469.677L800.721 486.355L770.324 469.677L739.927 453L770.324 436.322ZM831.903 435.76L801.506 419.082L831.903 402.404L862.3 385.726L892.697 402.404L923.095 419.082L892.697 435.76L862.3 452.438L831.903 435.76ZM893.482 436.322L923.879 419.644L954.276 436.322L984.673 453L954.276 469.677L923.879 486.355L893.482 469.677L863.085 453L893.482 436.322ZM955.061 435.76L924.663 419.082L955.061 402.404L985.458 385.726L1015.86 402.404L1046.25 419.082L1015.86 435.76L985.458 452.438L955.061 435.76ZM955.061 367.737L924.663 351.059L955.061 334.381L985.458 317.704L1015.86 334.381L1046.25 351.059L1015.86 367.737L985.458 384.415L955.061 367.737ZM955.061 299.902L924.663 283.224L955.061 266.546L985.458 249.868L1015.86 266.546L1046.25 283.224L1015.86 299.902L985.458 316.579L955.061 299.902ZM955.061 231.879L924.663 215.201L955.061 198.523L985.458 181.845L1015.86 198.523L1046.25 215.201L1015.86 231.879L985.458 248.556L955.061 231.879ZM955.061 163.856L924.663 147.178L955.061 130.5L985.458 113.823L1015.86 130.5L1046.25 147.178L1015.86 163.856L985.458 180.534L955.061 163.856ZM955.061 96.0205L924.663 79.3427L955.061 62.6649L985.458 45.9871L1015.86 62.6649L1046.25 79.3427L1015.86 96.0205L985.458 112.698L955.061 96.0205ZM954.08 96.5826L984.477 113.26L954.08 129.938L923.683 146.616L893.286 129.938L862.888 113.26L893.286 96.5826L923.683 79.9048L954.08 96.5826ZM892.501 96.0205L862.104 112.698L831.707 96.0205L801.31 79.3427L831.707 62.6649L862.104 45.9871L892.501 62.6649L922.898 79.3427L892.501 96.0205ZM830.922 96.5826L861.32 113.26L830.922 129.938L800.525 146.616L770.128 129.938L739.731 113.26L770.128 96.5826L800.525 79.9048L830.922 96.5826ZM769.343 96.0205L738.946 112.698L708.549 96.0205L678.152 79.3427L708.549 62.6649L738.946 45.9871L769.343 62.6649L799.741 79.3427L769.343 96.0205ZM707.765 96.5826L738.162 113.26L707.765 129.938L677.367 146.616L647.166 129.938L616.769 113.26L647.166 96.5826L677.564 79.9048L707.765 96.5826ZM646.186 96.0205L615.789 112.698L585.391 96.0205L554.994 79.3427L585.391 62.6649L615.789 45.9871L646.186 62.6649L676.583 79.3427L646.186 96.0205ZM584.607 96.5826L615.004 113.26L584.607 129.938L554.21 146.616L523.812 129.938L493.415 113.26L523.812 96.5826L554.21 79.9048L584.607 96.5826ZM523.028 96.0205L492.631 112.698L462.234 96.0205L431.836 79.3427L462.234 62.6649L492.631 45.9871L523.028 62.6649L553.425 79.3427L523.028 96.0205ZM461.449 96.5826L491.846 113.26L461.449 129.938L431.052 146.616L400.655 129.938L370.258 113.26L400.655 96.5826L431.052 79.9048L461.449 96.5826ZM399.87 96.0205L369.473 112.698L339.076 96.0205L308.679 79.3427L339.076 62.6649L369.473 45.9871L399.87 62.6649L430.268 79.3427L399.87 96.0205ZM338.095 96.5826L368.493 113.26L338.095 129.938L307.698 146.616L277.301 129.938L246.904 113.26L277.301 96.5826L307.698 79.9048L338.095 96.5826ZM276.517 96.0205L246.119 112.698L215.722 96.0205L185.325 79.3427L215.722 62.6649L246.119 45.9871L276.517 62.6649L306.914 79.3427L276.517 96.0205ZM214.938 96.5826L245.335 113.26L214.938 129.938L184.54 146.616L154.143 129.938L123.746 113.26L154.143 96.5826L184.54 79.9048L214.938 96.5826ZM153.359 96.0205L122.962 112.698L92.5644 96.0205L62.1672 79.3427L92.5644 62.6649L122.962 45.9871L153.359 62.6649L183.756 79.3427L153.359 96.0205ZM153.359 130.5L183.756 147.178L153.359 163.856L122.962 180.534L92.5644 163.856L62.1672 147.178L92.5644 130.5L122.962 113.823L153.359 130.5ZM153.359 198.523L183.756 215.201L153.359 231.879L122.962 248.556L92.5644 231.879L62.1672 215.201L92.5644 198.523L122.962 181.845L153.359 198.523ZM153.359 266.359L183.756 283.036L153.359 299.714L123.158 316.579L92.7605 299.902L62.3633 283.224L92.7605 266.546L123.158 249.868L153.359 266.359ZM153.359 334.381L183.756 351.059L153.359 367.737L122.962 384.415L92.5644 367.737L62.1672 351.059L92.5644 334.381L122.962 317.704L153.359 334.381ZM153.359 402.404L183.756 419.082L153.359 435.76L122.962 452.438L92.5644 435.76L62.1672 419.082L92.5644 402.404L122.962 385.726L153.359 402.404ZM153.359 470.24L183.756 486.917L153.359 503.595L122.962 520.273L92.5644 503.595L62.1672 486.917L92.5644 470.24L122.962 453.562L153.359 470.24ZM154.339 504.345L184.737 487.667L215.134 504.345L245.531 521.023L215.134 537.7L184.737 554.378L154.339 537.7L123.942 521.023L154.339 504.345ZM215.918 503.783L185.521 487.105L215.918 470.427L246.315 453.749L276.517 470.24L306.914 486.917L276.517 503.595L246.119 520.273L215.918 503.783ZM277.497 504.345L307.894 487.667L338.292 504.345L368.689 521.023L338.292 537.7L307.894 554.378L277.497 537.7L247.1 521.023L277.497 504.345ZM339.272 503.783L308.875 487.105L339.272 470.24L369.669 453.562L400.066 470.24L430.464 486.917L400.066 503.595L369.669 520.273L339.272 503.783ZM400.851 504.345L431.248 487.667L461.645 504.345L492.043 521.023L461.645 537.7L431.248 554.378L400.851 537.7L370.454 521.023L400.851 504.345ZM462.43 503.783L432.033 487.105L462.43 470.427L492.827 453.749L523.224 470.427L553.621 487.105L523.224 503.783L492.827 520.46L462.43 503.783ZM524.009 504.345L554.406 487.667L584.803 504.345L615.2 521.023L584.803 537.7L554.406 554.378L524.009 537.7L493.611 521.023L524.009 504.345ZM585.587 503.783L555.19 487.105L585.587 470.427L615.985 453.749L646.382 470.427L676.779 487.105L646.382 503.783L615.985 520.46L585.587 503.783ZM647.166 504.345L677.564 487.667L707.961 504.345L738.358 521.023L707.961 537.7L677.564 554.378L647.166 537.7L616.769 521.023L647.166 504.345ZM708.745 503.783L678.348 487.105L708.745 470.427L739.142 453.749L769.54 470.427L799.937 487.105L769.54 503.783L739.142 520.46L708.745 503.783ZM770.324 504.345L800.721 487.667L831.118 504.345L861.516 521.023L831.118 537.7L800.721 554.378L770.324 537.7L739.927 521.023L770.324 504.345ZM831.903 503.783L801.506 487.105L831.903 470.427L862.3 453.749L892.697 470.427L923.095 487.105L892.697 503.783L862.3 520.46L831.903 503.783ZM893.482 504.345L923.879 487.667L954.276 504.345L984.673 521.023L954.276 537.7L923.879 554.378L893.482 537.7L863.085 521.023L893.482 504.345ZM955.061 503.783L924.663 487.105L955.061 470.24L985.458 453.562L1015.86 470.24L1046.25 486.917L1015.86 503.595L985.458 520.273L955.061 503.783ZM1016.64 504.345L1047.04 487.667L1077.43 504.345L1107.83 521.023L1077.43 537.7L1047.04 554.378L1016.64 537.7L986.242 521.023L1016.64 504.345ZM1016.64 469.677L986.242 453L1016.64 436.322L1047.04 419.644L1077.43 436.322L1107.83 453L1077.43 469.677L1047.04 486.355L1016.64 469.677ZM1016.64 401.842L986.242 385.164L1016.64 368.486L1047.04 351.809L1077.43 368.486L1107.83 385.164L1077.43 401.842L1047.04 418.52L1016.64 401.842ZM1016.64 333.819L986.242 317.141L1016.64 300.464L1047.04 283.786L1077.43 300.464L1107.83 317.141L1077.43 333.819L1047.04 350.497L1016.64 333.819ZM1016.64 265.796L986.438 249.119L1016.84 232.441L1047.23 215.763L1077.63 232.441L1108.03 249.119L1077.63 265.796L1047.23 282.474L1016.64 265.796ZM1016.64 197.961L986.242 181.283L1016.64 164.605L1047.04 147.928L1077.43 164.605L1107.83 181.283L1077.43 197.961L1047.04 214.639L1016.64 197.961ZM1016.64 129.938L986.438 113.26L1016.84 96.5826L1047.23 79.9048L1077.63 96.5826L1108.03 113.26L1077.63 129.938L1047.23 146.616L1016.64 129.938ZM955.061 -5.3579L985.458 -22.0357L1015.86 -5.3579L1046.25 11.3199L1015.66 27.9976L985.262 44.6754L955.061 27.9976L924.663 11.3199L955.061 -5.3579ZM954.08 28.5598L984.477 45.2376L954.08 61.9153L923.683 78.5931L893.286 61.9153L862.888 45.2376L893.286 28.5598L923.683 11.882L954.08 28.5598ZM831.903 -5.3579L862.3 -22.0357L892.697 -5.3579L923.095 11.3199L892.501 27.9976L862.104 44.6754L831.903 27.9976L801.506 11.3199L831.903 -5.3579ZM830.922 28.5598L861.32 45.2376L830.922 61.9153L800.525 78.5931L770.128 61.9153L739.731 45.2376L770.128 28.5598L800.525 11.882L830.922 28.5598ZM708.745 -5.3579L739.142 -22.0357L769.54 -5.3579L799.937 11.3199L769.343 27.9976L738.946 44.6754L708.745 27.9976L678.348 11.3199L708.745 -5.3579ZM707.765 28.5598L738.162 45.2376L707.765 61.9153L677.367 78.5931L647.166 61.9153L616.769 45.2376L647.166 28.5598L677.564 11.882L707.765 28.5598ZM585.587 -5.3579L615.985 -22.0357L646.382 -5.3579L676.779 11.3199L646.186 27.9976L615.789 44.6754L585.587 27.9976L555.19 11.3199L585.587 -5.3579ZM584.607 28.5598L615.004 45.2376L584.607 61.9153L554.21 78.5931L523.812 61.9153L493.415 45.2376L523.812 28.5598L554.21 11.882L584.607 28.5598ZM462.43 -5.3579L492.827 -22.0357L523.224 -5.3579L553.621 11.3199L523.028 27.9976L492.631 44.6754L462.43 27.9976L432.033 11.3199L462.43 -5.3579ZM461.449 28.5598L491.846 45.2376L461.449 61.9153L431.052 78.5931L400.655 61.9153L370.258 45.2376L400.655 28.5598L431.052 11.882L461.449 28.5598ZM339.076 -5.3579L369.473 -22.0357L399.87 -5.3579L430.268 11.3199L399.87 27.9976L369.473 44.6754L339.076 27.9976L308.679 11.3199L339.076 -5.3579ZM338.095 28.5598L368.493 45.2376L338.095 61.9153L307.894 78.7805L277.497 62.1027L247.1 45.425L277.497 28.7472L307.894 12.0694L338.095 28.5598ZM215.918 -5.3579L246.315 -22.0357L276.713 -5.3579L307.11 11.3199L276.517 27.9976L246.119 44.6754L215.918 27.9976L185.521 11.3199L215.918 -5.3579ZM214.938 28.5598L245.335 45.2376L214.938 61.9153L184.54 78.5931L154.143 61.9153L123.746 45.2376L154.143 28.5598L184.54 11.882L214.938 28.5598ZM92.7605 -5.3579L123.158 -22.0357L153.555 -5.3579L183.952 11.3199L153.359 27.9976L122.962 44.6754L92.7605 27.9976L62.3633 11.3199L92.7605 -5.3579ZM31.1817 61.9153L0.980555 45.2376L31.3778 28.5598L61.775 11.882L92.1722 28.5598L122.569 45.2376L92.1722 61.9153L61.775 78.5931L31.1817 61.9153ZM31.1817 129.938L0.980555 113.26L31.3778 96.5826L61.775 79.9048L92.1722 96.5826L122.569 113.26L92.1722 129.938L61.775 146.616L31.1817 129.938ZM31.1817 197.961L0.784444 181.283L31.1817 164.605L61.5789 147.928L91.9761 164.605L122.373 181.283L91.9761 197.961L61.5789 214.639L31.1817 197.961ZM31.1817 265.796L0.980555 249.119L31.3778 232.441L61.775 215.763L92.1722 232.441L122.569 249.119L92.1722 265.796L61.775 282.474L31.1817 265.796ZM31.1817 333.819L0.784444 317.141L31.1817 300.464L61.5789 283.786L91.9761 300.464L122.373 317.141L91.9761 333.819L61.5789 350.497L31.1817 333.819ZM31.1817 401.842L0.784444 385.164L31.1817 368.486L61.5789 351.809L91.9761 368.486L122.373 385.164L91.9761 401.842L61.5789 418.52L31.1817 401.842ZM31.1817 469.677L0.784444 453L31.1817 436.322L61.5789 419.644L91.9761 436.322L122.373 453L91.9761 469.677L61.5789 486.355L31.1817 469.677ZM31.1817 537.7L0.784444 521.023L31.1817 504.345L61.5789 487.667L91.9761 504.345L122.373 521.023L91.78 537.7L61.3827 554.378L31.1817 537.7ZM91.78 605.723L61.3827 622.401L30.9855 605.723L0.588333 589.045L30.9855 572.368L61.3827 555.69L91.78 572.368L122.177 589.045L91.78 605.723ZM92.7605 571.618L62.3633 554.94L92.7605 538.262L123.158 521.585L153.555 538.262L183.952 554.94L153.555 571.618L123.158 588.296L92.7605 571.618ZM214.938 605.723L184.54 622.401L154.143 605.723L123.746 589.045L154.143 572.368L184.54 555.69L214.938 572.368L245.335 589.045L214.938 605.723ZM215.918 571.618L185.521 554.94L215.918 538.262L246.315 521.585L276.713 538.262L307.11 554.94L276.713 571.618L246.315 588.296L215.918 571.618ZM338.292 605.723L307.894 622.401L277.497 605.723L247.1 589.045L277.497 572.368L307.894 555.69L338.292 572.368L368.689 589.045L338.292 605.723ZM339.272 571.618L308.875 554.94L339.272 538.262L369.669 521.585L400.066 538.262L430.464 554.94L400.066 571.618L369.669 588.296L339.272 571.618ZM461.449 605.723L431.052 622.401L400.655 605.723L370.258 589.045L400.655 572.368L431.052 555.69L461.449 572.368L491.846 589.045L461.449 605.723ZM462.43 571.618L432.033 554.94L462.43 538.262L492.827 521.585L523.224 538.262L553.621 554.94L523.224 571.618L492.827 588.296L462.43 571.618ZM584.607 605.723L554.21 622.401L523.812 605.723L493.415 589.045L523.812 572.368L554.21 555.69L584.607 572.368L615.004 589.045L584.607 605.723ZM585.587 571.618L555.19 554.94L585.587 538.262L615.985 521.585L646.382 538.262L676.779 554.94L646.382 571.618L615.985 588.296L585.587 571.618ZM707.765 605.723L677.367 622.401L646.97 605.723L616.573 589.045L646.97 572.368L677.367 555.69L707.765 572.368L738.162 589.045L707.765 605.723ZM708.745 571.618L678.348 554.94L708.745 538.262L739.142 521.585L769.54 538.262L799.937 554.94L769.54 571.618L739.142 588.296L708.745 571.618ZM830.922 605.723L800.525 622.401L770.128 605.723L739.731 589.045L770.128 572.368L800.525 555.69L830.922 572.368L861.32 589.045L830.922 605.723ZM831.903 571.618L801.506 554.94L831.903 538.262L862.3 521.585L892.697 538.262L923.095 554.94L892.697 571.618L862.3 588.296L831.903 571.618ZM954.08 605.723L923.683 622.401L893.286 605.723L862.888 589.045L893.286 572.368L923.683 555.69L954.08 572.368L984.477 589.045L954.08 605.723ZM955.061 571.618L924.663 554.94L955.061 538.262L985.458 521.585L1015.86 538.262L1046.25 554.94L1015.86 571.618L985.458 588.296L955.061 571.618ZM1077.24 605.723L1046.84 622.401L1016.44 605.723L986.046 589.045L1016.44 572.368L1046.84 555.69L1077.24 572.368L1107.64 589.045L1077.24 605.723ZM1139.01 538.262L1169.41 554.94L1139.01 571.618L1108.62 588.296L1078.22 571.618L1047.82 554.94L1078.22 538.262L1108.62 521.585L1139.01 538.262ZM1138.82 470.24L1169.21 486.917L1138.82 503.595L1108.42 520.273L1078.02 503.595L1047.62 486.917L1078.02 470.24L1108.42 453.562L1138.82 470.24ZM1138.82 402.404L1169.21 419.082L1138.82 435.76L1108.42 452.438L1078.02 435.76L1047.62 419.082L1078.02 402.404L1108.42 385.726L1138.82 402.404ZM1138.82 334.381L1169.21 351.059L1138.82 367.737L1108.42 384.415L1078.02 367.737L1047.62 351.059L1078.02 334.381L1108.42 317.704L1138.82 334.381ZM1138.82 266.359L1169.21 283.036L1138.82 299.714L1108.42 316.392L1078.02 299.714L1047.62 283.036L1078.02 266.359L1108.42 249.681L1138.82 266.359ZM1138.82 198.523L1169.21 215.201L1138.82 231.879L1108.42 248.556L1078.02 231.879L1047.62 215.201L1078.02 198.523L1108.42 181.845L1138.82 198.523ZM1138.82 130.5L1169.21 147.178L1138.82 163.856L1108.42 180.534L1078.02 163.856L1047.62 147.178L1078.02 130.5L1108.42 113.823L1138.82 130.5ZM1138.82 62.4775L1169.21 79.1553L1138.82 95.8331L1108.42 112.511L1078.02 95.8331L1047.62 79.1553L1078.02 62.4775L1108.42 45.7998L1138.82 62.4775ZM1138.82 27.9976L1108.42 44.6754L1078.22 27.9976L1047.82 11.3199L1078.22 -5.3579L1108.62 -22.0357L1139.01 -5.3579L1169.41 11.3199L1138.82 27.9976Z" fill="url(#paint1_radial_46_394)" fill-opacity="0.9"/>
<defs>
<radialGradient id="paint0_radial_46_394" cx="0" cy="0" r="1" gradientUnits="userSpaceOnUse" gradientTransform="translate(-1.92864 572.019) scale(1448.4 1383.99)">
<stop stop-color="#42E8E0"/>
<stop offset="0.5161" stop-color="#42E8E0"/>
<stop offset="0.9317" stop-color="#42E8E0"/>
<stop offset="1" stop-color="#42E8E0"/>
</radialGradient>
<radialGradient id="paint1_radial_46_394" cx="0" cy="0" r="1" gradientUnits="userSpaceOnUse" gradientTransform="translate(-1.92864 -39.3183) scale(1448.4 1383.99)">
<stop stop-color="#42E8E0"/>
<stop offset="0.5161" stop-color="#42E8E0"/>
<stop offset="0.9317" stop-color="#42E8E0"/>
<stop offset="1" stop-color="#42E8E0"/>
</radialGradient>
</defs>
</svg>
