<svg width="36" height="36" viewBox="0 0 36 36" fill="none" xmlns="http://www.w3.org/2000/svg">
<rect width="36" height="36" rx="18" fill="#F0F5FB"/>
<path fill-rule="evenodd" clip-rule="evenodd" d="M22.7229 12.2196C23.0158 11.9268 23.4907 11.9268 23.7836 12.2197C24.0764 12.5126 24.0764 12.9875 23.7835 13.2804L19.0624 18.0007L23.7835 22.7209C24.0764 23.0138 24.0764 23.4887 23.7836 23.7816C23.4907 24.0745 23.0158 24.0746 22.7229 23.7817L18.0016 19.0612L13.2803 23.7817C12.9874 24.0746 12.5125 24.0745 12.2196 23.7816C11.9268 23.4887 11.9268 23.0138 12.2197 22.7209L16.9408 18.0007L12.2197 13.2804C11.9268 12.9875 11.9268 12.5126 12.2196 12.2197C12.5125 11.9268 12.9874 11.9268 13.2803 12.2196L18.0016 16.9401L22.7229 12.2196Z" fill="white"/>
<path fill-rule="evenodd" clip-rule="evenodd" d="M22.7229 12.2196C23.0158 11.9268 23.4907 11.9268 23.7836 12.2197C24.0764 12.5126 24.0764 12.9875 23.7835 13.2804L19.0624 18.0007L23.7835 22.7209C24.0764 23.0138 24.0764 23.4887 23.7836 23.7816C23.4907 24.0745 23.0158 24.0746 22.7229 23.7817L18.0016 19.0612L13.2803 23.7817C12.9874 24.0746 12.5125 24.0745 12.2196 23.7816C11.9268 23.4887 11.9268 23.0138 12.2197 22.7209L16.9408 18.0007L12.2197 13.2804C11.9268 12.9875 11.9268 12.5126 12.2196 12.2197C12.5125 11.9268 12.9874 11.9268 13.2803 12.2196L18.0016 16.9401L22.7229 12.2196Z" fill="url(#paint0_linear_53_2305)"/>
<defs>
<linearGradient id="paint0_linear_53_2305" x1="11.6845" y1="28.27" x2="23.9287" y2="24.6571" gradientUnits="userSpaceOnUse">
<stop stop-color="#0D748B"/>
<stop offset="1" stop-color="#1A0B73"/>
</linearGradient>
</defs>
</svg>
