<svg width="36" height="36" viewBox="0 0 36 36" fill="none" xmlns="http://www.w3.org/2000/svg">
<rect width="36" height="36" rx="18" fill="#F0F5FB"/>
<g clip-path="url(#clip0_46_118)">
<path d="M24.8891 11.9291C24.4787 11.5172 23.9909 11.1904 23.4539 10.9674C22.9169 10.7444 22.3411 10.6296 21.7596 10.6296C21.1781 10.6296 20.6023 10.7444 20.0653 10.9674C19.5282 11.1904 19.0405 11.5172 18.63 11.9291L18 12.5673L17.37 11.9291C16.9596 11.5172 16.4718 11.1904 15.9348 10.9674C15.3978 10.7444 14.822 10.6296 14.2405 10.6296C13.659 10.6296 13.0832 10.7444 12.5462 10.9674C12.0092 11.1904 11.5214 11.5172 11.111 11.9291C9.37641 13.6636 9.27005 16.5927 11.4546 18.8182L18 25.3636L24.5455 18.8182C26.73 16.5927 26.6237 13.6636 24.8891 11.9291Z" stroke="white" stroke-width="1.5" stroke-linecap="round" stroke-linejoin="round"/>
<path d="M24.8891 11.9291C24.4787 11.5172 23.9909 11.1904 23.4539 10.9674C22.9169 10.7444 22.3411 10.6296 21.7596 10.6296C21.1781 10.6296 20.6023 10.7444 20.0653 10.9674C19.5282 11.1904 19.0405 11.5172 18.63 11.9291L18 12.5673L17.37 11.9291C16.9596 11.5172 16.4718 11.1904 15.9348 10.9674C15.3978 10.7444 14.822 10.6296 14.2405 10.6296C13.659 10.6296 13.0832 10.7444 12.5462 10.9674C12.0092 11.1904 11.5214 11.5172 11.111 11.9291C9.37641 13.6636 9.27005 16.5927 11.4546 18.8182L18 25.3636L24.5455 18.8182C26.73 16.5927 26.6237 13.6636 24.8891 11.9291Z" stroke="url(#paint0_linear_46_118)" stroke-width="1.5" stroke-linecap="round" stroke-linejoin="round"/>
</g>
<defs>
<linearGradient id="paint0_linear_46_118" x1="9.38136" y1="30.6043" x2="25.7781" y2="25.2276" gradientUnits="userSpaceOnUse">
<stop stop-color="#0D748B"/>
<stop offset="1" stop-color="#1A0B73"/>
</linearGradient>
<clipPath id="clip0_46_118">
<rect width="18" height="18" fill="white" transform="translate(9 9)"/>
</clipPath>
</defs>
</svg>
