<svg width="22" height="32" viewBox="0 0 22 32" fill="none" xmlns="http://www.w3.org/2000/svg">
<path d="M11 0C4.91857 0 0 5.008 0 11.2C0 19.6 11 32 11 32C11 32 22 19.6 22 11.2C22 5.008 17.0814 0 11 0ZM11 15.2C8.83143 15.2 7.07143 13.408 7.07143 11.2C7.07143 8.992 8.83143 7.2 11 7.2C13.1686 7.2 14.9286 8.992 14.9286 11.2C14.9286 13.408 13.1686 15.2 11 15.2Z" fill="white"/>
<path d="M11 0C4.91857 0 0 5.008 0 11.2C0 19.6 11 32 11 32C11 32 22 19.6 22 11.2C22 5.008 17.0814 0 11 0ZM11 15.2C8.83143 15.2 7.07143 13.408 7.07143 11.2C7.07143 8.992 8.83143 7.2 11 7.2C13.1686 7.2 14.9286 8.992 14.9286 11.2C14.9286 13.408 13.1686 15.2 11 15.2Z" fill="url(#paint0_linear_53_866)"/>
<defs>
<linearGradient id="paint0_linear_53_866" x1="-0.578205" y1="43.3818" x2="22.8534" y2="38.6292" gradientUnits="userSpaceOnUse">
<stop stop-color="#0D748B"/>
<stop offset="1" stop-color="#1A0B73"/>
</linearGradient>
</defs>
</svg>
