<svg width="108" height="13" viewBox="0 0 108 13" fill="none" xmlns="http://www.w3.org/2000/svg">
<path d="M0.314 13V0.309999H2.636L6.92 8.104L11.186 0.309999H13.472V13H10.934V5.26L7.658 11.092H6.092L2.834 5.314V13H0.314ZM16.0456 13V0.309999H24.7396V2.488H18.7096V5.458H24.3436V7.654H18.7096V10.822H24.7396V13H16.0456ZM26.944 13V0.309999H29.734V13H26.944ZM32.2702 13V0.309999H34.3402L40.6762 8.392V0.309999H43.2682V13H41.2162L34.8622 4.9V13H32.2702ZM50.8687 13V0.309999H53.1907L57.4747 8.104L61.7407 0.309999H64.0267V13H61.4887V5.26L58.2127 11.092H56.6467L53.3887 5.314V13H50.8687ZM66.6003 13V0.309999H69.3903V13H66.6003ZM71.9264 13V0.309999H73.9964L80.3324 8.392V0.309999H82.9244V13H80.8724L74.5184 4.9V13H71.9264ZM85.4792 13V0.309999H94.1732V2.488H88.1432V5.458H93.7772V7.654H88.1432V10.822H94.1732V13H85.4792ZM96.3776 13V0.309999H102.174C103.59 0.309999 104.682 0.651999 105.45 1.336C106.218 2.02 106.602 2.974 106.602 4.198C106.602 5.146 106.356 5.938 105.864 6.574C105.384 7.198 104.694 7.624 103.794 7.852C104.43 8.044 104.952 8.506 105.36 9.238L107.412 13H104.334L102.138 8.95C101.958 8.626 101.736 8.404 101.472 8.284C101.208 8.152 100.896 8.086 100.536 8.086H99.1676V13H96.3776ZM99.1676 6.07H101.67C103.17 6.07 103.92 5.47 103.92 4.27C103.92 3.082 103.17 2.488 101.67 2.488H99.1676V6.07Z" fill="white"/>
<path d="M0.314 13V0.309999H2.636L6.92 8.104L11.186 0.309999H13.472V13H10.934V5.26L7.658 11.092H6.092L2.834 5.314V13H0.314ZM16.0456 13V0.309999H24.7396V2.488H18.7096V5.458H24.3436V7.654H18.7096V10.822H24.7396V13H16.0456ZM26.944 13V0.309999H29.734V13H26.944ZM32.2702 13V0.309999H34.3402L40.6762 8.392V0.309999H43.2682V13H41.2162L34.8622 4.9V13H32.2702ZM50.8687 13V0.309999H53.1907L57.4747 8.104L61.7407 0.309999H64.0267V13H61.4887V5.26L58.2127 11.092H56.6467L53.3887 5.314V13H50.8687ZM66.6003 13V0.309999H69.3903V13H66.6003ZM71.9264 13V0.309999H73.9964L80.3324 8.392V0.309999H82.9244V13H80.8724L74.5184 4.9V13H71.9264ZM85.4792 13V0.309999H94.1732V2.488H88.1432V5.458H93.7772V7.654H88.1432V10.822H94.1732V13H85.4792ZM96.3776 13V0.309999H102.174C103.59 0.309999 104.682 0.651999 105.45 1.336C106.218 2.02 106.602 2.974 106.602 4.198C106.602 5.146 106.356 5.938 105.864 6.574C105.384 7.198 104.694 7.624 103.794 7.852C104.43 8.044 104.952 8.506 105.36 9.238L107.412 13H104.334L102.138 8.95C101.958 8.626 101.736 8.404 101.472 8.284C101.208 8.152 100.896 8.086 100.536 8.086H99.1676V13H96.3776ZM99.1676 6.07H101.67C103.17 6.07 103.92 5.47 103.92 4.27C103.92 3.082 103.17 2.488 101.67 2.488H99.1676V6.07Z" fill="url(#paint0_linear_46_140)"/>
<defs>
<linearGradient id="paint0_linear_46_140" x1="-3.86474" y1="28.892" x2="41.6675" y2="-29.6763" gradientUnits="userSpaceOnUse">
<stop stop-color="#0D748B"/>
<stop offset="1" stop-color="#1A0B73"/>
</linearGradient>
</defs>
</svg>
