<svg width="36" height="36" viewBox="0 0 36 36" fill="none" xmlns="http://www.w3.org/2000/svg">
<path d="M18.0001 0C8.07505 0 0.000116157 8.07496 0.000116157 18C0.000116157 21.0991 0.800722 24.1466 2.31898 26.8357L0.0290725 35.0061C-0.0460577 35.2745 0.0267248 35.5625 0.220811 35.7621C0.370289 35.9163 0.573766 36 0.782722 36C0.845331 36 0.908722 35.9922 0.970548 35.9773L9.49782 33.865C12.1016 35.2628 15.034 36 18.0001 36C27.9251 36 36 27.925 36 18C36 8.07496 27.9251 0 18.0001 0ZM27.0548 24.3517C26.6698 25.4176 24.8228 26.3903 23.9353 26.521C23.1387 26.6377 22.1307 26.6877 21.024 26.3403C20.3534 26.129 19.4925 25.8488 18.3898 25.3784C13.7544 23.4016 10.7273 18.7928 10.4956 18.4883C10.2648 18.1839 8.60878 16.0145 8.60878 13.7692C8.60878 11.5239 9.80226 10.4197 10.2264 9.96261C10.6506 9.50556 11.1507 9.3913 11.459 9.3913C11.7674 9.3913 12.0749 9.39522 12.3449 9.40774C12.629 9.42183 13.0102 9.30052 13.385 10.1911C13.7701 11.1052 14.6943 13.3505 14.8086 13.5798C14.9244 13.8083 15.0011 14.0752 14.8477 14.3797C14.6943 14.6841 14.6176 14.8743 14.386 15.1411C14.1543 15.408 13.9008 15.7359 13.6926 15.941C13.4609 16.1687 13.2207 16.4152 13.4899 16.8723C13.7591 17.3293 14.6865 18.8233 16.0608 20.0332C17.8255 21.5875 19.3148 22.0696 19.7766 22.2981C20.2383 22.5266 20.5083 22.4883 20.7775 22.1838C21.0467 21.8786 21.9327 20.851 22.2402 20.3948C22.5478 19.9385 22.8561 20.0137 23.2803 20.1663C23.7045 20.3181 25.9764 21.4216 26.4381 21.6501C26.8999 21.8786 27.2082 21.9929 27.324 22.183C27.4399 22.3724 27.4399 23.2865 27.0548 24.3517Z" fill="white"/>
<path d="M18.0001 0C8.07505 0 0.000116157 8.07496 0.000116157 18C0.000116157 21.0991 0.800722 24.1466 2.31898 26.8357L0.0290725 35.0061C-0.0460577 35.2745 0.0267248 35.5625 0.220811 35.7621C0.370289 35.9163 0.573766 36 0.782722 36C0.845331 36 0.908722 35.9922 0.970548 35.9773L9.49782 33.865C12.1016 35.2628 15.034 36 18.0001 36C27.9251 36 36 27.925 36 18C36 8.07496 27.9251 0 18.0001 0ZM27.0548 24.3517C26.6698 25.4176 24.8228 26.3903 23.9353 26.521C23.1387 26.6377 22.1307 26.6877 21.024 26.3403C20.3534 26.129 19.4925 25.8488 18.3898 25.3784C13.7544 23.4016 10.7273 18.7928 10.4956 18.4883C10.2648 18.1839 8.60878 16.0145 8.60878 13.7692C8.60878 11.5239 9.80226 10.4197 10.2264 9.96261C10.6506 9.50556 11.1507 9.3913 11.459 9.3913C11.7674 9.3913 12.0749 9.39522 12.3449 9.40774C12.629 9.42183 13.0102 9.30052 13.385 10.1911C13.7701 11.1052 14.6943 13.3505 14.8086 13.5798C14.9244 13.8083 15.0011 14.0752 14.8477 14.3797C14.6943 14.6841 14.6176 14.8743 14.386 15.1411C14.1543 15.408 13.9008 15.7359 13.6926 15.941C13.4609 16.1687 13.2207 16.4152 13.4899 16.8723C13.7591 17.3293 14.6865 18.8233 16.0608 20.0332C17.8255 21.5875 19.3148 22.0696 19.7766 22.2981C20.2383 22.5266 20.5083 22.4883 20.7775 22.1838C21.0467 21.8786 21.9327 20.851 22.2402 20.3948C22.5478 19.9385 22.8561 20.0137 23.2803 20.1663C23.7045 20.3181 25.9764 21.4216 26.4381 21.6501C26.8999 21.8786 27.2082 21.9929 27.324 22.183C27.4399 22.3724 27.4399 23.2865 27.0548 24.3517Z" fill="url(#paint0_linear_53_868)"/>
<defs>
<linearGradient id="paint0_linear_53_868" x1="-0.946153" y1="48.8045" x2="35.7775" y2="37.9702" gradientUnits="userSpaceOnUse">
<stop stop-color="#0D748B"/>
<stop offset="1" stop-color="#1A0B73"/>
</linearGradient>
</defs>
</svg>
